g skin1
v -0.47240454 1.026556 0.04243948
v -0.47150138 0.98206687 0.10666262
v -0.50083303 0.981391 0.09431167
v -0.47150138 0.98206687 0.10666262
v -0.47150138 0.92318493 0.065879904
v -0.50083303 0.981391 0.09431167
v -0.42184475 0.97205806 -0.05755936
v -0.4679787 0.97535527 -0.0055012037
v -0.47150138 0.92318493 0.065879904
v -0.42184475 0.97205806 -0.05755936
v -0.47240454 1.026556 0.04243948
v -0.4679787 0.97535527 -0.0055012037
v -0.05222672 1.1579705 -0.15918335
v -0.04898635 1.1609757 -0.14619818
v 3.099088E-05 1.1638296 -0.16124813
v -0.004065871 1.1605699 -0.1742333
v -0.0045813727 1.1777085 -0.17904925
v -0.0054671494 1.2100204 -0.1715033
v -0.007869547 1.2056549 -0.18448849
v -0.038219213 1.2264053 -0.1601522
v -0.040241987 1.2233508 -0.17442599
v -0.06188624 1.205041 -0.16144891
v -0.04898635 1.1609757 -0.14619818
v -0.05222672 1.1579705 -0.15918335
v -0.061346717 1.2086091 -0.14846373
v -0.040241987 1.2233508 -0.17442599
v -0.038219213 1.2264053 -0.1601522
v -9.9708274E-08 0.9990609 0.13889886
v -9.9708274E-08 0.9942964 0.07099258
v 0.04634234 0.9895099 0.07590639
v 0.052129902 0.99097914 0.12627576
v 0.09049479 0.96758044 0.096726015
v 0.10835673 0.9464375 0.13050863
v 0.0623607 0.9707231 0.15554649
v -9.9708274E-08 0.97672963 0.17072988
v 0.07259149 0.93470865 0.16793245
v -9.9708274E-08 0.9305966 0.18069427
v -9.9708274E-08 0.9305966 0.18069427
v -0.072589576 0.934709 0.16793245
v -9.9708274E-08 0.97672963 0.17072988
v -0.062359843 0.9707233 0.15554649
v -9.9708274E-08 0.9990609 0.13889886
v -0.10835694 0.9464375 0.13050863
v -0.052130107 0.99097914 0.12627576
v -9.9708274E-08 0.9942964 0.07099258
v -0.09049498 0.96758044 0.096726015
v -0.04634254 0.9895099 0.07590639
v -4.0279816E-18 1.0008738 0.21923795
v 0.04082743 1.0022097 0.21240559
v -1.4174278E-18 1.074788 0.058357973
v 0.10402144 1.049169 0.08849405
v 0.085544325 1.0104729 0.19312088
v 0.11086638 1.0209091 0.18001345
v 0.10452278 0.99625 0.18274623
v 0.09162776 0.9478338 0.10851913
v 0.085557155 0.9690179 0.18937227
v -1.4474714E-18 0.9296711 0.08089957
v 0.03958329 0.94977564 0.20500782
v -3.8938402E-18 0.94373685 0.21264325
v -4.0279816E-18 1.0008738 0.21923795
v -1.4174278E-18 1.074788 0.058357973
v -0.04082743 1.0022097 0.21240559
v -0.10402144 1.049169 0.08849405
v -0.085544325 1.0104729 0.19312088
v -0.11086638 1.0209091 0.18001345
v -0.10452278 0.99625 0.18274623
v -0.09162776 0.9478338 0.10851913
v -0.085557155 0.9690179 0.18937227
v -1.4474714E-18 0.9296711 0.08089957
v -0.03958329 0.94977564 0.20500782
v -3.8938402E-18 0.94373685 0.21264325
v 0.19501303 1.028996 0.00012108029
v 0.21449772 0.970135 -0.04385866
v 0.21034807 1.0014454 0.03246697
v 0.15509675 1.003872 -0.15637188
v 0.14339752 1.0498475 -0.14658967
v -0 1.0486368 -0.20247287
v -0 1.0038011 -0.215401
v 0.14746484 0.91002136 -0.15039939
v 0.20041159 0.9064711 0.000696275
v 0.2146884 0.93938375 0.03176666
v 0.17101888 0.79752165 -0.00016830412
v 0.12384867 0.80272555 -0.13266647
v 0.14272858 0.7403861 -0.0002183526
v 0.10571896 0.7459543 -0.12014017
v -0 0.9011494 -0.21166497
v -0 0.804526 -0.18602172
v -0 0.74857026 -0.16831946
v -0.12386268 0.8027254 -0.13265447
v -0.10574209 0.74595386 -0.12011842
v -0.14746521 0.91002136 -0.15039907
v -0.17101906 0.79752165 -0.00016674829
v -0.14272879 0.7403861 -0.00021530387
v -0.20041159 0.9064711 0.000696275
v -0.15509675 1.003872 -0.15637188
v -0.21449772 0.970135 -0.04385866
v -0.2146884 0.93938375 0.03176666
v -0.14339752 1.0498475 -0.14658967
v -0 1.0486368 -0.20247287
v -0.19501303 1.028996 0.00012108029
v -0.21034807 1.0014454 0.03246697
v -0.0016821203 0.7233703 -0.12606601
v 0.07049333 0.733724 -0.1828889
v 0.09526455 0.7479937 -0.16297635
v -0.0016854702 0.6902744 -0.1176988
v 0.08869606 0.6813861 -0.12162705
v 0.015512096 1.2501687 0.009573221
v 0.043601293 1.2491356 -0.0028528287
v 0.008257507 1.2428756 0.050556567
v 0.06163429 1.2256266 0.061753515
v -0 1.2167892 0.10091053
v 0.074203335 1.1785761 0.12135809
v -0 1.1826912 0.13924165
v -0 1.1361977 0.18433957
v 0.04954263 1.0989861 0.18754336
v 0.039841652 1.0889632 0.19227928
v 0.063117914 1.102444 0.18298766
v -0 1.0800263 0.20268987
v 0.036614366 1.0750605 0.19592641
v 0.07693003 1.0984101 0.17983286
v 0.08727803 1.0879654 0.17892429
v 0.04072551 1.0610036 0.19750753
v -4.0279816E-18 1.0008738 0.21923795
v 0.04082743 1.0022097 0.21240559
v 0.051073506 1.0505588 0.19659895
v 0.064885624 1.0465249 0.19344415
v 0.085544325 1.0104729 0.19312088
v 0.11086638 1.0209091 0.18001345
v 0.07846092 1.0499828 0.18888845
v 0.08833659 1.0601257 0.1847641
v 0.12881415 1.0323136 0.1691708
v 0.10452278 0.99625 0.18274623
v 0.091476925 1.0739686 0.18081257
v 0.14745422 1.0896626 0.12341359
v 0.16932243 0.99656165 0.13822149
v 0.123817116 0.9905272 0.17303768
v 0.085557155 0.9690179 0.18937227
v 0.08857343 0.9387386 0.18404491
v 0.099174015 0.92199177 0.18494968
v 0.03958329 0.94977564 0.20500782
v 0.06437989 0.89426935 0.1966624
v 0.04246713 0.91149765 0.20082663
v -3.8938402E-18 0.94373685 0.21264325
v -0 0.85738 0.20423481
v -6.3628346E-19 0.9032329 0.21177278
v -0.092300005 0.6807417 -0.12295152
v -0.073860876 0.733724 -0.1828889
v -0.09667441 0.7466725 -0.15851964
v -0.0016854702 0.6902744 -0.1176988
v -0.0016854199 0.7233703 -0.11335603
v -0.073860876 0.733724 -0.1828889
v -0.0016854199 0.7233703 -0.11335603
v -0.09667441 0.7466725 -0.15851964
v -0.0016854702 0.6902744 -0.1176988
v -0.092300005 0.6807417 -0.12295152
v -0 0.65953845 -0.10183047
v 0.10571896 0.7459543 -0.12014017
v -0 0.74857026 -0.16831946
v 0.07277735 0.65989906 -0.081644855
v 0.14272858 0.7403861 -0.0002183526
v 0.09798733 0.66012317 0
v 0.10559923 0.7356766 0.114125445
v 0.07090833 0.65203583 0.07884478
v -0 0.73287505 0.16128184
v -0 0.6483028 0.09743224
v 0.08869606 0.6813861 -0.12162705
v 0.09526455 0.7479937 -0.16297635
v 0.07049333 0.733724 -0.1828889
v -0.0016854702 0.6902744 -0.1176988
v -0.0016821203 0.7233703 -0.12606601
v 0.19501303 1.028996 0.00012108029
v 0.21034807 1.0014454 0.03246697
v 0.2042908 0.96965814 0.07699645
v 0.16932243 0.99656165 0.13822149
v 0.15571849 0.88867515 0.1378821
v 0.099174015 0.92199177 0.18494968
v 0.20041159 0.9064711 0.000696275
v 0.2146884 0.93938375 0.03176666
v 0.08154808 0.8798529 0.18857184
v 0.06437989 0.89426935 0.1966624
v -0 0.85738 0.20423481
v 0.1468038 0.8369003 0.13447647
v 0.17101888 0.79752165 -0.00016830412
v 0.077293836 0.8240758 0.18052942
v 0.12705185 0.79292595 0.123720616
v 0.14272858 0.7403861 -0.0002183526
v 0.10559923 0.7356766 0.114125445
v 0.06870606 0.78864294 0.1671846
v -0 0.73287505 0.16128184
v -0 0.82218194 0.19458815
v -0 0.7876099 0.18030654
v -0.08154669 0.87985283 0.18857208
v -0.06446313 0.8941047 0.19662301
v -0.09878456 0.92070466 0.18502972
v -0.06867668 0.78864294 0.1671846
v -0.10558608 0.73567635 0.11414353
v -0.07727415 0.82407576 0.1805298
v -0.15571775 0.88867515 0.13788301
v -0.16932243 0.99656165 0.13822149
v -0.1467937 0.8368999 0.13448915
v -0.20041159 0.9064711 0.000696275
v -0.17101906 0.79752165 -0.00016674829
v -0.12703803 0.7929255 0.1237381
v -0.14272879 0.7403861 -0.00021530387
v -6.3628346E-19 0.9032329 0.21177278
v -0 0.85738 0.20423481
v -0.06446313 0.8941047 0.19662301
v -0.04246713 0.91149765 0.20082663
v -3.8938402E-18 0.94373685 0.21264325
v -0.09878456 0.92070466 0.18502972
v -0.03958329 0.94977564 0.20500782
v -0.08857343 0.9387386 0.18404491
v -0.085557155 0.9690179 0.18937227
v -0.16932243 0.99656165 0.13822149
v -0.123817116 0.9905272 0.17303768
v -0.10452278 0.99625 0.18274623
v -0.12881415 1.0323136 0.1691708
v -0.14745425 1.0896626 0.12341358
v -0.11086638 1.0209091 0.18001345
v -0.091476925 1.0739686 0.18081257
v -0.08727803 1.0879654 0.17892429
v -0.08833659 1.0601257 0.1847641
v -0.07846092 1.0499828 0.18888845
v -0.064885624 1.0465249 0.19344415
v -0.085544325 1.0104729 0.19312088
v -0.04082743 1.0022097 0.21240559
v -0.051073506 1.0505588 0.19659895
v -0.04072551 1.0610036 0.19750753
v -4.0279816E-18 1.0008738 0.21923795
v -0 1.0800263 0.20268987
v -0.036614366 1.0750605 0.19592641
v -0.039841652 1.0889632 0.19227928
v -0 1.1361977 0.18433957
v -0.04954263 1.0989861 0.18754336
v -0.074203335 1.1785761 0.12135809
v -0 1.1826912 0.13924165
v -0.063117914 1.102444 0.18298766
v -0 1.2167892 0.10091053
v -0.07693003 1.0984101 0.17983286
v -0.06167323 1.2256129 0.06174879
v -0.12242749 1.1745785 0.07965227
v -0.14745425 1.0896626 0.12341358
v -0.1839437 1.0899566 3.8566148E-05
v -0.19501303 1.028996 0.00012108029
v -0.16932243 0.99656165 0.13822149
v -0.14339752 1.0498475 -0.14658967
v -0.13757864 1.0867376 -0.1538978
v -0 1.0486368 -0.20247287
v -0 1.0862659 -0.20836595
v -0.15066077 1.1697166 4.81845E-05
v -0.1102601 1.1647487 -0.113800116
v -0.092815176 1.222028 4.78289E-05
v -0.043382943 1.1646998 -0.14199759
v -0 1.1646681 -0.16028918
v -0.052549873 1.2153081 -0.08697821
v -0.07422369 1.2151948 -0.07109348
v -0.026967283 1.2476009 -0.034708604
v -0.008837027 1.2505878 -0.01242381
v 0.008257507 1.2428756 0.050556567
v -0 1.2167892 0.10091053
v 0.015512096 1.2501687 0.009573221
v -0.2042908 0.96965814 0.07699645
v -0.20041159 0.9064711 0.000696275
v -0.2146884 0.93938375 0.03176666
v -0.15571775 0.88867515 0.13788301
v -0.16932243 0.99656165 0.13822149
v -0.19501303 1.028996 0.00012108029
v -0.21034807 1.0014454 0.03246697
v -0 0.74857026 -0.16831946
v -0.10574209 0.74595386 -0.12011842
v -0 0.65953845 -0.10183047
v -0.07277735 0.65989906 -0.081644855
v -0.14272879 0.7403861 -0.00021530387
v -0.09798733 0.66012317 0
v -0.10558608 0.73567635 0.11414353
v -0.07090833 0.65203583 0.07884478
v -0 0.73287505 0.16128184
v -0 0.6483028 0.09743224
v -0 1.0862659 -0.20836595
v -0 1.0486368 -0.20247287
v 0.14339752 1.0498475 -0.14658967
v 0.13757864 1.0867376 -0.1538978
v 0.19501303 1.028996 0.00012108029
v 0.1102601 1.1647487 -0.113800116
v -0 1.1646681 -0.16028918
v 0.0063169706 1.2156154 -0.10184293
v 0.1839437 1.0899566 3.8566148E-05
v 0.16932243 0.99656165 0.13822149
v 0.14745422 1.0896626 0.12341359
v 0.07422654 1.2151948 -0.07109348
v 0.02826373 1.2405549 -0.0651818
v 0.055075653 1.2437111 -0.04942312
v 0.15066077 1.1697166 4.81845E-05
v 0.12242749 1.1745785 0.07965227
v 0.08727803 1.0879654 0.17892429
v 0.092815176 1.222028 4.78289E-05
v 0.05745314 1.2462338 -0.019528454
v 0.043601293 1.2491356 -0.0028528287
v -0.07277735 0.65989906 -0.081644855
v -0 0.567661 -0.060659427
v -0 0.65953845 -0.10183047
v -0.03461873 0.56784123 -0.044700805
v -0.09798733 0.66012317 0
v -0 0.47578356 -0.044207584
v -0.04995246 0.56795335 0
v -0.07090833 0.65203583 0.07884478
v -0.026451308 0.47578356 -0.030377733
v -0.033973467 0.56773317 0.04993384
v -0 0.6483028 0.09743224
v -0 0.56753254 0.065082155
v -0.03810137 0.47578356 0
v -0.026603337 0.47578356 0.03312933
v -0 0.47578356 0.04680074
v -0 0.38410857 0.036469426
v -0.02061218 0.38410857 -0.023671795
v -0 0.38410857 -0.034448635
v -0 0.2924336 -0.02468978
v -0.020730635 0.38410857 0.025816035
v -0.02969247 0.38410857 0
v -0.014772956 0.2924336 -0.01696586
v -0 0.21478988 -0.016024832
v -0.01485793 0.2924336 0.018502647
v -0 0.2924336 0.026138104
v -0.021283574 0.2924336 0
v -0.010558983 0.21478988 -0.00848293
v -0 0.13714628 -0.007359883
v -0.010601423 0.21478988 0.00925137
v -0 0.21478988 0.016964823
v -0.013814292 0.21478988 0
v -0.0063450094 0.13714619 0
v -0 0.107333794 0
v -0 0.13714628 0.007791541
v 0.0745472 1.2655736 -0.022165494
v 0.055075653 1.2437111 -0.04942312
v 0.05745314 1.2462338 -0.019528454
v 0.043423574 1.2700891 -0.0599473
v 0.06231101 1.2920998 -0.032918904
v 0.03172254 1.3248638 -0.027122455
v 0.008459183 1.3038267 -0.045246206
v 0.02334039 1.3405608 -0.018253038
v 0.05616445 1.3711177 -0.04336928
v -0.0003017553 1.3301892 -0.012014033
v -0.0040232283 1.2874626 -0.013432986
v 0.034445427 1.3562579 -0.009248846
v 0.05911053 1.372455 -0.038254965
v 0.0700483 1.3839623 -0.065664634
v 0.019823186 1.3412689 0.008356722
v -0.0019815452 1.3224396 0.0051212483
v 0.014644552 1.2993777 0.024307445
v 0.041914802 1.3345989 -0.009135409
v 0.05911053 1.372455 -0.038254965
v -0.0015841535 1.266527 -0.0005037118
v -0.017341828 1.2651252 -0.018140955
v -0.008837027 1.2505878 -0.01242381
v -0.026967283 1.2476009 -0.034708604
v 0.028843263 1.268658 0.01789212
v 0.015512096 1.2501687 0.009573221
v 0.035889275 1.3143939 0.000596261
v 0.061236866 1.3675784 -0.04142545
v 0.0700483 1.3839623 -0.065664634
v 0.05616445 1.3711177 -0.04336928
v 0.03172254 1.3248638 -0.027122455
v 0.049216215 1.2974125 -0.0060492954
v 0.06231101 1.2920998 -0.032918904
v 0.06268742 1.2670466 0.0028468864
v 0.043601293 1.2491356 -0.0028528287
v 0.0745472 1.2655736 -0.022165494
v 0.05745314 1.2462338 -0.019528454
v 0.07090833 0.65203583 0.07884478
v -0 0.56753254 0.065082155
v -0 0.6483028 0.09743224
v 0.033973467 0.56773317 0.04993384
v 0.09798733 0.66012317 0
v -0 0.47578356 0.04680074
v 0.04995755 0.56795335 0
v 0.07277735 0.65989906 -0.081644855
v 0.026603337 0.47578356 0.03312933
v 0.020730635 0.38410857 0.025816035
v 0.029698791 0.38410857 0
v -0 0.38410857 0.036469426
v -0 0.2924336 0.026138104
v 0.01485793 0.2924336 0.018502647
v -0 0.21478988 0.016964823
v 0.038112026 0.47578356 0
v 0.03461873 0.56784123 -0.044700805
v 0.010601423 0.21478988 0.00925137
v -0 0.13714628 0.007791541
v -0 0.567661 -0.060659427
v -0 0.65953845 -0.10183047
v 0.026451308 0.47578356 -0.030377733
v -0 0.47578356 -0.044207584
v -0 0.38410857 -0.034448635
v 0.02061218 0.38410857 -0.023671795
v 0.014772956 0.2924336 -0.01696586
v -0 0.2924336 -0.02468978
v 0.021285461 0.2924336 0
v 0.010558983 0.21478988 -0.00848293
v -0 0.21478988 -0.016024832
v 0.013815235 0.21478988 0
v 0.0063450094 0.13714619 0
v -0 0.13714628 -0.007359883
v -0 0.107333794 0
v 0.055075653 1.2437111 -0.04942312
v 0.043423574 1.2700891 -0.0599473
v 0.02826373 1.2405549 -0.0651818
v 0.018237224 1.2691649 -0.07737407
v 0.008459183 1.3038267 -0.045246206
v -0.009157944 1.2939287 -0.071171686
v 0.0063169706 1.2156154 -0.10184293
v -0.00085585343 1.2522 -0.1265751
v -0.034679413 1.2693663 -0.12365521
v -0.038219213 1.2264053 -0.1601522
v -0.00818213 1.2085624 -0.17350806
v -0 1.1646681 -0.16028918
v -0.01259596 1.1877856 -0.20632547
v -0.04185874 1.2151779 -0.20117524
v -0.042817596 1.1982971 -0.22212133
v -0.043374725 1.1663669 -0.22538847
v -0.018825566 1.1503637 -0.20116672
v -0.05831929 1.1498859 -0.18791601
v -0.043382943 1.1646998 -0.14199759
v -0.039841652 1.0889632 0.19227928
v -0.049021535 1.0984858 0.18551895
v -0.04954263 1.0989861 0.18754336
v -0.039320562 1.0884627 0.19025485
v -0.036614366 1.0750605 0.19592641
v -0.036093276 1.07456 0.19390199
v -0.04072551 1.0610036 0.19750753
v -0.040204417 1.0605031 0.19548309
v -0.051073506 1.0505588 0.19659895
v -0.05055242 1.0500584 0.1945745
v -0.064885624 1.0465249 0.19344415
v -0.06436454 1.0460244 0.1914197
v -0.07846092 1.0499828 0.18888845
v -0.07793982 1.0494823 0.186864
v -0.04954263 1.0989861 0.18754336
v -0.049021535 1.0984858 0.18551895
v -0.06259682 1.1019436 0.18096325
v -0.063117914 1.102444 0.18298766
v -0.076408945 1.0979098 0.17780843
v -0.07693003 1.0984101 0.17983286
v -0.08675694 1.0874649 0.17689987
v -0.08727803 1.0879654 0.17892429
v -0.09095583 1.0734682 0.17878814
v -0.091476925 1.0739686 0.18081257
v -0.08781549 1.0596253 0.18273966
v -0.08833659 1.0601257 0.1847641
v -0.07793982 1.0494823 0.186864
v -0.07846092 1.0499828 0.18888845
v 0.039320562 1.0884627 0.19025485
v 0.04954263 1.0989861 0.18754336
v 0.049021535 1.0984858 0.18551895
v 0.039841652 1.0889632 0.19227928
v 0.036093276 1.07456 0.19390199
v 0.036614366 1.0750605 0.19592641
v 0.040204417 1.0605031 0.19548309
v 0.04072551 1.0610036 0.19750753
v 0.05055242 1.0500584 0.1945745
v 0.051073506 1.0505588 0.19659895
v 0.06436454 1.0460244 0.1914197
v 0.064885624 1.0465249 0.19344415
v 0.07793982 1.0494823 0.186864
v 0.07846092 1.0499828 0.18888845
v 0.049021535 1.0984858 0.18551895
v 0.04954263 1.0989861 0.18754336
v 0.063117914 1.102444 0.18298766
v 0.06259682 1.1019436 0.18096325
v 0.07693003 1.0984101 0.17983286
v 0.076408945 1.0979098 0.17780843
v 0.08727803 1.0879654 0.17892429
v 0.08675694 1.0874649 0.17689987
v 0.091476925 1.0739686 0.18081257
v 0.09095583 1.0734682 0.17878814
v 0.08833659 1.0601257 0.1847641
v 0.08781549 1.0596253 0.18273966
v 0.07846092 1.0499828 0.18888845
v 0.07793982 1.0494823 0.186864
v 0.46036574 1.026556 0.04243948
v 0.42184016 0.97205806 -0.05755936
v 0.45594117 0.97535527 -0.0055012037
v 0.35540214 0.97205806 -0.070533566
v 0.31322417 1.0033015 0.03922903
v 0.31355697 0.97205806 -0.059216663
v 0.24512221 0.97205806 -0.035102762
v 0.21034807 1.0014454 0.03246697
v 0.21449772 0.970135 -0.04385866
v 0.2042908 0.96965814 0.07699645
v 0.45946255 0.98206687 0.10666262
v 0.5008379 0.981391 0.09431167
v 0.3105001 0.9716616 0.086746834
v 0.31227377 0.92931855 0.033353854
v 0.30962592 0.97106755 0.08586398
v 0.45946255 0.92318493 0.044237636
v 0.5008379 0.981391 0.09431167
v 0.42184016 0.97205806 -0.05755936
v 0.45594117 0.97535527 -0.0055012037
v 0.35540214 0.97205806 -0.070533566
v 0.31355697 0.97205806 -0.059216663
v 0.24512221 0.97205806 -0.035102762
v 0.23289822 0.94375575 0.03247189
v 0.2146884 0.93938375 0.03176666
v 0.21449772 0.970135 -0.04385866
v -0.47240454 1.026556 0.04243948
v -0.42184475 0.97205806 -0.05755936
v -0.35540214 0.97205806 -0.070533566
v -0.31322417 1.0033015 0.03922903
v -0.31355697 0.97205806 -0.059216663
v -0.47150138 0.98206687 0.10666262
v -0.24512221 0.97205806 -0.035102762
v -0.30962592 0.97106755 0.08586398
v -0.47150138 0.92318493 0.065879904
v -0.31227377 0.92931855 0.033353854
v -0.42184475 0.97205806 -0.05755936
v -0.35540214 0.97205806 -0.070533566
v -0.31355697 0.97205806 -0.059216663
v -0.24512221 0.97205806 -0.035102762
v -0.21034807 1.0014454 0.03246697
v -0.21449772 0.970135 -0.04385866
v -0.2042908 0.96965814 0.07699645
v -0.3105001 0.9716616 0.086746834
v -0.23289822 0.94375575 0.03247189
v -0.21449772 0.970135 -0.04385866
v -0.2146884 0.93938375 0.03176666
v -0.40412095 0.9607761 0.0336575
v -0.40231588 0.9713007 0.021943297
v -0.41157848 0.9703394 0.0126722995
v -0.41673738 0.9535088 0.0332011
v -0.41157848 0.9703394 0.0546427
v -0.40231398 0.9713118 0.044447996
v -0.43235543 0.9522529 0.0221834
v -0.4300261 0.9686298 0.0039799
v -0.45013672 0.96668726 0.0126722995
v -0.44692725 0.95136625 0.0336575
v -0.458511 0.9654617 0.0336575
v -0.45013672 0.96668726 0.0546427
v -0.43236125 0.9521978 0.044903398
v -0.43379915 0.96931416 0.061860897
v 0.42438003 0.9782212 0.03639197
v 0.45594117 0.97535527 -0.0055012037
v 0.45946255 0.92318493 0.044237636
v 0.5008379 0.981391 0.09431167
v 0.42438003 0.9782212 0.03639197
v 0.46036574 1.026556 0.04243948
v 0.45594117 0.97535527 -0.0055012037
v 0.5008379 0.981391 0.09431167
v -0.42438132 0.9782212 0.03639197
v -0.47150138 0.92318493 0.065879904
v -0.4679787 0.97535527 -0.0055012037
v -0.50083303 0.981391 0.09431167
v -0.42438132 0.9782212 0.03639197
v -0.4679787 0.97535527 -0.0055012037
v -0.47240454 1.026556 0.04243948
v -0.50083303 0.981391 0.09431167
v -0.40412095 0.9607761 0.0336575
v -0.40231398 0.9713118 0.044447996
v -0.39973527 0.9632641 0.0336236
v -0.40231588 0.9713007 0.021943297
v -0.40023902 0.9803013 0.033599198
v -0.40231398 0.9713118 0.044447996
v -0.40264183 0.98529 0.0336575
v -0.40231588 0.9713007 0.021943297
v 0.40231588 0.9713007 0.021943297
v 0.40412095 0.9607761 0.0336575
v 0.41157848 0.9703394 0.0126722995
v 0.41673738 0.9535088 0.0332011
v 0.43235543 0.9522529 0.0221834
v 0.4300261 0.9686298 0.0039799
v 0.45013672 0.96668726 0.0126722995
v 0.44692725 0.95136625 0.0336575
v 0.458511 0.9654617 0.0336575
v 0.45013672 0.96668726 0.0546427
v 0.43236125 0.9521978 0.044903398
v 0.43379915 0.96931416 0.061860897
v 0.41157848 0.9703394 0.0546427
v 0.40231398 0.9713118 0.044447996
v 0.40231398 0.9713118 0.044447996
v 0.40412095 0.9607761 0.0336575
v 0.39973527 0.9632641 0.0336236
v 0.40231588 0.9713007 0.021943297
v 0.40231398 0.9713118 0.044447996
v 0.40023902 0.9803013 0.033599198
v 0.40264183 0.98529 0.0336575
v 0.40231588 0.9713007 0.021943297
v 0.008459183 1.3038267 -0.045246206
v -0.0040232283 1.2874626 -0.013432986
v -0.026197745 1.2750461 -0.051201932
v -0.009157944 1.2939287 -0.071171686
v -0.017341828 1.2651252 -0.018140955
v -0.034679413 1.2693663 -0.12365521
v -0.026967283 1.2476009 -0.034708604
v -0.055572286 1.2518086 -0.10374843
v -0.038219213 1.2264053 -0.1601522
v -0.052549873 1.2153081 -0.08697821
v -0.058573164 1.2114445 -0.14676271
v -0.04185874 1.2151779 -0.20117524
v -0.043382943 1.1646998 -0.14199759
v -0.0700268 1.186506 -0.19660811
v -0.042817596 1.1982971 -0.22212133
v -0.05831929 1.1498859 -0.18791601
v -0.043374725 1.1663669 -0.22538847
v -0.026273845 0.6710603 -0.10936943
v 0.0015884702 0.765978 -0.12302197
v -0.0017715751 0.69072336 -0.072925344
v -4.2004382E-07 0.6595338 -0.13188554
v -4.2004382E-07 0.73241705 -0.19063315
v -0.03681251 0.73578066 -0.16675763
v -0.41157848 0.9703394 0.0126722995
v -0.41551587 0.9867102 0.015117099
v -0.4300261 0.9686298 0.0039799
v -0.40231588 0.9713007 0.021943297
v -0.40264183 0.98529 0.0336575
v -0.4411891 0.98842126 0.014396699
v -0.45013672 0.96668726 0.0126722995
v -0.4271433 0.99605757 0.0336575
v -0.44829386 0.9895966 0.0336575
v -0.458511 0.9654617 0.0336575
v -0.45013672 0.96668726 0.0546427
v -0.4380875 0.9880952 0.0529182
v -0.43379915 0.96931416 0.061860897
v -0.41753456 0.98713315 0.052007195
v -0.40231398 0.9713118 0.044447996
v -0.41157848 0.9703394 0.0546427
v 0.41551587 0.9867102 0.015117099
v 0.41157848 0.9703394 0.0126722995
v 0.4300261 0.9686298 0.0039799
v 0.40231588 0.9713007 0.021943297
v 0.40264183 0.98529 0.0336575
v 0.4411891 0.98842126 0.014396699
v 0.45013672 0.96668726 0.0126722995
v 0.4271433 0.99605757 0.0336575
v 0.44829386 0.9895966 0.0336575
v 0.458511 0.9654617 0.0336575
v 0.45013672 0.96668726 0.0546427
v 0.4380875 0.9880952 0.0529182
v 0.43379915 0.96931416 0.061860897
v 0.41753456 0.98713315 0.052007195
v 0.40231398 0.9713118 0.044447996
v 0.41157848 0.9703394 0.0546427
v 0.026273005 0.6710603 -0.10936943
v -0.0017715751 0.69072336 -0.072925344
v 0.0015884702 0.765978 -0.12302197
v -4.2004382E-07 0.6595338 -0.13188554
v 0.036811672 0.73578066 -0.16675763
v -4.2004382E-07 0.73241705 -0.19063315
v 0.05055242 1.0500584 0.1945745
v 0.055865206 1.059644 0.1920388
v 0.06423152 1.0572006 0.19012788
v 0.06436454 1.0460244 0.1914197
v 0.040204417 1.0605031 0.19548309
v 0.07245439 1.059295 0.18736838
v 0.07793982 1.0494823 0.186864
v 0.04959718 1.0659707 0.19258916
v 0.036093276 1.07456 0.19390199
v 0.06390281 1.0742824 0.18769905
v 0.078436315 1.0654389 0.18487017
v 0.047106963 1.0744852 0.19163145
v 0.08781549 1.0596253 0.18273966
v 0.039320562 1.0884627 0.19025485
v 0.08033849 1.0738238 0.18247664
v 0.09095583 1.0734682 0.17878814
v 0.04906181 1.0829064 0.1894223
v 0.049021535 1.0984858 0.18551895
v 0.077795126 1.082302 0.18133286
v 0.08675694 1.0874649 0.17689987
v 0.054937914 1.0889776 0.18655364
v 0.06259682 1.1019436 0.18096325
v 0.0715271 1.0886286 0.18188322
v 0.076408945 1.0979098 0.17780843
v 0.06316078 1.0910721 0.18379416
v -0.04906181 1.0829064 0.1894223
v -0.039320562 1.0884627 0.19025485
v -0.036093276 1.07456 0.19390199
v -0.047106963 1.0744852 0.19163145
v -0.040204417 1.0605031 0.19548309
v -0.054937914 1.0889776 0.18655364
v -0.049021535 1.0984858 0.18551895
v -0.06390281 1.0742824 0.18769905
v -0.04959718 1.0659707 0.19258916
v -0.06316078 1.0910721 0.18379416
v -0.055865206 1.059644 0.1920388
v -0.05055242 1.0500584 0.1945745
v -0.06259682 1.1019436 0.18096325
v -0.06436454 1.0460244 0.1914197
v -0.0715271 1.0886286 0.18188322
v -0.076408945 1.0979098 0.17780843
v -0.06423152 1.0572006 0.19012788
v -0.07793982 1.0494823 0.186864
v -0.077795126 1.082302 0.18133286
v -0.08675694 1.0874649 0.17689987
v -0.07245439 1.059295 0.18736838
v -0.08781549 1.0596253 0.18273966
v -0.08033849 1.0738238 0.18247664
v -0.09095583 1.0734682 0.17878814
v -0.078436315 1.0654389 0.18487017
vt 0.81112343 0.1073465
vt 0.8140439 0.1648571
vt 0.8412771 0.17146172
vt 0.8140439 0.1648571
vt 0.8065579 0.2279663
vt 0.8414819 0.17144984
vt 0.79054284 0.2997352
vt 0.8178099 0.2745721
vt 0.8065579 0.2279663
vt 0.7984051 0.034411337
vt 0.81112343 0.1073465
vt 0.82539845 0.08053425
vt 0.9598285 0.08672102
vt 0.996555 0.08672102
vt 0.996555 0.11288285
vt 0.9598285 0.11288285
vt 0.9598285 0.13783482
vt 0.996555 0.1641618
vt 0.9598285 0.1641618
vt 0.996555 0.20100744
vt 0.9598285 0.20100744
vt 0.9598285 0.1641618
vt 0.996555 0.08672102
vt 0.9598285 0.08672102
vt 0.996555 0.1641618
vt 0.9598285 0.20100744
vt 0.996555 0.20100744
vt 0.8801569 0.9786854
vt 0.8801569 0.99169475
vt 0.9203425 0.9854449
vt 0.9336307 0.9748913
vt 0.967745 0.9580086
vt 0.9743812 0.9295959
vt 0.93969214 0.9396768
vt 0.8801569 0.9420401
vt 0.9412094 0.9050828
vt 0.8801569 0.893348
vt 0.8801569 0.893348
vt 0.9412065 0.90508306
vt 0.8801569 0.9420401
vt 0.93969077 0.939677
vt 0.8801569 0.9786854
vt 0.9743812 0.9295959
vt 0.9336307 0.9748913
vt 0.8801569 0.99169475
vt 0.967745 0.9580086
vt 0.9203425 0.9854449
vt 0.75687975 0.9889662
vt 0.77705115 0.98799384
vt 0.75687975 0.9585102
vt 0.8191704 0.96651345
vt 0.8072597 0.9874425
vt 0.8444798 0.9872182
vt 0.8493462 0.947656
vt 0.8120078 0.93310845
vt 0.81884295 0.9081949
vt 0.75687975 0.9246065
vt 0.78421867 0.8954906
vt 0.75687975 0.8914579
vt 0.75687975 0.9889662
vt 0.75687975 0.9585102
vt 0.77705115 0.9879939
vt 0.8191704 0.96651345
vt 0.8072597 0.98744243
vt 0.8444798 0.9872182
vt 0.8493462 0.94765604
vt 0.8120077 0.93310857
vt 0.81884295 0.9081949
vt 0.75687975 0.9246065
vt 0.78421867 0.8954906
vt 0.75687975 0.8914579
vt 0.034168776 0.29388356
vt 0.05842864 0.2284704
vt 0.01879352 0.26542866
vt 0.17030959 0.2484184
vt 0.17749672 0.29388356
vt 0.31230754 0.29388356
vt 0.31230754 0.24581598
vt 0.17200367 0.16109791
vt 0.019847272 0.16938439
vt 0.012938794 0.1951127
vt 0.034645136 0.063206196
vt 0.17586015 0.061642047
vt 0.043668803 0.01245865
vt 0.17664687 0.01245865
vt 0.31246972 0.14748687
vt 0.31377745 0.055918757
vt 0.31230754 0.01245865
vt 0.4515705 0.061101396
vt 0.45185757 0.012458617
vt 0.45286047 0.16039576
vt 0.5936412 0.066519
vt 0.586847 0.012458617
vt 0.60059017 0.16984992
vt 0.4525239 0.24744241
vt 0.5636646 0.23078221
vt 0.60715574 0.1962871
vt 0.44370174 0.29354504
vt 0.31230754 0.29354504
vt 0.5854766 0.29354504
vt 0.595674 0.2745114
vt 0.9753057 0.05970124
vt 0.98957205 0.027554965
vt 0.9812337 0.01427219
vt 0.9478289 0.059702672
vt 0.94582856 0.022569632
vt 0.01309656 0.993841
vt 0.17101176 0.993841
vt 0.01309656 0.9675526
vt 0.15683372 0.95130813
vt 0.01309656 0.9380583
vt 0.11920341 0.89391166
vt 0.012542012 0.901191
vt 0.012542012 0.838505
vt 0.07933907 0.7883337
vt 0.06625947 0.7748199
vt 0.09764226 0.7929959
vt 0.007661401 0.76268893
vt 0.061908178 0.75607526
vt 0.11626479 0.78755707
vt 0.1303927 0.77323264
vt 0.06445722 0.7355407
vt 0.0033786867 0.65936846
vt 0.048350584 0.6587834
vt 0.07546402 0.72007227
vt 0.09273269 0.71215254
vt 0.11067345 0.66526496
vt 0.14226063 0.6746289
vt 0.11134758 0.71388924
vt 0.12559265 0.7260993
vt 0.17874195 0.68677115
vt 0.13612874 0.6408805
vt 0.13587801 0.75460315
vt 0.20666239 0.76964974
vt 0.21237867 0.6455038
vt 0.17056152 0.6330999
vt 0.11105301 0.6095686
vt 0.12430383 0.56549317
vt 0.12760843 0.54769605
vt 0.055252932 0.57790726
vt 0.07514586 0.5165573
vt 0.062043376 0.52845037
vt 0.003565584 0.5678574
vt 0.012542012 0.48671767
vt 0.0058721 0.5155651
vt 0.44494745 0.66987467
vt 0.44368073 0.5775419
vt 0.41347834 0.59918237
vt 0.52669954 0.65111625
vt 0.5261096 0.59771127
vt 0.98957205 0.027556455
vt 0.9753057 0.059702672
vt 0.9812337 0.01427368
vt 0.9478289 0.059702672
vt 0.9353808 0.021012342
vt 0.77027553 0.35837096
vt 0.81299347 0.40472627
vt 0.81299347 0.35837168
vt 0.77027553 0.40472627
vt 0.81299347 0.46918762
vt 0.77027553 0.46918762
vt 0.81299347 0.5363824
vt 0.77027553 0.5382357
vt 0.81299347 0.59702617
vt 0.77027553 0.5970263
vt 0.44494507 0.6698752
vt 0.41347572 0.5991829
vt 0.44367823 0.5775424
vt 0.52669954 0.65111625
vt 0.5261072 0.5977113
vt 0.5940522 0.5927147
vt 0.59835386 0.5513874
vt 0.54751503 0.5284833
vt 0.47020572 0.55446756
vt 0.4608652 0.45324332
vt 0.39720106 0.48670545
vt 0.59422785 0.46491688
vt 0.5926326 0.49384895
vt 0.38214964 0.4507
vt 0.3625539 0.46275422
vt 0.31133795 0.4270437
vt 0.4557733 0.40513194
vt 0.57936054 0.36165798
vt 0.38256067 0.3926146
vt 0.44929186 0.35985303
vt 0.5678884 0.3052274
vt 0.43724704 0.3052274
vt 0.37700677 0.35594404
vt 0.31133795 0.3052274
vt 0.31107414 0.39246452
vt 0.31109464 0.35850257
vt 0.23979001 0.4507735
vt 0.25866884 0.46328542
vt 0.22413097 0.48823982
vt 0.24532627 0.3560948
vt 0.18574981 0.3052274
vt 0.23956148 0.39277506
vt 0.16073851 0.45281178
vt 0.15161721 0.5552953
vt 0.16596954 0.40455955
vt 0.02500405 0.4532739
vt 0.041780297 0.36123857
vt 0.17227401 0.35939714
vt 0.053048734 0.3052274
vt 0.0058721 0.5155651
vt 0.012542012 0.48671767
vt 0.07524994 0.5163515
vt 0.062043063 0.528451
vt 0.003565584 0.5678574
vt 0.12760842 0.54769605
vt 0.05525211 0.577908
vt 0.12430375 0.56549346
vt 0.111053 0.60956854
vt 0.21237867 0.6455038
vt 0.17056166 0.6330999
vt 0.13612889 0.64088035
vt 0.17874192 0.6867713
vt 0.20666239 0.76964974
vt 0.14226107 0.6746292
vt 0.13587801 0.75460315
vt 0.1303927 0.77323264
vt 0.12559265 0.7260993
vt 0.11134806 0.7138883
vt 0.092732735 0.7121531
vt 0.1106738 0.66526496
vt 0.048350636 0.6587833
vt 0.075463995 0.72007143
vt 0.06445724 0.7355407
vt 0.0033786867 0.65936846
vt 0.007661401 0.76268893
vt 0.061908178 0.75607526
vt 0.06625947 0.7748199
vt 0.012542012 0.838505
vt 0.07933907 0.7883337
vt 0.11920341 0.89391166
vt 0.012542012 0.901191
vt 0.09764226 0.7929959
vt 0.013098408 0.9380583
vt 0.11626479 0.78755707
vt 0.15683372 0.95130813
vt 0.21533114 0.88124466
vt 0.2066624 0.76964974
vt 0.33848482 0.7833798
vt 0.35002092 0.720823
vt 0.21237867 0.6455038
vt 0.4961094 0.7921468
vt 0.49214533 0.830108
vt 0.6146745 0.91857195
vt 0.5872123 0.9479654
vt 0.3177963 0.8765537
vt 0.4258842 0.89765435
vt 0.27496713 0.948964
vt 0.46962145 0.9577514
vt 0.5007378 0.99396527
vt 0.41457635 0.993841
vt 0.35336214 0.9560559
vt 0.31859025 0.993841
vt 0.17101176 0.993841
vt 0.01309656 0.9675526
vt 0.01309656 0.9380583
vt 0.01309656 0.993841
vt 0.547515 0.52848333
vt 0.5938857 0.46502438
vt 0.5926326 0.49384895
vt 0.4608652 0.45324332
vt 0.4699865 0.5547005
vt 0.5940522 0.5927147
vt 0.5983538 0.5513874
vt 0.81299347 0.35837013
vt 0.81299347 0.40472627
vt 0.77027553 0.35837096
vt 0.77027553 0.40378785
vt 0.81299347 0.46940446
vt 0.77027553 0.4682163
vt 0.81299347 0.5365451
vt 0.77027553 0.5382357
vt 0.81299347 0.5970265
vt 0.77027553 0.5970263
vt 0.5872123 0.9479654
vt 0.6146745 0.91857195
vt 0.49611887 0.79214853
vt 0.49214536 0.8301078
vt 0.35008755 0.72079945
vt 0.42588434 0.8976542
vt 0.5007378 0.99396527
vt 0.41457635 0.993841
vt 0.33848482 0.78338003
vt 0.21237867 0.6455038
vt 0.2066624 0.76964974
vt 0.35336336 0.9560536
vt 0.36182505 0.993841
vt 0.33533296 0.993841
vt 0.31779614 0.8765536
vt 0.21533106 0.8812451
vt 0.13039272 0.77323264
vt 0.27496693 0.9489645
vt 0.31058475 0.993841
vt 0.17101178 0.993841
vt 0.7492935 0.857651
vt 0.7832404 0.7731129
vt 0.7944055 0.857651
vt 0.7429349 0.77471673
vt 0.6992181 0.857651
vt 0.7682902 0.687823
vt 0.69896334 0.7752954
vt 0.6448508 0.857651
vt 0.7353533 0.69103056
vt 0.6517264 0.77473176
vt 0.59918064 0.857651
vt 0.61148757 0.77305865
vt 0.6994918 0.69218856
vt 0.66079336 0.69106084
vt 0.62780315 0.6877151
vt 0.6435935 0.5987219
vt 0.72750396 0.60122186
vt 0.7532001 0.5988117
vt 0.73981446 0.50980026
vt 0.6693298 0.6012437
vt 0.6995202 0.602078
vt 0.72055537 0.5114139
vt 0.7263712 0.43408614
vt 0.6769479 0.5114259
vt 0.6576596 0.5097293
vt 0.69957525 0.5119676
vt 0.71050495 0.43527657
vt 0.711348 0.35837203
vt 0.6878585 0.43528253
vt 0.6717772 0.43404537
vt 0.69960994 0.43555337
vt 0.69962054 0.35913998
vt 0.6996277 0.3295311
vt 0.6874916 0.35836226
vt 0.21975757 0.5232643
vt 0.24144055 0.5068245
vt 0.21975757 0.5048506
vt 0.2602034 0.5368497
vt 0.21975757 0.54319096
vt 0.21975757 0.5885082
vt 0.2778685 0.5579899
vt 0.2586711 0.6015619
vt 0.2586711 0.6360603
vt 0.29905316 0.5824478
vt 0.305949 0.55095845
vt 0.31158024 0.6015619
vt 0.29610834 0.6360603
vt 0.2778685 0.65595067
vt 0.3357801 0.5853851
vt 0.3357801 0.57545495
vt 0.3534543 0.5649757
vt 0.368176 0.6015619
vt 0.35622203 0.6360603
vt 0.3357801 0.5310874
vt 0.2990272 0.5456935
vt 0.31406227 0.5068245
vt 0.28878403 0.5068245
vt 0.3675055 0.52503276
vt 0.3588979 0.5060885
vt 0.36687702 0.57545495
vt 0.368176 0.6360603
vt 0.368176 0.65595067
vt 0.37967512 0.6360603
vt 0.40110946 0.5885082
vt 0.38088268 0.5499177
vt 0.40110946 0.54319096
vt 0.38088268 0.5258997
vt 0.38088286 0.5042546
vt 0.39462504 0.5227234
vt 0.40110946 0.50208414
vt 0.94396025 0.857651
vt 0.9773235 0.77305865
vt 0.9896304 0.857651
vt 0.9370846 0.77473176
vt 0.8903219 0.857651
vt 0.9610079 0.6877151
vt 0.8898477 0.7752954
vt 0.8402465 0.857651
vt 0.9280177 0.69106084
vt 0.9194812 0.6012437
vt 0.88929087 0.602078
vt 0.94521755 0.5987219
vt 0.93115145 0.5097293
vt 0.91186315 0.5114259
vt 0.91703385 0.43404537
vt 0.88931924 0.69218856
vt 0.84587616 0.77471673
vt 0.9009525 0.43528253
vt 0.90131944 0.35836226
vt 0.80557066 0.7731129
vt 0.7944055 0.857651
vt 0.85345775 0.69103056
vt 0.8205208 0.687823
vt 0.8356109 0.5988117
vt 0.8613071 0.60122186
vt 0.8682557 0.5114139
vt 0.8489966 0.50980026
vt 0.8892358 0.5119676
vt 0.8783061 0.43527657
vt 0.8624398 0.43408614
vt 0.8892011 0.43555337
vt 0.8891905 0.35913998
vt 0.87746304 0.35837203
vt 0.88918334 0.3295311
vt 0.83227116 0.24897502
vt 0.86610174 0.25749123
vt 0.863316 0.22227706
vt 0.905837 0.23073514
vt 0.91526735 0.26727098
vt 0.9326207 0.23606275
vt 0.8643369 0.15960515
vt 0.91760206 0.17020024
vt 0.94819075 0.1762846
vt 0.93857384 0.11697107
vt 0.90176415 0.10964916
vt 0.84916145 0.09918585
vt 0.91151005 0.060653143
vt 0.9344982 0.06522577
vt 0.9165339 0.03574115
vt 0.90609604 0.018609643
vt 0.8620857 0.050822042
vt 0.86193436 0.050791927
vt 0.83841455 0.030827664
vt 0.07733968 0.7678398
vt 0.08552079 0.77632636
vt 0.08598526 0.7767723
vt 0.07687521 0.76739365
vt 0.074463435 0.7554496
vt 0.07399897 0.75500363
vt 0.078127265 0.74292195
vt 0.077662915 0.742476
vt 0.087349534 0.7336135
vt 0.086885065 0.73316747
vt 0.09965895 0.7300185
vt 0.0991946 0.7295725
vt 0.111757345 0.7331001
vt 0.111292996 0.73265415
vt 0.08598526 0.7767723
vt 0.08552079 0.77632636
vt 0.09761919 0.77940804
vt 0.09808366 0.779854
vt 0.10992861 0.775813
vt 0.11039307 0.776259
vt 0.11915088 0.7665045
vt 0.11961523 0.7669506
vt 0.12289295 0.7540305
vt 0.123357415 0.7544765
vt 0.120094255 0.74169356
vt 0.120558605 0.74213964
vt 0.111292996 0.73265415
vt 0.111757345 0.7331001
vt 0.07687521 0.76739365
vt 0.08598526 0.7767723
vt 0.08552079 0.77632636
vt 0.07733968 0.7678398
vt 0.07399897 0.75500363
vt 0.074463435 0.7554496
vt 0.077662915 0.742476
vt 0.078127265 0.74292195
vt 0.086885065 0.73316747
vt 0.087349534 0.7336135
vt 0.0991946 0.7295725
vt 0.09965895 0.7300185
vt 0.111292996 0.73265415
vt 0.111757345 0.7331001
vt 0.08552079 0.77632636
vt 0.08598526 0.7767723
vt 0.09808353 0.779854
vt 0.09761919 0.77940804
vt 0.11039307 0.776259
vt 0.10992861 0.775813
vt 0.11961523 0.7669506
vt 0.11915088 0.7665045
vt 0.123357415 0.7544765
vt 0.12289295 0.7540305
vt 0.120558605 0.74213964
vt 0.120094255 0.74169356
vt 0.111757345 0.7331001
vt 0.111292996 0.73265415
vt 0.81112343 0.1073465
vt 0.7984051 0.034411337
vt 0.82539845 0.08053425
vt 0.7156664 0.031929813
vt 0.6982603 0.12155541
vt 0.6873438 0.045518916
vt 0.6394742 0.06858679
vt 0.62147576 0.12558413
vt 0.6161267 0.0643785
vt 0.6197698 0.16575512
vt 0.8140439 0.1648571
vt 0.8412771 0.17146172
vt 0.69906515 0.16405345
vt 0.69564664 0.21465407
vt 0.69939125 0.16450569
vt 0.8065579 0.2279663
vt 0.8414819 0.17144984
vt 0.79054284 0.2997352
vt 0.8178099 0.2745721
vt 0.71059114 0.30286622
vt 0.6814306 0.289133
vt 0.6344347 0.26267716
vt 0.6357878 0.20740251
vt 0.6220789 0.20580001
vt 0.6110122 0.26440945
vt 0.81112343 0.1073465
vt 0.79816276 0.034476437
vt 0.71543914 0.03198647
vt 0.6980839 0.12160494
vt 0.6871118 0.045573395
vt 0.81389797 0.16490695
vt 0.6392552 0.06866191
vt 0.69927096 0.16455838
vt 0.8064794 0.22801973
vt 0.69560367 0.21469276
vt 0.79047763 0.29979587
vt 0.7105221 0.30291003
vt 0.681362 0.28916892
vt 0.63438064 0.26268107
vt 0.6212921 0.12566091
vt 0.6159005 0.06446022
vt 0.61963624 0.16582377
vt 0.6989241 0.1640942
vt 0.6357885 0.20740299
vt 0.6109646 0.26440537
vt 0.6220818 0.20583284
vt 0.9546389 0.3087253
vt 0.9739285 0.30840954
vt 0.9794465 0.31476718
vt 0.9546695 0.31558383
vt 0.92940986 0.31779298
vt 0.94232154 0.30894774
vt 0.9644674 0.33513853
vt 0.98606914 0.33356053
vt 0.97801995 0.35422873
vt 0.95585567 0.3479186
vt 0.9576417 0.36401206
vt 0.93435925 0.35558376
vt 0.94645715 0.33587596
vt 0.92920893 0.33949947
vt 0.52253413 0.7053374
vt 0.47183758 0.7053373
vt 0.5382157 0.7760548
vt 0.59049135 0.70533735
vt 0.52253413 0.7053374
vt 0.5382157 0.7760548
vt 0.47183758 0.7053373
vt 0.59049135 0.70533735
vt 0.52253413 0.7053374
vt 0.5382157 0.7760548
vt 0.47183758 0.7053373
vt 0.59049135 0.70533735
vt 0.52253413 0.7053374
vt 0.47183758 0.7053373
vt 0.5382157 0.7760548
vt 0.59049135 0.70533735
vt 0.9546389 0.3087253
vt 0.9739285 0.30840957
vt 0.962291 0.300963
vt 0.94232154 0.30894774
vt 0.9576417 0.36711833
vt 0.9450873 0.37295163
vt 0.9576417 0.3726119
vt 0.96694016 0.3724214
vt 0.9739285 0.30840954
vt 0.9546389 0.3087253
vt 0.9794465 0.31476718
vt 0.9546695 0.31558383
vt 0.9644674 0.33513853
vt 0.98606914 0.33356053
vt 0.97801995 0.35422873
vt 0.95585567 0.3479186
vt 0.9576417 0.36401206
vt 0.93435925 0.35558376
vt 0.94645715 0.33587596
vt 0.92920893 0.33949947
vt 0.92940986 0.31779298
vt 0.94232154 0.30894774
vt 0.9739285 0.30840957
vt 0.9546389 0.3087253
vt 0.962291 0.300963
vt 0.94232154 0.30894774
vt 0.9450873 0.37295163
vt 0.9576417 0.36711833
vt 0.9576417 0.3726119
vt 0.96694016 0.3724214
vt 0.94483715 0.2731528
vt 0.91662574 0.26754108
vt 0.91322833 0.23220535
vt 0.94751257 0.23902492
vt 0.8723733 0.25873882
vt 0.94819075 0.1762846
vt 0.863316 0.22227706
vt 0.90558434 0.16780978
vt 0.93857384 0.11697107
vt 0.8643369 0.15960515
vt 0.90176415 0.10964916
vt 0.9344982 0.06522577
vt 0.84916145 0.09918585
vt 0.91151005 0.060653143
vt 0.9165339 0.03574115
vt 0.86193436 0.050791927
vt 0.90609604 0.018609643
vt 0.6441996 0.32867968
vt 0.64725214 0.39006302
vt 0.64725214 0.32617497
vt 0.6090019 0.32867968
vt 0.6090019 0.387305
vt 0.6441996 0.387305
vt 0.9335236 0.380173
vt 0.9380978 0.3841717
vt 0.9270631 0.40016866
vt 0.9450873 0.37295163
vt 0.9576417 0.3726119
vt 0.940355 0.4131526
vt 0.93675464 0.41973302
vt 0.9558188 0.39565566
vt 0.9568309 0.41944364
vt 0.95605457 0.42804196
vt 0.97703487 0.41789138
vt 0.97271836 0.41176924
vt 0.9866726 0.4014533
vt 0.97271055 0.38305792
vt 0.96694016 0.3724214
vt 0.97700965 0.3791308
vt 0.9380978 0.3841717
vt 0.9335236 0.380173
vt 0.9270631 0.40016866
vt 0.9450873 0.37295163
vt 0.9576417 0.3726119
vt 0.940355 0.4131526
vt 0.93675464 0.41973302
vt 0.9558188 0.39565566
vt 0.9568309 0.41944364
vt 0.95605457 0.42804196
vt 0.97703487 0.41789138
vt 0.97271836 0.41176924
vt 0.9866726 0.4014533
vt 0.97271055 0.38305792
vt 0.96694016 0.3724214
vt 0.97700965 0.3791308
vt 0.6441996 0.32867968
vt 0.64725214 0.32617497
vt 0.64725214 0.39006302
vt 0.6090019 0.32867968
vt 0.6441996 0.387305
vt 0.6090019 0.387305
vt 0.6559832 0.89286935
vt 0.66743904 0.91273475
vt 0.68235576 0.9086226
vt 0.6819351 0.8857149
vt 0.63699025 0.91255015
vt 0.6972754 0.91281205
vt 0.7078919 0.89300376
vt 0.65652215 0.9240471
vt 0.63004524 0.939484
vt 0.682737 0.93959385
vt 0.7083903 0.92417383
vt 0.65253025 0.9395282
vt 0.7272294 0.91277057
vt 0.63700914 0.96645385
vt 0.7122984 0.9396793
vt 0.73402876 0.9397467
vt 0.65653306 0.9550301
vt 0.65601593 0.9862332
vt 0.70821106 0.9551641
vt 0.72691756 0.9666868
vt 0.6674579 0.9663989
vt 0.68197274 0.99352217
vt 0.6972942 0.9664763
vt 0.70792466 0.9863677
vt 0.68237746 0.97058856
vt 0.65653306 0.9550301
vt 0.63700914 0.96645385
vt 0.63004524 0.939484
vt 0.65253025 0.9395282
vt 0.63699025 0.91255015
vt 0.6674579 0.9663989
vt 0.65601593 0.9862332
vt 0.682737 0.93959385
vt 0.65652215 0.9240471
vt 0.68237746 0.97058856
vt 0.66743904 0.91273475
vt 0.6559832 0.89286935
vt 0.68197274 0.99352217
vt 0.6819351 0.8857149
vt 0.6972942 0.9664763
vt 0.70792466 0.9863677
vt 0.68235576 0.9086226
vt 0.7078919 0.89300376
vt 0.70821106 0.9551641
vt 0.72691756 0.9666868
vt 0.6972754 0.91281205
vt 0.7272294 0.91277057
vt 0.7122984 0.9396793
vt 0.73402876 0.9397467
vt 0.7083903 0.92417383
vn -0.5322004 0.8378345 -0.12163956
vn -0.06855968 0.37349886 0.9250936
vn -0.99328643 -0.06793111 -0.0936348
vn -0.06855968 0.37349886 0.9250936
vn -0.5458545 -0.78102624 0.30338228
vn -0.99328643 -0.06793111 -0.0936348
vn -0.48601228 -0.38227507 -0.7859121
vn -0.9999052 -0.013765364 5.968658E-05
vn -0.5458545 -0.78102624 0.30338228
vn -0.48601228 -0.38227507 -0.7859121
vn -0.5322004 0.8378345 -0.12163956
vn -0.9999052 -0.013765364 5.968658E-05
vn -0.55808 -0.78727776 0.26218405
vn -0.55808 -0.78727776 0.26218405
vn 0.89997494 -0.41779754 -0.1244601
vn 0.721943 -0.6894741 -0.058513477
vn 0.97245985 0.03181611 -0.23088835
vn 0.8807143 0.39146084 -0.26664743
vn 0.77780807 0.55591035 -0.2932206
vn -0.17540911 0.9535394 -0.2449377
vn -0.17540911 0.9535394 -0.2449377
vn -0.9499919 0.30909768 0.04442951
vn -0.55808 -0.78727776 0.26218405
vn -0.55808 -0.78727776 0.26218405
vn -0.9499919 0.30909768 0.04442951
vn -0.17540911 0.9535394 -0.2449377
vn -0.17540911 0.9535394 -0.2449377
vn -0 0.9352312 0.35403734
vn -0 0.99827135 -0.058772918
vn 0.3043052 0.9499738 -0.070342906
vn 0.42439577 0.8880944 0.1765683
vn 0.54491496 0.83731204 0.044454627
vn 0.61454445 0.6734128 0.41091418
vn 0.3977997 0.6711523 0.6255477
vn -1.3531367E-06 0.49760145 0.8674057
vn 0.34445027 0.34094068 0.8747075
vn -1.7353976E-06 0.2111241 0.97745925
vn -1.7353976E-06 0.2111241 0.97745925
vn -0.3444482 0.34093407 0.874711
vn -1.3531367E-06 0.49760145 0.8674057
vn -0.39779755 0.6711473 0.62555456
vn -0 0.9352312 0.35403734
vn -0.61454105 0.67340875 0.41092572
vn -0.42439532 0.88809395 0.17657201
vn -0 0.99827135 -0.058772918
vn -0.54491496 0.83731204 0.044454627
vn -0.3043052 0.9499738 -0.070342906
vn -0 0 1
vn -0 0 1
vn -0 -0.8053465 0.5928045
vn -0.6821299 -0.7297106 0.047130343
vn -0 0 1
vn -0 0 1
vn -0 0 1
vn -0.679796 0.65821546 0.32346553
vn -0 0 1
vn -0 0.94529134 0.3262274
vn -0 0 1
vn -0 0 1
vn -0 0 1
vn -0 -0.8053465 0.5928045
vn -0 0 1
vn 0.6821299 -0.7297106 0.047130346
vn -0 0 1
vn -0 0 1
vn -0 0 1
vn 0.679796 0.65821534 0.32346556
vn -0 0 1
vn -0 0.94529134 0.3262274
vn -0 0 1
vn -0 0 1
vn 0.8329469 0.55185616 0.040671524
vn 0.88483626 -0.15107468 -0.44072798
vn 0.27557358 0.9586538 0.07100766
vn 0.7401483 0.19796686 -0.6426426
vn 0.69408673 0.30951574 -0.64995664
vn -0 0.28692025 -0.95795447
vn -0 0.113776445 -0.99350643
vn 0.73471916 -0.22807936 -0.63887995
vn 0.9194159 -0.38266104 0.09080246
vn 0.5318563 -0.82305706 0.1992637
vn 0.92511326 -0.3780622 0.0351356
vn 0.7384294 -0.33473754 -0.58538246
vn 0.9114702 -0.41116288 -0.012934972
vn 0.69045544 -0.3499378 -0.6330994
vn -4.2426327E-06 -0.15977904 -0.98715276
vn -1.7509401E-05 -0.28733116 -0.9578313
vn -2.676095E-05 -0.32043675 -0.94727
vn -0.6896214 -0.31628588 -0.65144885
vn -0.6754784 -0.3693415 -0.63821304
vn -0.7347275 -0.2280767 -0.6388713
vn -0.9279847 -0.3707004 0.037757877
vn -0.90647054 -0.4129431 0.08825659
vn -0.91941154 -0.38266903 0.09081195
vn -0.74014854 0.1979671 -0.64264244
vn -0.88483655 -0.15107428 -0.4407277
vn -0.5318563 -0.82305706 0.19926369
vn -0.69408673 0.30951574 -0.64995664
vn -0 0.28692025 -0.95795447
vn -0.8329469 0.55185616 0.040671557
vn -0.27557358 0.9586538 0.07100765
vn -0.54825765 0.8297993 -0.104147606
vn -0.13663155 -0.20872335 -0.9683833
vn 0.50080293 0.86314946 0.064570524
vn -0.5802393 -0.5828177 -0.5688988
vn 0.6767738 -0.6815908 -0.2782288
vn -0.118775815 0.548162 0.8278954
vn 0.5712996 0.62044644 0.5372735
vn 0.010995965 0.9565738 0.29128265
vn 0.3742078 0.8458904 0.38005006
vn 0.0049858605 0.8192272 0.57344735
vn 0.3498539 0.64113337 0.68304485
vn -0 0.7222193 0.69166416
vn -0 0.47546053 0.87973696
vn -0 0 1
vn -0 0 1
vn -0 0 1
vn -0 0.22397757 0.9745943
vn -0 0 1
vn -0 0 1
vn -0 0 1
vn -0 0 1
vn -0 0 1
vn -0 0 1
vn -0 0 1
vn -0 0 1
vn -0 0 1
vn -0 0 1
vn -0 0 1
vn -0 0 1
vn 0.55738926 0.13256691 0.81959945
vn -0 0 1
vn -0 0 1
vn 0.756413 0.3516577 0.5515217
vn 0.6890866 0.10749108 0.71666265
vn 0.514051 -0.084483795 0.8535889
vn -0 0 1
vn 0.40457785 -0.02842741 0.91406167
vn 0.28744113 0.19981292 0.9367243
vn -0 0 1
vn 0.22976644 0.017202718 0.97309375
vn 0.2595969 -0.030230882 0.96524376
vn -0 0 1
vn -2.0277299E-05 -0.10863456 0.9940818
vn -1.0194754E-05 -0.06533831 0.99786323
vn -0.7184592 -0.6663311 -0.19954781
vn 0.17248504 -0.039169855 -0.984233
vn -0.6077254 0.77430326 0.1764208
vn 0.7164204 -0.47346112 -0.5124221
vn 0.51592875 0.8564524 0.01751624
vn 0.17248504 -0.039169855 -0.984233
vn 0.51592875 0.8564524 0.01751624
vn -0.6077254 0.77430326 0.1764208
vn 0.7164204 -0.47346112 -0.5124221
vn -0.7184592 -0.6663311 -0.19954781
vn -1.5388387E-05 -0.50994676 -0.86020595
vn 0.5075971 -0.53295815 -0.6769791
vn -3.821028E-05 -0.5983583 -0.8012287
vn 0.6710185 -0.49611473 -0.55100316
vn 0.8723521 -0.4788397 -0.09856116
vn 0.8779379 -0.4764681 0.046937425
vn 0.7329292 -0.502016 0.45912373
vn 0.56721747 -0.51692814 0.64113146
vn 2.39721E-05 -0.5643627 0.8255269
vn -0 -0.50935465 0.8605567
vn 0.6767738 -0.6815908 -0.2782288
vn 0.50080293 0.86314946 0.064570524
vn -0.13663155 -0.20872335 -0.9683833
vn -0.5802393 -0.5828177 -0.5688988
vn -0.54825765 0.8297993 -0.104147606
vn 0.8329469 0.55185616 0.040671524
vn 0.27557358 0.9586538 0.07100766
vn 0.51568466 -0.12708698 0.8473005
vn 0.817654 0.10383769 0.56626815
vn 0.77490526 -0.1830782 0.6049828
vn 0.5214529 -0.10911346 0.84627485
vn 0.9194159 -0.38266104 0.09080246
vn 0.5318563 -0.82305706 0.1992637
vn 0.3990626 -0.1690852 0.9011988
vn 0.3103875 -0.15656666 0.9376281
vn -6.786023E-05 -0.22192006 0.9750649
vn 0.81344765 -0.3079141 0.49344897
vn 0.92511326 -0.3780622 0.0351356
vn 0.3889391 -0.29547945 0.87259287
vn 0.77305204 -0.41702425 0.47799712
vn 0.9114702 -0.41116288 -0.012934972
vn 0.64200854 -0.43768618 0.6294886
vn 0.37892333 -0.40569222 0.8317637
vn -1.2836349E-05 -0.44550294 0.8952805
vn -2.0548943E-05 -0.29499498 0.9554987
vn -3.2653996E-05 -0.3573791 0.93395936
vn -0.3990711 -0.16975608 0.90106887
vn -0.31045884 -0.15743132 0.9374597
vn -0.5211594 -0.10979747 0.84636724
vn -0.3788463 -0.40563333 0.83182764
vn -0.6419197 -0.4375931 0.62964386
vn -0.38888323 -0.2955098 0.8726074
vn -0.7747798 -0.18335743 0.6050589
vn -0.81746745 0.10388065 0.5665296
vn -0.81339264 -0.3079627 0.49350923
vn -0.91941154 -0.38266903 0.09081195
vn -0.9279847 -0.3707004 0.037757877
vn -0.7729758 -0.41703156 0.47811413
vn -0.90647054 -0.4129431 0.08825659
vn -1.0194754E-05 -0.06533831 0.99786323
vn -2.0277299E-05 -0.10863456 0.9940818
vn -0.23170778 0.015590893 0.9726605
vn -0.2603563 -0.030869953 0.965019
vn -0 0 1
vn -0.29486364 0.19052784 0.9363518
vn -0 0 1
vn -0.40669018 -0.03154279 0.91302145
vn -0 0 1
vn -0.69054973 0.10407637 0.7157579
vn -0.51405096 -0.08448376 0.85358894
vn -0 0 1
vn -0.55738926 0.13256691 0.8195994
vn -0.75641304 0.35165763 0.5515218
vn -0 0 1
vn -0 0 1
vn -0 0 1
vn -0 0 1
vn -0 0 1
vn -0 0 1
vn -0 0 1
vn -0 0 1
vn -0 0 1
vn -0 0 1
vn -0 0 1
vn -0 0.22397757 0.9745943
vn -0 0 1
vn -0 0 1
vn -0 0.47546053 0.87973696
vn -0 0 1
vn -0.34986126 0.64112955 0.68304473
vn -0 0.7222193 0.69166416
vn -0 0 1
vn 0.0049858605 0.8192272 0.57344735
vn -0 0 1
vn -0.33860618 0.8755237 0.3446798
vn -0.69196904 0.5947158 0.4092578
vn -0.75641304 0.35165763 0.5515218
vn -0.9457948 0.32171196 0.04442586
vn -0.98138225 0.19047768 -0.024641115
vn -0.69054973 0.10407637 0.7157579
vn -0.73056 0.002953966 -0.68284214
vn -0.7063962 0.26454422 -0.6565216
vn -0 -0.1448713 -0.9894505
vn -0 0.32822648 -0.94459903
vn -0.7846835 0.616252 -0.06712207
vn -0.5054173 0.6249347 -0.59498745
vn -0.5078759 0.86061454 0.037478913
vn -0.9464056 -0.1261224 -0.29733762
vn 0.8049898 -0.042640466 -0.5917543
vn -0.8514556 0.47435847 -0.22362322
vn -0.5010918 0.79795426 -0.33492705
vn -0.76945114 0.61211807 0.18236361
vn -0.5749326 0.6426684 0.50638884
vn 0.010995965 0.9565738 0.29128265
vn 0.0049858605 0.8192272 0.57344735
vn -0.118775815 0.548162 0.8278954
vn -0.5156841 -0.12708764 0.84730077
vn -0.91941154 -0.38266903 0.09081195
vn -0.5318563 -0.82305706 0.19926369
vn -0.7747798 -0.18335743 0.6050589
vn -0.81746745 0.10388065 0.5665296
vn -0.8329469 0.55185616 0.040671557
vn -0.27557358 0.9586538 0.07100765
vn -3.821028E-05 -0.5983583 -0.8012287
vn -0.5076297 -0.53295326 -0.67695844
vn -1.5388387E-05 -0.50994676 -0.86020595
vn -0.67102706 -0.496119 -0.55098873
vn -0.87234116 -0.47887212 -0.09850046
vn -0.8779406 -0.47646186 0.04695231
vn -0.7329055 -0.5020251 0.4591517
vn -0.56720793 -0.5169392 0.64113104
vn 2.39721E-05 -0.5643627 0.8255269
vn -0 -0.50935465 0.8605567
vn -0 0.32822648 -0.94459903
vn -0 -0.1448713 -0.9894505
vn 0.73056 0.002953966 -0.68284214
vn 0.7063962 0.26454422 -0.6565216
vn 0.98138225 0.1904777 -0.024641082
vn 0.4849644 0.6298209 -0.6067414
vn 0.8049898 -0.042640466 -0.5917543
vn 0.7179466 0.44576043 -0.5346497
vn 0.9457948 0.32171196 0.04442588
vn 0.6890866 0.10749108 0.71666265
vn 0.756413 0.3516577 0.5515217
vn 0.5037866 0.7285529 -0.46412262
vn 0.5854691 0.25559533 -0.7693484
vn 0.7833672 0.31479764 -0.5359462
vn 0.7846871 0.61624783 -0.06711798
vn 0.6919448 0.5947379 0.40926653
vn -0 0 1
vn 0.60647655 0.794243 0.036936305
vn 0.96506315 0.13625503 0.22380283
vn 0.5712996 0.62044644 0.5372735
vn -0.67102706 -0.496119 -0.55098873
vn -0 -0.32149395 -0.94691163
vn -1.5388387E-05 -0.50994676 -0.86020595
vn -0.6904687 -0.32268703 -0.64739954
vn -0.8779406 -0.47646186 0.04695231
vn -0 -0.14622061 -0.98925203
vn -0.9512796 -0.30815265 -0.010441341
vn -0.56720793 -0.5169392 0.64113104
vn -0.74012476 -0.12726921 -0.6603165
vn -0.6953085 -0.31977698 0.64365274
vn -0 -0.50935465 0.8605567
vn -0 -0.31122434 0.9503365
vn -0.99349844 -0.11293562 -0.014369154
vn -0.7464275 -0.13497646 0.65163434
vn -0 -0.15939344 0.98721516
vn -0 -0.11198611 0.9937098
vn -0.7433935 -0.09576467 -0.66196316
vn -0 -0.10585297 -0.99438184
vn -0 -0.11565374 -0.99328965
vn -0.75138664 -0.10015699 0.65221673
vn -0.9956904 -0.091344215 -0.016025688
vn -0.75309163 -0.10007428 -0.6502601
vn -0 -0.129223 -0.9916155
vn -0.7620831 -0.10472058 0.63895446
vn -0 -0.122776404 0.9924344
vn -0.99548596 -0.09354607 -0.016026542
vn -0.79106945 -0.101043984 -0.60332346
vn -0 -0.18333556 -0.9830504
vn -0.80322367 -0.105180696 0.586318
vn -0 -0.13780688 0.9904591
vn -0.9952768 -0.09574518 -0.016024921
vn -0.98882306 -0.1484803 -0.013513778
vn -0 -0.9977557 -0.06695943
vn -0 -0.1939867 0.9810042
vn 0.97975564 -0.15926129 -0.121304065
vn 0.7833672 0.31479764 -0.5359462
vn 0.96506315 0.13625503 0.22380283
vn 0.55991006 0.2597278 -0.7867924
vn 0.8408015 0.5299153 -0.11064639
vn 0.607761 0.27924886 -0.743402
vn -0.24849653 0.7740169 -0.5823636
vn -0.47669655 0.5711931 -0.6682056
vn -0.70950156 0.34249678 -0.61587614
vn -0.78692746 0.5736544 -0.22730115
vn -0.9333729 0.25197366 0.2555859
vn -0.2666473 0.9343053 0.23658556
vn 0.44147032 0.67278904 0.59368247
vn 0.2181654 0.9067913 -0.36073983
vn 0.06249497 0.5782861 0.8134369
vn -0.85424465 0.27915195 0.4385662
vn -0.1417336 0.10248718 0.9845852
vn 0.8875134 -0.066353835 0.45597938
vn 0.44147032 0.67278904 0.59368247
vn -0.71777797 -0.046826612 0.6946957
vn -0.8312698 0.12243886 0.54221696
vn -0.5749326 0.6426684 0.50638884
vn -0.76945114 0.61211807 0.18236361
vn 0.078102455 -0.12791716 0.98870486
vn -0.118775815 0.548162 0.8278954
vn 0.85985434 0.18421435 0.4761468
vn 0.8078576 -0.5358012 -0.2455267
vn 0.2181654 0.9067913 -0.36073983
vn -0.70950156 0.34249678 -0.61587614
vn 0.607761 0.27924886 -0.743402
vn 0.7260634 0.44390303 0.5251495
vn 0.8408015 0.5299153 -0.11064639
vn 0.73687637 0.04176792 0.674736
vn 0.5712996 0.62044644 0.5372735
vn 0.97975564 -0.15926129 -0.121304065
vn 0.96506315 0.13625503 0.22380283
vn 0.56721747 -0.51692814 0.64113146
vn -0 -0.31122434 0.9503365
vn -0 -0.50935465 0.8605567
vn 0.69527906 -0.31975952 0.6436931
vn 0.8779379 -0.4764681 0.046937425
vn -0 -0.15939344 0.98721516
vn 0.95128274 -0.308143 -0.010444755
vn 0.6710185 -0.49611473 -0.55100316
vn 0.7463579 -0.13497227 0.651715
vn 0.75131685 -0.10016615 0.65229577
vn 0.9956873 -0.091377124 -0.016032515
vn -0 -0.11198611 0.9937098
vn -0 -0.122776404 0.9924344
vn 0.7620415 -0.104726866 0.63900316
vn -0 -0.13780688 0.9904591
vn 0.993497 -0.11294666 -0.014376988
vn 0.6904366 -0.32266927 -0.6474425
vn 0.80319655 -0.10518369 0.58635455
vn -0 -0.1939867 0.9810042
vn -0 -0.32149395 -0.94691163
vn -1.5388387E-05 -0.50994676 -0.86020595
vn 0.7400492 -0.1272642 -0.6604021
vn -0 -0.14622061 -0.98925203
vn -0 -0.10585297 -0.99438184
vn 0.7433182 -0.09577317 -0.6620466
vn 0.7530467 -0.10008014 -0.65031123
vn -0 -0.11565374 -0.99328965
vn 0.9954839 -0.09356766 -0.016030684
vn 0.7910398 -0.10104667 -0.60336185
vn -0 -0.129223 -0.9916155
vn 0.99527574 -0.09575715 -0.01602788
vn 0.9888222 -0.1484857 -0.013514912
vn -0 -0.18333556 -0.9830504
vn -0 -0.9977557 -0.06695943
vn 0.7833672 0.31479764 -0.5359462
vn 0.55991006 0.2597278 -0.7867924
vn 0.5854691 0.25559533 -0.7693484
vn 0.620389 0.43399024 -0.6532764
vn -0.24849653 0.7740169 -0.5823636
vn -0.13604431 0.9462952 -0.2932869
vn 0.7179466 0.44576043 -0.5346497
vn 0.6276254 0.4974707 -0.59884
vn -0.23436448 0.815925 -0.528526
vn -0.14306062 0.7964229 -0.5875748
vn 0.8184645 0.41766322 -0.39455467
vn 0.8049898 -0.042640466 -0.5917543
vn 0.7632616 0.23660263 -0.6012078
vn -0.11758972 0.86335975 -0.49069598
vn -0.12637548 0.47650144 -0.8700434
vn -0.15106095 -0.36458495 -0.9188353
vn 0.50208735 -0.7525195 -0.42617217
vn -0.43057057 -0.9025406 -0.0054230015
vn -0.9464056 -0.1261224 -0.29733762
vn -0 0 1
vn -0 0 1
vn -0 0 1
vn -0 0 1
vn -0 0 1
vn -0 0 1
vn -0 0 1
vn -0 0 1
vn -0 0 1
vn -0 0 1
vn -0 0 1
vn -0 0 1
vn -0 0 1
vn -0 0 1
vn -0 0 1
vn -0 0 1
vn -0 0 1
vn -0 0 1
vn -0 0 1
vn -0 0 1
vn -0 0 1
vn -0 0 1
vn -0 0 1
vn -0 0 1
vn -0 0 1
vn -0 0 1
vn -0 0 1
vn -0 0 1
vn -0 0 1
vn -0 0 1
vn -0 0 1
vn -0 0 1
vn -0 0 1
vn -0 0 1
vn -0 0 1
vn -0 0 1
vn -0 0 1
vn -0 0 1
vn -0 0 1
vn -0 0 1
vn -0 0 1
vn -0 0 1
vn -0 0 1
vn -0 0 1
vn -0 0 1
vn -0 0 1
vn -0 0 1
vn -0 0 1
vn -0 0 1
vn -0 0 1
vn -0 0 1
vn -0 0 1
vn -0 0 1
vn -0 0 1
vn -0 0 1
vn -0 0 1
vn 0.55163336 0.825151 -0.1217636
vn 0.5612507 -0.321791 -0.7625275
vn 0.99994695 -0.007383962 0.007177343
vn -0.07932356 0.4305103 -0.8990932
vn -0.100458264 0.98643714 0.12980758
vn -0.29663277 0.06547841 -0.95274425
vn -0.08546474 0.032547247 -0.99580944
vn 0.27557358 0.9586538 0.07100766
vn 0.88483626 -0.15107468 -0.44072798
vn 0.51568466 -0.12708698 0.8473005
vn 0.01566439 0.31267637 0.9497305
vn 0.98308855 0.00857196 -0.18292996
vn -0.09211602 0.041464884 0.99488455
vn -0.09143507 -0.99438596 -0.053255945
vn -0.12873794 -0.34468734 0.9298479
vn 0.5938101 -0.77419513 0.21911512
vn 0.98308855 0.00857196 -0.18292996
vn 0.5612507 -0.321791 -0.7625275
vn 0.99994695 -0.007383962 0.007177343
vn -0.07932356 0.4305103 -0.8990932
vn -0.29663277 0.06547841 -0.95274425
vn -0.08546474 0.032547247 -0.99580944
vn 0.052799247 -0.998094 -0.031945754
vn 0.5318563 -0.82305706 0.1992637
vn 0.88483626 -0.15107468 -0.44072798
vn -0.5322004 0.8378345 -0.12163956
vn -0.48601228 -0.38227507 -0.7859121
vn 0.07348848 0.42823353 -0.900675
vn 0.096124895 0.98677385 0.13052721
vn 0.29663277 0.06547841 -0.95274425
vn -0.06855968 0.37349886 0.9250936
vn 0.08546476 0.032547228 -0.99580944
vn 0.1672361 -0.2516682 0.953255
vn -0.5458545 -0.78102624 0.30338228
vn 0.09519202 -0.99433076 -0.047377657
vn -0.48601228 -0.38227507 -0.7859121
vn 0.07348848 0.42823353 -0.900675
vn 0.29663277 0.06547841 -0.95274425
vn 0.08546476 0.032547228 -0.99580944
vn -0.27557358 0.9586538 0.07100765
vn -0.88483655 -0.15107428 -0.4407277
vn -0.5156841 -0.12708764 0.84730077
vn 0.09211602 0.041464884 0.99488455
vn -0.052799255 -0.998094 -0.031945743
vn -0.88483655 -0.15107428 -0.4407277
vn -0.5318563 -0.82305706 0.19926369
vn 0.5628097 -0.826572 0.004902928
vn 0.76088804 -0.06625941 -0.64549136
vn 0.5446173 -0.45348698 -0.70550793
vn 0.3480819 -0.93745184 -0.0047963974
vn 0.5250042 -0.4317875 0.73343724
vn 0.7571353 -0.03485787 0.65232754
vn 0.057580415 -0.8649708 -0.49850765
vn 0.04562861 -0.12025247 -0.99169415
vn -0.72700685 -0.23322976 -0.64580554
vn -0.39267734 -0.9196761 -0.00061917765
vn -0.9896986 -0.14316663 0
vn -0.7125854 -0.19982965 0.6725252
vn 0.046626396 -0.85333353 0.5192763
vn -0.0026786595 -0.091278 0.99582183
vn 0.97966945 -0.043873347 -0.19576216
vn 0.99994695 -0.007383962 0.007177343
vn 0.5938101 -0.77419513 0.21911512
vn 0.98308855 0.00857196 -0.18292996
vn 0.97966945 -0.043873347 -0.19576216
vn 0.55163336 0.825151 -0.1217636
vn 0.99994695 -0.007383962 0.007177343
vn 0.98308855 0.00857196 -0.18292996
vn -0.97575265 -0.120141685 -0.18295567
vn -0.5458545 -0.78102624 0.30338228
vn -0.9999052 -0.013765364 5.968658E-05
vn -0.99328643 -0.06793111 -0.0936348
vn -0.97575265 -0.120141685 -0.18295567
vn -0.9999052 -0.013765364 5.968658E-05
vn -0.5322004 0.8378345 -0.12163956
vn -0.99328643 -0.06793111 -0.0936348
vn 0.5628097 -0.826572 0.004902928
vn 0.7571353 -0.03485787 0.65232754
vn 0.4934658 -0.8695806 0.017914604
vn 0.76088804 -0.06625941 -0.64549136
vn 0.9009335 0.43380213 0.011604906
vn 0.7571353 -0.03485787 0.65232754
vn 0.74845755 0.66294014 0.01793664
vn 0.76088804 -0.06625941 -0.64549136
vn -0.76088804 -0.06625941 -0.64549136
vn -0.5628097 -0.826572 0.004902928
vn -0.5446173 -0.45348698 -0.70550793
vn -0.3480819 -0.93745184 -0.0047963974
vn -0.057580415 -0.8649708 -0.49850765
vn -0.04562861 -0.12025247 -0.99169415
vn 0.72700685 -0.23322976 -0.64580554
vn 0.39267734 -0.9196761 -0.00061917765
vn 0.9896986 -0.14316663 0
vn 0.7125854 -0.19982965 0.6725252
vn -0.046626396 -0.85333353 0.5192763
vn 0.0026786595 -0.091278 0.99582183
vn -0.5250042 -0.4317875 0.73343724
vn -0.7571353 -0.03485787 0.65232754
vn -0.7571353 -0.03485787 0.65232754
vn -0.5628097 -0.826572 0.004902928
vn -0.4934658 -0.8695806 0.017914604
vn -0.76088804 -0.06625941 -0.64549136
vn -0.7571353 -0.03485787 0.65232754
vn -0.9009335 0.43380213 0.011604906
vn -0.74845755 0.66294014 0.01793664
vn -0.76088804 -0.06625941 -0.64549136
vn -0.24849653 0.7740169 -0.5823636
vn -0.9333729 0.25197366 0.2555859
vn -0.8127823 0.53180355 0.23784432
vn -0.13604431 0.9462952 -0.2932869
vn -0.8312698 0.12243886 0.54221696
vn -0.23436448 0.815925 -0.528526
vn -0.76945114 0.61211807 0.18236361
vn -0.92617464 0.37671566 0.01691044
vn -0.14306062 0.7964229 -0.5875748
vn -0.8514556 0.47435847 -0.22362322
vn -0.9895788 0.1435446 -0.011344518
vn -0.11758972 0.86335975 -0.49069598
vn -0.9464056 -0.1261224 -0.29733762
vn -0.91677415 0.18789196 -0.352451
vn -0.12637548 0.47650144 -0.8700434
vn -0.43057057 -0.9025406 -0.0054230015
vn -0.15106095 -0.36458495 -0.9188353
vn -0.76513284 -0.618757 0.17807738
vn 0.0015850822 0.99959034 0.028575933
vn -0.0003120844 -0.5305668 0.8476431
vn 0.00022906391 -0.9955629 -0.09409753
vn 0.002332625 0.2976673 -0.95466685
vn -0.88197744 0.34961322 -0.31604835
vn 0.5446173 -0.45348698 -0.70550793
vn 0.43897787 0.60207987 -0.666932
vn 0.04562861 -0.12025247 -0.99169415
vn 0.76088804 -0.06625941 -0.64549136
vn 0.74845755 0.66294014 0.01793664
vn -0.33632228 0.6991969 -0.6308812
vn -0.72700685 -0.23322976 -0.64580554
vn 0.06289362 0.99791044 0.014800414
vn -0.7509836 0.6596023 0.030795125
vn -0.9896986 -0.14316663 0
vn -0.7125854 -0.19982965 0.6725252
vn -0.30963275 0.69853926 0.64511263
vn -0.0026786595 -0.091278 0.99582183
vn 0.4098501 0.60825187 0.6797444
vn 0.7571353 -0.03485787 0.65232754
vn 0.5250042 -0.4317875 0.73343724
vn -0.43897787 0.60207987 -0.666932
vn -0.5446173 -0.45348698 -0.70550793
vn -0.04562861 -0.12025247 -0.99169415
vn -0.76088804 -0.06625941 -0.64549136
vn -0.74845755 0.66294014 0.01793664
vn 0.33632228 0.6991969 -0.6308812
vn 0.72700685 -0.23322976 -0.64580554
vn -0.06289362 0.99791044 0.014800414
vn 0.7509836 0.6596023 0.030795125
vn 0.9896986 -0.14316663 0
vn 0.7125854 -0.19982965 0.6725252
vn 0.30963275 0.69853926 0.64511263
vn 0.0026786595 -0.091278 0.99582183
vn -0.4098501 0.60825187 0.6797444
vn -0.7571353 -0.03485787 0.65232754
vn -0.5250042 -0.4317875 0.73343724
vn 0.7569162 -0.6264741 0.18603244
vn -0.0003120844 -0.5305668 0.8476431
vn 0.0015850822 0.99959034 0.028575933
vn 0.00022906391 -0.9955629 -0.09409753
vn 0.8892221 0.33495483 -0.3115917
vn 0.002332625 0.2976673 -0.95466685
vn -0 0 1
vn -0 0 1
vn -0 0 1
vn -0 0 1
vn -0 0 1
vn -0 0 1
vn -0 0 1
vn -0 0 1
vn -0 0 1
vn -0 0 1
vn -0 0 1
vn -0 0 1
vn -0 0 1
vn -0 0 1
vn -0 0 1
vn -0 0 1
vn -0 0 1
vn -0 0 1
vn -0 0 1
vn -0 0 1
vn -0 0 1
vn -0 0 1
vn -0 0 1
vn -0 0 1
vn -0 0 1
vn -0 0 1
vn -0 0 1
vn -0 0 1
vn -0 0 1
vn -0 0 1
vn -0 0 1
vn -0 0 1
vn -0 0 1
vn -0 0 1
vn -0 0 1
vn -0 0 1
vn -0 0 1
vn -0 0 1
vn -0 0 1
vn -0 0 1
vn -0 0 1
vn -0 0 1
vn -0 0 1
vn -0 0 1
vn -0 0 1
vn -0 0 1
vn -0 0 1
vn -0 0 1
vn -0 0 1
vn -0 0 1
g skin1_0
f 3/3/3 2/2/2 1/1/1
f 6/6/6 5/5/5 4/4/4
f 9/9/9 8/8/8 7/7/7
f 12/12/12 11/11/11 10/10/10
f 15/15/15 14/14/14 13/13/13
f 16/16/16 15/15/15 13/13/13
f 17/17/17 15/15/15 16/16/16
f 15/15/15 17/17/17 18/18/18
f 18/18/18 17/17/17 19/19/19
f 20/20/20 18/18/18 19/19/19
f 21/21/21 20/20/20 19/19/19
f 24/24/24 23/23/23 22/22/22
f 23/23/23 25/25/25 22/22/22
f 22/22/22 25/25/25 26/26/26
f 25/25/25 27/27/27 26/26/26
f 30/30/30 29/29/29 28/28/28
f 31/31/31 30/30/30 28/28/28
f 31/31/31 32/32/32 30/30/30
f 31/31/31 33/33/33 32/32/32
f 28/28/28 34/34/34 31/31/31
f 34/34/34 33/33/33 31/31/31
f 34/34/34 28/28/28 35/35/35
f 33/33/33 34/34/34 36/36/36
f 35/35/35 36/36/36 34/34/34
f 35/35/35 37/37/37 36/36/36
f 40/40/40 39/39/39 38/38/38
f 39/39/39 40/40/40 41/41/41
f 41/41/41 40/40/40 42/42/42
f 41/41/41 43/43/43 39/39/39
f 41/41/41 42/42/42 44/44/44
f 43/43/43 41/41/41 44/44/44
f 44/44/44 42/42/42 45/45/45
f 44/44/44 46/46/46 43/43/43
f 47/47/47 44/44/44 45/45/45
f 46/46/46 44/44/44 47/47/47
f 50/50/50 49/49/49 48/48/48
f 49/49/49 50/50/50 51/51/51
f 51/51/51 52/52/52 49/49/49
f 52/52/52 51/51/51 53/53/53
f 51/51/51 54/54/54 53/53/53
f 50/50/50 55/55/55 51/51/51
f 51/51/51 55/55/55 54/54/54
f 54/54/54 55/55/55 56/56/56
f 55/55/55 50/50/50 57/57/57
f 55/55/55 58/58/58 56/56/56
f 58/58/58 55/55/55 57/57/57
f 57/57/57 59/59/59 58/58/58
f 62/62/62 61/61/61 60/60/60
f 61/61/61 62/62/62 63/63/63
f 63/63/63 62/62/62 64/64/64
f 63/63/63 64/64/64 65/65/65
f 66/66/66 63/63/63 65/65/65
f 67/67/67 61/61/61 63/63/63
f 67/67/67 63/63/63 66/66/66
f 68/68/68 67/67/67 66/66/66
f 67/67/67 69/69/69 61/61/61
f 67/67/67 68/68/68 70/70/70
f 67/67/67 70/70/70 69/69/69
f 69/69/69 70/70/70 71/71/71
f 74/74/74 73/73/73 72/72/72
f 73/73/73 75/75/75 72/72/72
f 76/76/76 72/72/72 75/75/75
f 77/77/77 76/76/76 75/75/75
f 78/78/78 77/77/77 75/75/75
f 73/73/73 79/79/79 75/75/75
f 78/78/78 75/75/75 79/79/79
f 73/73/73 80/80/80 79/79/79
f 73/73/73 81/81/81 80/80/80
f 79/79/79 80/80/80 82/82/82
f 83/83/83 79/79/79 82/82/82
f 84/84/84 83/83/83 82/82/82
f 84/84/84 85/85/85 83/83/83
f 86/86/86 79/79/79 83/83/83
f 86/86/86 78/78/78 79/79/79
f 83/83/83 85/85/85 87/87/87
f 87/87/87 86/86/86 83/83/83
f 85/85/85 88/88/88 87/87/87
f 87/87/87 88/88/88 89/89/89
f 88/88/88 90/90/90 89/89/89
f 91/91/91 86/86/86 87/87/87
f 89/89/89 91/91/91 87/87/87
f 89/89/89 90/90/90 92/92/92
f 90/90/90 93/93/93 92/92/92
f 92/92/92 94/94/94 89/89/89
f 94/94/94 91/91/91 89/89/89
f 95/95/95 78/78/78 86/86/86
f 91/91/91 95/95/95 86/86/86
f 96/96/96 91/91/91 94/94/94
f 96/96/96 95/95/95 91/91/91
f 96/96/96 94/94/94 97/97/97
f 78/78/78 95/95/95 98/98/98
f 99/99/99 78/78/78 98/98/98
f 98/98/98 95/95/95 100/100/100
f 96/96/96 100/100/100 95/95/95
f 101/101/101 100/100/100 96/96/96
f 104/104/104 103/103/103 102/102/102
f 104/104/104 102/102/102 105/105/105
f 106/106/106 104/104/104 105/105/105
f 109/109/109 108/108/108 107/107/107
f 108/108/108 109/109/109 110/110/110
f 111/111/111 110/110/110 109/109/109
f 110/110/110 111/111/111 112/112/112
f 113/113/113 112/112/112 111/111/111
f 114/114/114 112/112/112 113/113/113
f 115/115/115 112/112/112 114/114/114
f 114/114/114 116/116/116 115/115/115
f 112/112/112 115/115/115 117/117/117
f 116/116/116 114/114/114 118/118/118
f 116/116/116 118/118/118 119/119/119
f 112/112/112 117/117/117 120/120/120
f 112/112/112 120/120/120 121/121/121
f 118/118/118 122/122/122 119/119/119
f 123/123/123 122/122/122 118/118/118
f 124/124/124 122/122/122 123/123/123
f 124/124/124 125/125/125 122/122/122
f 124/124/124 126/126/126 125/125/125
f 124/124/124 127/127/127 126/126/126
f 126/126/126 127/127/127 128/128/128
f 126/126/126 128/128/128 129/129/129
f 129/129/129 128/128/128 130/130/130
f 131/131/131 130/130/130 128/128/128
f 128/128/128 132/132/132 131/131/131
f 130/130/130 131/131/131 133/133/133
f 131/131/131 134/134/134 133/133/133
f 134/134/134 121/121/121 133/133/133
f 131/131/131 135/135/135 134/134/134
f 136/136/136 131/131/131 132/132/132
f 131/131/131 136/136/136 135/135/135
f 136/136/136 132/132/132 137/137/137
f 138/138/138 135/135/135 136/136/136
f 136/136/136 137/137/137 138/138/138
f 139/139/139 135/135/135 138/138/138
f 140/140/140 138/138/138 137/137/137
f 141/141/141 139/139/139 138/138/138
f 138/138/138 140/140/140 142/142/142
f 142/142/142 141/141/141 138/138/138
f 143/143/143 142/142/142 140/140/140
f 144/144/144 141/141/141 142/142/142
f 142/142/142 143/143/143 145/145/145
f 145/145/145 144/144/144 142/142/142
f 148/148/148 147/147/147 146/146/146
f 147/147/147 149/149/149 146/146/146
f 149/149/149 147/147/147 150/150/150
f 153/153/153 152/152/152 151/151/151
f 152/152/152 153/153/153 154/154/154
f 153/153/153 155/155/155 154/154/154
f 158/158/158 157/157/157 156/156/156
f 157/157/157 159/159/159 156/156/156
f 157/157/157 160/160/160 159/159/159
f 161/161/161 159/159/159 160/160/160
f 160/160/160 162/162/162 161/161/161
f 163/163/163 161/161/161 162/162/162
f 162/162/162 164/164/164 163/163/163
f 163/163/163 164/164/164 165/165/165
f 168/168/168 167/167/167 166/166/166
f 168/168/168 166/166/166 169/169/169
f 168/168/168 169/169/169 170/170/170
f 173/173/173 172/172/172 171/171/171
f 173/173/173 171/171/171 174/174/174
f 173/173/173 174/174/174 175/175/175
f 176/176/176 175/175/175 174/174/174
f 173/173/173 175/175/175 177/177/177
f 178/178/178 173/173/173 177/177/177
f 176/176/176 179/179/179 175/175/175
f 176/176/176 180/180/180 179/179/179
f 180/180/180 181/181/181 179/179/179
f 182/182/182 177/177/177 175/175/175
f 182/182/182 175/175/175 179/179/179
f 182/182/182 183/183/183 177/177/177
f 184/184/184 179/179/179 181/181/181
f 184/184/184 182/182/182 179/179/179
f 183/183/183 182/182/182 185/185/185
f 185/185/185 186/186/186 183/183/183
f 186/186/186 185/185/185 187/187/187
f 185/185/185 182/182/182 188/188/188
f 185/185/185 188/188/188 187/187/187
f 182/182/182 184/184/184 188/188/188
f 187/187/187 188/188/188 189/189/189
f 190/190/190 184/184/184 181/181/181
f 184/184/184 190/190/190 188/188/188
f 189/189/189 188/188/188 191/191/191
f 190/190/190 191/191/191 188/188/188
f 190/190/190 181/181/181 192/192/192
f 193/193/193 192/192/192 181/181/181
f 193/193/193 194/194/194 192/192/192
f 191/191/191 195/195/195 189/189/189
f 189/189/189 195/195/195 196/196/196
f 190/190/190 197/197/197 191/191/191
f 197/197/197 190/190/190 192/192/192
f 197/197/197 195/195/195 191/191/191
f 192/192/192 194/194/194 198/198/198
f 194/194/194 199/199/199 198/198/198
f 197/197/197 192/192/192 200/200/200
f 192/192/192 198/198/198 200/200/200
f 197/197/197 200/200/200 195/195/195
f 201/201/201 200/200/200 198/198/198
f 200/200/200 201/201/201 202/202/202
f 196/196/196 195/195/195 203/203/203
f 200/200/200 203/203/203 195/195/195
f 200/200/200 202/202/202 203/203/203
f 204/204/204 196/196/196 203/203/203
f 204/204/204 203/203/203 202/202/202
f 207/207/207 206/206/206 205/205/205
f 208/208/208 207/207/207 205/205/205
f 208/208/208 205/205/205 209/209/209
f 210/210/210 207/207/207 208/208/208
f 208/208/208 209/209/209 211/211/211
f 212/212/212 210/210/210 208/208/208
f 211/211/211 212/212/212 208/208/208
f 211/211/211 213/213/213 212/212/212
f 214/214/214 210/210/210 212/212/212
f 213/213/213 215/215/215 212/212/212
f 214/214/214 212/212/212 215/215/215
f 215/215/215 213/213/213 216/216/216
f 217/217/217 214/214/214 215/215/215
f 215/215/215 216/216/216 217/217/217
f 217/217/217 218/218/218 214/214/214
f 219/219/219 217/217/217 216/216/216
f 217/217/217 220/220/220 218/218/218
f 218/218/218 220/220/220 221/221/221
f 217/217/217 222/222/222 220/220/220
f 222/222/222 217/217/217 219/219/219
f 223/223/223 222/222/222 219/219/219
f 219/219/219 224/224/224 223/223/223
f 224/224/224 219/219/219 225/225/225
f 226/226/226 224/224/224 225/225/225
f 224/224/224 226/226/226 227/227/227
f 226/226/226 228/228/228 227/227/227
f 228/228/228 226/226/226 229/229/229
f 228/228/228 229/229/229 230/230/230
f 230/230/230 231/231/231 228/228/228
f 230/230/230 232/232/232 231/231/231
f 233/233/233 232/232/232 230/230/230
f 233/233/233 234/234/234 232/232/232
f 235/235/235 234/234/234 233/233/233
f 235/235/235 233/233/233 236/236/236
f 235/235/235 237/237/237 234/234/234
f 236/236/236 238/238/238 235/235/235
f 235/235/235 239/239/239 237/237/237
f 235/235/235 221/221/221 239/239/239
f 240/240/240 235/235/235 238/238/238
f 241/241/241 221/221/221 235/235/235
f 235/235/235 240/240/240 241/241/241
f 241/241/241 242/242/242 221/221/221
f 241/241/241 243/243/243 242/242/242
f 242/242/242 243/243/243 244/244/244
f 245/245/245 242/242/242 244/244/244
f 244/244/244 243/243/243 246/246/246
f 243/243/243 247/247/247 246/246/246
f 246/246/246 247/247/247 248/248/248
f 247/247/247 249/249/249 248/248/248
f 241/241/241 250/250/250 243/243/243
f 243/243/243 250/250/250 247/247/247
f 251/251/251 249/249/249 247/247/247
f 250/250/250 251/251/251 247/247/247
f 250/250/250 241/241/241 252/252/252
f 252/252/252 241/241/241 240/240/240
f 251/251/251 253/253/253 249/249/249
f 253/253/253 254/254/254 249/249/249
f 251/251/251 255/255/255 253/253/253
f 250/250/250 256/256/256 251/251/251
f 255/255/255 251/251/251 256/256/256
f 250/250/250 252/252/252 256/256/256
f 256/256/256 257/257/257 255/255/255
f 256/256/256 252/252/252 257/257/257
f 257/257/257 252/252/252 258/258/258
f 252/252/252 240/240/240 258/258/258
f 258/258/258 240/240/240 259/259/259
f 259/259/259 240/240/240 260/260/260
f 261/261/261 258/258/258 259/259/259
f 264/264/264 263/263/263 262/262/262
f 262/262/262 263/263/263 265/265/265
f 262/262/262 265/265/265 266/266/266
f 262/262/262 266/266/266 267/267/267
f 262/262/262 267/267/267 268/268/268
f 271/271/271 270/270/270 269/269/269
f 271/271/271 272/272/272 270/270/270
f 272/272/272 273/273/273 270/270/270
f 274/274/274 273/273/273 272/272/272
f 274/274/274 275/275/275 273/273/273
f 276/276/276 275/275/275 274/274/274
f 275/275/275 276/276/276 277/277/277
f 277/277/277 276/276/276 278/278/278
f 281/281/281 280/280/280 279/279/279
f 282/282/282 281/281/281 279/279/279
f 283/283/283 281/281/281 282/282/282
f 279/279/279 284/284/284 282/282/282
f 284/284/284 279/279/279 285/285/285
f 286/286/286 284/284/284 285/285/285
f 287/287/287 283/283/283 282/282/282
f 287/287/287 282/282/282 284/284/284
f 288/288/288 283/283/283 287/287/287
f 289/289/289 288/288/288 287/287/287
f 286/286/286 290/290/290 284/284/284
f 286/286/286 291/291/291 290/290/290
f 292/292/292 290/290/290 291/291/291
f 293/293/293 287/287/287 284/284/284
f 290/290/290 293/293/293 284/284/284
f 287/287/287 294/294/294 289/289/289
f 294/294/294 287/287/287 293/293/293
f 294/294/294 295/295/295 289/289/289
f 294/294/294 112/112/112 295/295/295
f 294/294/294 110/110/110 112/112/112
f 292/292/292 296/296/296 290/290/290
f 293/293/293 290/290/290 296/296/296
f 296/296/296 294/294/294 293/293/293
f 110/110/110 294/294/294 296/296/296
f 297/297/297 296/296/296 292/292/292
f 298/298/298 110/110/110 296/296/296
f 297/297/297 298/298/298 296/296/296
f 301/301/301 300/300/300 299/299/299
f 300/300/300 302/302/302 299/299/299
f 299/299/299 302/302/302 303/303/303
f 302/302/302 300/300/300 304/304/304
f 302/302/302 305/305/305 303/303/303
f 303/303/303 305/305/305 306/306/306
f 307/307/307 302/302/302 304/304/304
f 305/305/305 302/302/302 307/307/307
f 305/305/305 308/308/308 306/306/306
f 306/306/306 308/308/308 309/309/309
f 308/308/308 310/310/310 309/309/309
f 308/308/308 305/305/305 311/311/311
f 311/311/311 305/305/305 307/307/307
f 310/310/310 308/308/308 312/312/312
f 312/312/312 308/308/308 311/311/311
f 313/313/313 310/310/310 312/312/312
f 314/314/314 313/313/313 312/312/312
f 315/315/315 307/307/307 304/304/304
f 316/316/316 315/315/315 304/304/304
f 315/315/315 316/316/316 317/317/317
f 318/318/318 312/312/312 311/311/311
f 318/318/318 314/314/314 312/312/312
f 319/319/319 311/311/311 307/307/307
f 315/315/315 319/319/319 307/307/307
f 319/319/319 318/318/318 311/311/311
f 320/320/320 315/315/315 317/317/317
f 319/319/319 315/315/315 320/320/320
f 317/317/317 321/321/321 320/320/320
f 314/314/314 318/318/318 322/322/322
f 323/323/323 314/314/314 322/322/322
f 318/318/318 319/319/319 324/324/324
f 324/324/324 319/319/319 320/320/320
f 322/322/322 318/318/318 324/324/324
f 321/321/321 325/325/325 320/320/320
f 320/320/320 325/325/325 324/324/324
f 325/325/325 321/321/321 326/326/326
f 322/322/322 327/327/327 323/323/323
f 327/327/327 328/328/328 323/323/323
f 324/324/324 329/329/329 322/322/322
f 325/325/325 329/329/329 324/324/324
f 329/329/329 327/327/327 322/322/322
f 330/330/330 325/325/325 326/326/326
f 329/329/329 325/325/325 330/330/330
f 327/327/327 329/329/329 330/330/330
f 328/328/328 327/327/327 330/330/330
f 331/331/331 330/330/330 326/326/326
f 332/332/332 328/328/328 330/330/330
f 330/330/330 331/331/331 332/332/332
f 335/335/335 334/334/334 333/333/333
f 333/333/333 334/334/334 336/336/336
f 337/337/337 333/333/333 336/336/336
f 338/338/338 337/337/337 336/336/336
f 338/338/338 336/336/336 339/339/339
f 340/340/340 338/338/338 339/339/339
f 340/340/340 341/341/341 338/338/338
f 339/339/339 342/342/342 340/340/340
f 342/342/342 339/339/339 343/343/343
f 341/341/341 340/340/340 344/344/344
f 340/340/340 342/342/342 344/344/344
f 344/344/344 345/345/345 341/341/341
f 341/341/341 345/345/345 346/346/346
f 347/347/347 344/344/344 342/342/342
f 348/348/348 342/342/342 343/343/343
f 342/342/342 348/348/348 347/347/347
f 343/343/343 349/349/349 348/348/348
f 349/349/349 347/347/347 348/348/348
f 350/350/350 344/344/344 347/347/347
f 351/351/351 344/344/344 350/350/350
f 343/343/343 352/352/352 349/349/349
f 352/352/352 343/343/343 353/353/353
f 354/354/354 352/352/352 353/353/353
f 353/353/353 355/355/355 354/354/354
f 356/356/356 352/352/352 354/354/354
f 356/356/356 349/349/349 352/352/352
f 357/357/357 356/356/356 354/354/354
f 349/349/349 358/358/358 347/347/347
f 350/350/350 347/347/347 358/358/358
f 351/351/351 350/350/350 359/359/359
f 360/360/360 351/351/351 359/359/359
f 360/360/360 359/359/359 361/361/361
f 359/359/359 362/362/362 361/361/361
f 350/350/350 362/362/362 359/359/359
f 358/358/358 362/362/362 350/350/350
f 363/363/363 358/358/358 349/349/349
f 358/358/358 363/363/363 362/362/362
f 349/349/349 356/356/356 363/363/363
f 362/362/362 363/363/363 364/364/364
f 356/356/356 357/357/357 365/365/365
f 356/356/356 365/365/365 363/363/363
f 365/365/365 364/364/364 363/363/363
f 357/357/357 366/366/366 365/365/365
f 364/364/364 365/365/365 367/367/367
f 365/365/365 366/366/366 367/367/367
f 366/366/366 368/368/368 367/367/367
f 371/371/371 370/370/370 369/369/369
f 370/370/370 372/372/372 369/369/369
f 369/369/369 372/372/372 373/373/373
f 372/372/372 370/370/370 374/374/374
f 372/372/372 375/375/375 373/373/373
f 373/373/373 375/375/375 376/376/376
f 377/377/377 372/372/372 374/374/374
f 375/375/375 372/372/372 377/377/377
f 378/378/378 377/377/377 374/374/374
f 378/378/378 379/379/379 377/377/377
f 380/380/380 378/378/378 374/374/374
f 378/378/378 380/380/380 381/381/381
f 382/382/382 378/378/378 381/381/381
f 379/379/379 378/378/378 382/382/382
f 381/381/381 383/383/383 382/382/382
f 384/384/384 375/375/375 377/377/377
f 379/379/379 384/384/384 377/377/377
f 375/375/375 385/385/385 376/376/376
f 385/385/385 375/375/375 384/384/384
f 383/383/383 386/386/386 382/382/382
f 386/386/386 383/383/383 387/387/387
f 385/385/385 388/388/388 376/376/376
f 388/388/388 389/389/389 376/376/376
f 390/390/390 385/385/385 384/384/384
f 388/388/388 385/385/385 390/390/390
f 384/384/384 379/379/379 390/390/390
f 391/391/391 388/388/388 390/390/390
f 392/392/392 391/391/391 390/390/390
f 393/393/393 392/392/392 390/390/390
f 379/379/379 393/393/393 390/390/390
f 392/392/392 393/393/393 394/394/394
f 393/393/393 379/379/379 394/394/394
f 395/395/395 392/392/392 394/394/394
f 396/396/396 379/379/379 382/382/382
f 382/382/382 386/386/386 396/396/396
f 379/379/379 396/396/396 394/394/394
f 394/394/394 397/397/397 395/395/395
f 397/397/397 398/398/398 395/395/395
f 396/396/396 399/399/399 394/394/394
f 386/386/386 399/399/399 396/396/396
f 399/399/399 397/397/397 394/394/394
f 398/398/398 397/397/397 400/400/400
f 397/397/397 399/399/399 400/400/400
f 399/399/399 386/386/386 400/400/400
f 401/401/401 398/398/398 400/400/400
f 400/400/400 386/386/386 387/387/387
f 402/402/402 401/401/401 400/400/400
f 400/400/400 387/387/387 402/402/402
f 405/405/405 404/404/404 403/403/403
f 406/406/406 404/404/404 405/405/405
f 406/406/406 407/407/407 404/404/404
f 406/406/406 408/408/408 407/407/407
f 406/406/406 405/405/405 409/409/409
f 408/408/408 406/406/406 410/410/410
f 410/410/410 406/406/406 409/409/409
f 411/411/411 408/408/408 410/410/410
f 410/410/410 412/412/412 411/411/411
f 409/409/409 413/413/413 410/410/410
f 412/412/412 410/410/410 413/413/413
f 413/413/413 409/409/409 414/414/414
f 412/412/412 413/413/413 415/415/415
f 414/414/414 415/415/415 413/413/413
f 416/416/416 412/412/412 415/415/415
f 415/415/415 417/417/417 416/416/416
f 417/417/417 415/415/415 418/418/418
f 415/415/415 419/419/419 418/418/418
f 415/415/415 414/414/414 419/419/419
f 420/420/420 418/418/418 419/419/419
f 419/419/419 414/414/414 420/420/420
f 414/414/414 421/421/421 420/420/420
f 424/424/424 423/423/423 422/422/422
f 423/423/423 425/425/425 422/422/422
f 422/422/422 425/425/425 426/426/426
f 425/425/425 427/427/427 426/426/426
f 426/426/426 427/427/427 428/428/428
f 427/427/427 429/429/429 428/428/428
f 428/428/428 429/429/429 430/430/430
f 429/429/429 431/431/431 430/430/430
f 430/430/430 431/431/431 432/432/432
f 431/431/431 433/433/433 432/432/432
f 432/432/432 433/433/433 434/434/434
f 433/433/433 435/435/435 434/434/434
f 438/438/438 437/437/437 436/436/436
f 439/439/439 438/438/438 436/436/436
f 440/440/440 438/438/438 439/439/439
f 441/441/441 440/440/440 439/439/439
f 442/442/442 440/440/440 441/441/441
f 443/443/443 442/442/442 441/441/441
f 444/444/444 442/442/442 443/443/443
f 445/445/445 444/444/444 443/443/443
f 446/446/446 444/444/444 445/445/445
f 447/447/447 446/446/446 445/445/445
f 448/448/448 446/446/446 447/447/447
f 449/449/449 448/448/448 447/447/447
f 452/452/452 451/451/451 450/450/450
f 451/451/451 453/453/453 450/450/450
f 450/450/450 453/453/453 454/454/454
f 453/453/453 455/455/455 454/454/454
f 454/454/454 455/455/455 456/456/456
f 455/455/455 457/457/457 456/456/456
f 456/456/456 457/457/457 458/458/458
f 457/457/457 459/459/459 458/458/458
f 458/458/458 459/459/459 460/460/460
f 459/459/459 461/461/461 460/460/460
f 460/460/460 461/461/461 462/462/462
f 461/461/461 463/463/463 462/462/462
f 466/466/466 465/465/465 464/464/464
f 467/467/467 466/466/466 464/464/464
f 468/468/468 466/466/466 467/467/467
f 469/469/469 468/468/468 467/467/467
f 470/470/470 468/468/468 469/469/469
f 471/471/471 470/470/470 469/469/469
f 472/472/472 470/470/470 471/471/471
f 473/473/473 472/472/472 471/471/471
f 474/474/474 472/472/472 473/473/473
f 475/475/475 474/474/474 473/473/473
f 476/476/476 474/474/474 475/475/475
f 477/477/477 476/476/476 475/475/475
f 480/480/480 479/479/479 478/478/478
f 481/481/481 478/478/478 479/479/479
f 481/481/481 482/482/482 478/478/478
f 482/482/482 481/481/481 483/483/483
f 484/484/484 482/482/482 483/483/483
f 484/484/484 485/485/485 482/482/482
f 485/485/485 484/484/484 486/486/486
f 487/487/487 482/482/482 485/485/485
f 488/488/488 478/478/478 482/482/482
f 489/489/489 478/478/478 488/488/488
f 482/482/482 487/487/487 490/490/490
f 491/491/491 490/490/490 487/487/487
f 488/488/488 482/482/482 492/492/492
f 493/493/493 488/488/488 492/492/492
f 493/493/493 492/492/492 491/491/491
f 494/494/494 488/488/488 493/493/493
f 495/495/495 493/493/493 491/491/491
f 496/496/496 493/493/493 495/495/495
f 495/495/495 491/491/491 497/497/497
f 497/497/497 491/491/491 498/498/498
f 491/491/491 499/499/499 498/498/498
f 491/491/491 487/487/487 500/500/500
f 500/500/500 499/499/499 491/491/491
f 500/500/500 487/487/487 501/501/501
f 499/499/499 500/500/500 502/502/502
f 502/502/502 500/500/500 501/501/501
f 505/505/505 504/504/504 503/503/503
f 505/505/505 503/503/503 506/506/506
f 506/506/506 507/507/507 505/505/505
f 508/508/508 506/506/506 503/503/503
f 509/509/509 507/507/507 506/506/506
f 508/508/508 510/510/510 506/506/506
f 511/511/511 510/510/510 508/508/508
f 511/511/511 512/512/512 510/510/510
f 513/513/513 512/512/512 511/511/511
f 513/513/513 514/514/514 512/512/512
f 514/514/514 515/515/515 512/512/512
f 512/512/512 515/515/515 516/516/516
f 509/509/509 506/506/506 517/517/517
f 517/517/517 518/518/518 509/509/509
f 519/519/519 517/517/517 506/506/506
f 506/506/506 520/520/520 519/519/519
f 512/512/512 519/519/519 520/520/520
f 516/516/516 521/521/521 512/512/512
f 512/512/512 521/521/521 519/519/519
f 521/521/521 516/516/516 522/522/522
f 521/521/521 523/523/523 519/519/519
f 522/522/522 523/523/523 521/521/521
f 526/526/526 525/525/525 524/524/524
f 527/527/527 526/526/526 524/524/524
f 527/527/527 524/524/524 528/528/528
f 524/524/524 529/529/529 528/528/528
f 527/527/527 530/530/530 526/526/526
f 530/530/530 531/531/531 526/526/526
f 532/532/532 531/531/531 530/530/530
f 532/532/532 530/530/530 533/533/533
f 527/527/527 533/533/533 530/530/530
f 533/533/533 534/534/534 532/532/532
f 535/535/535 534/534/534 533/533/533
f 527/527/527 528/528/528 536/536/536
f 527/527/527 536/536/536 533/533/533
f 533/533/533 536/536/536 535/535/535
f 528/528/528 537/537/537 536/536/536
f 536/536/536 537/537/537 535/535/535
f 540/540/540 539/539/539 538/538/538
f 541/541/541 540/540/540 538/538/538
f 544/544/544 543/543/543 542/542/542
f 543/543/543 545/545/545 542/542/542
f 548/548/548 547/547/547 546/546/546
f 547/547/547 549/549/549 546/546/546
f 552/552/552 551/551/551 550/550/550
f 553/553/553 552/552/552 550/550/550
f 556/556/556 555/555/555 554/554/554
f 554/554/554 557/557/557 556/556/556
f 560/560/560 559/559/559 558/558/558
f 561/561/561 560/560/560 558/558/558
f 564/564/564 563/563/563 562/562/562
f 565/565/565 563/563/563 564/564/564
f 565/565/565 564/564/564 566/566/566
f 566/566/566 564/564/564 567/567/567
f 568/568/568 566/566/566 567/567/567
f 568/568/568 569/569/569 566/566/566
f 565/565/565 566/566/566 569/569/569
f 569/569/569 568/568/568 570/570/570
f 571/571/571 569/569/569 570/570/570
f 569/569/569 571/571/571 572/572/572
f 565/565/565 569/569/569 572/572/572
f 572/572/572 571/571/571 573/573/573
f 574/574/574 572/572/572 573/573/573
f 565/565/565 572/572/572 574/574/574
f 565/565/565 574/574/574 563/563/563
f 563/563/563 574/574/574 575/575/575
f 578/578/578 577/577/577 576/576/576
f 577/577/577 578/578/578 579/579/579
f 582/582/582 581/581/581 580/580/580
f 583/583/583 581/581/581 582/582/582
f 586/586/586 585/585/585 584/584/584
f 584/584/584 587/587/587 586/586/586
f 586/586/586 588/588/588 585/585/585
f 586/586/586 587/587/587 589/589/589
f 588/588/588 586/586/586 590/590/590
f 591/591/591 586/586/586 589/589/589
f 590/590/590 586/586/586 591/591/591
f 589/589/589 592/592/592 591/591/591
f 593/593/593 590/590/590 591/591/591
f 592/592/592 594/594/594 591/591/591
f 594/594/594 593/593/593 591/591/591
f 594/594/594 592/592/592 595/595/595
f 593/593/593 594/594/594 596/596/596
f 597/597/597 594/594/594 595/595/595
f 596/596/596 594/594/594 597/597/597
f 598/598/598 597/597/597 595/595/595
f 599/599/599 596/596/596 597/597/597
f 597/597/597 598/598/598 600/600/600
f 599/599/599 597/597/597 600/600/600
f 603/603/603 602/602/602 601/601/601
f 604/604/604 603/603/603 601/601/601
f 605/605/605 604/604/604 601/601/601
f 602/602/602 606/606/606 601/601/601
f 606/606/606 605/605/605 601/601/601
f 602/602/602 605/605/605 606/606/606
f 609/609/609 608/608/608 607/607/607
f 608/608/608 610/610/610 607/607/607
f 610/610/610 608/608/608 611/611/611
f 609/609/609 612/612/612 608/608/608
f 612/612/612 609/609/609 613/613/613
f 614/614/614 611/611/611 608/608/608
f 612/612/612 614/614/614 608/608/608
f 613/613/613 615/615/615 612/612/612
f 612/612/612 615/615/615 614/614/614
f 613/613/613 616/616/616 615/615/615
f 617/617/617 615/615/615 616/616/616
f 615/615/615 617/617/617 618/618/618
f 618/618/618 614/614/614 615/615/615
f 619/619/619 618/618/618 617/617/617
f 620/620/620 611/611/611 614/614/614
f 618/618/618 620/620/620 614/614/614
f 619/619/619 620/620/620 618/618/618
f 620/620/620 621/621/621 611/611/611
f 619/619/619 622/622/622 620/620/620
f 621/621/621 620/620/620 622/622/622
f 625/625/625 624/624/624 623/623/623
f 623/623/623 624/624/624 626/626/626
f 626/626/626 627/627/627 623/623/623
f 625/625/625 623/623/623 628/628/628
f 628/628/628 629/629/629 625/625/625
f 630/630/630 623/623/623 627/627/627
f 628/628/628 623/623/623 630/630/630
f 629/629/629 628/628/628 631/631/631
f 628/628/628 630/630/630 631/631/631
f 629/629/629 631/631/631 632/632/632
f 633/633/633 632/632/632 631/631/631
f 631/631/631 634/634/634 633/633/633
f 634/634/634 631/631/631 630/630/630
f 635/635/635 633/633/633 634/634/634
f 636/636/636 630/630/630 627/627/627
f 634/634/634 630/630/630 636/636/636
f 635/635/635 634/634/634 636/636/636
f 636/636/636 627/627/627 637/637/637
f 635/635/635 636/636/636 638/638/638
f 637/637/637 638/638/638 636/636/636
f 641/641/641 640/640/640 639/639/639
f 640/640/640 642/642/642 639/639/639
f 643/643/643 641/641/641 639/639/639
f 639/639/639 642/642/642 643/643/643
f 644/644/644 641/641/641 643/643/643
f 642/642/642 644/644/644 643/643/643
f 647/647/647 646/646/646 645/645/645
f 648/648/648 647/647/647 645/645/645
f 645/645/645 646/646/646 649/649/649
f 650/650/650 647/647/647 648/648/648
f 651/651/651 650/650/650 648/648/648
f 646/646/646 652/652/652 649/649/649
f 649/649/649 652/652/652 653/653/653
f 647/647/647 654/654/654 646/646/646
f 647/647/647 650/650/650 654/654/654
f 652/652/652 646/646/646 654/654/654
f 655/655/655 654/654/654 650/650/650
f 655/655/655 650/650/650 651/651/651
f 652/652/652 654/654/654 656/656/656
f 652/652/652 656/656/656 653/653/653
f 657/657/657 655/655/655 651/651/651
f 653/653/653 656/656/656 658/658/658
f 659/659/659 655/655/655 657/657/657
f 659/659/659 654/654/654 655/655/655
f 660/660/660 659/659/659 657/657/657
f 656/656/656 661/661/661 658/658/658
f 661/661/661 656/656/656 654/654/654
f 658/658/658 661/661/661 662/662/662
f 663/663/663 659/659/659 660/660/660
f 663/663/663 654/654/654 659/659/659
f 664/664/664 663/663/663 660/660/660
f 661/661/661 665/665/665 662/662/662
f 665/665/665 661/661/661 654/654/654
f 662/662/662 665/665/665 666/666/666
f 667/667/667 663/663/663 664/664/664
f 663/663/663 667/667/667 654/654/654
f 668/668/668 667/667/667 664/664/664
f 666/666/666 669/669/669 668/668/668
f 665/665/665 669/669/669 666/666/666
f 669/669/669 665/665/665 654/654/654
f 669/669/669 667/667/667 668/668/668
f 669/669/669 654/654/654 667/667/667
f 672/672/672 671/671/671 670/670/670
f 673/673/673 672/672/672 670/670/670
f 674/674/674 672/672/672 673/673/673
f 670/670/670 671/671/671 675/675/675
f 671/671/671 676/676/676 675/675/675
f 670/670/670 677/677/677 673/673/673
f 675/675/675 677/677/677 670/670/670
f 678/678/678 674/674/674 673/673/673
f 678/678/678 673/673/673 677/677/677
f 679/679/679 677/677/677 675/675/675
f 675/675/675 676/676/676 679/679/679
f 678/678/678 677/677/677 680/680/680
f 681/681/681 674/674/674 678/678/678
f 680/680/680 681/681/681 678/678/678
f 676/676/676 682/682/682 679/679/679
f 683/683/683 681/681/681 680/680/680
f 679/679/679 682/682/682 684/684/684
f 679/679/679 684/684/684 677/677/677
f 682/682/682 685/685/685 684/684/684
f 686/686/686 683/683/683 680/680/680
f 686/686/686 680/680/680 677/677/677
f 687/687/687 683/683/683 686/686/686
f 684/684/684 685/685/685 688/688/688
f 688/688/688 677/677/677 684/684/684
f 685/685/685 689/689/689 688/688/688
f 690/690/690 687/687/687 686/686/686
f 686/686/686 677/677/677 690/690/690
f 691/691/691 687/687/687 690/690/690
f 688/688/688 689/689/689 692/692/692
f 688/688/688 692/692/692 677/677/677
f 689/689/689 693/693/693 692/692/692
f 694/694/694 690/690/690 677/677/677
f 694/694/694 691/691/691 690/690/690
f 692/692/692 694/694/694 677/677/677
f 693/693/693 691/691/691 694/694/694
f 692/692/692 693/693/693 694/694/694
