g skin1
v 0.0559409 1.2866406 -0.010069399
v 0.070513494 1.2670466 0.0032023
v 0.054910097 1.2357699 0.046276398
v -1.057236E-07 0.9990609 0.14727853
v -1.057236E-07 0.9942964 0.07527552
v 0.049138144 0.9895099 0.08048577
v 0.055274867 0.99097914 0.1338939
v 0.09595428 0.96758044 0.10256143
v 0.114893824 0.9464375 0.13838212
v 0.066122875 0.9707231 0.16493051
v -1.057236E-07 0.97672963 0.18102989
v 0.07697088 0.93470865 0.1780637
v -1.057236E-07 0.9305966 0.19159544
v -1.057236E-07 0.9305966 0.19159544
v -0.07696886 0.934709 0.1780637
v -1.057236E-07 0.97672963 0.18102989
v -0.066121966 0.9707233 0.16493051
v -1.057236E-07 0.9990609 0.14727853
v -0.11489404 0.9464375 0.13838212
v -0.05527508 0.99097914 0.1338939
v -1.057236E-07 0.9942964 0.07527552
v -0.095954485 0.96758044 0.10256143
v -0.049138356 0.9895099 0.08048577
v -0 1.0113395 0.23246445
v 0.04936751 1.0119094 0.22521988
v -1.5473081E-18 1.074788 0.06370537
v 0.11355302 1.049169 0.09660284
v 0.084862895 1.0162284 0.20992519
v 0.11616915 1.0254799 0.18913099
v 0.1149077 1.0132459 0.18883863
v 0.0971556 0.95741206 0.11506602
v 0.09418482 0.97721857 0.20079698
v -1.5347963E-18 0.9296711 0.08578018
v 0.04818582 0.9544626 0.21737581
v -0 0.9479247 0.22547187
v -0.09545021 1.0932683 0.19140498
v -0.1004034 1.0767572 0.19363247
v -0.16096564 1.0896624 0.13472207
v -0.083467096 1.1785761 0.1365088
v -0.08324329 1.1055893 0.19247678
v -0.066949956 1.1103479 0.19619831
v -0.05093599 1.1062689 0.2015724
v -0 1.1361977 0.19546065
v -0.03949233 1.0944452 0.20715907
v -0 1.1826912 0.15662499
v -0 1.0800263 0.22126254
v -0.035685286 1.0780452 0.21146137
v -0.040534962 1.061463 0.21332651
v -0 1.0113395 0.23246445
v -0.04936751 1.0119094 0.22521988
v -0.05274188 1.0491419 0.21225473
v -0.069035225 1.0443834 0.20853318
v -0.084862895 1.0162284 0.20992519
v -0.08504918 1.0484624 0.20315911
v -0.11616915 1.0254799 0.18913099
v -0.096698925 1.0604274 0.19829385
v -0.1004034 1.0767572 0.19363247
v -0 1.2167892 0.11350849
v -0.13958798 1.0359721 0.16984574
v -0.16096564 1.0896624 0.13472207
v -0.1149077 1.0132459 0.18883863
v -0.17953755 0.9965616 0.1465603
v -0.13722964 0.99894744 0.1739459
v -0.09418482 0.97721857 0.20079698
v -0.1098255 0.95270884 0.19514821
v -0.04818582 0.9544626 0.21737581
v -0.1651113 0.8886751 0.14620237
v -0.058894224 0.9309752 0.21294238
v -0 0.9479247 0.22547187
v -0 0.9227105 0.2245489
v -0 0.877115 0.21655616
v -0.08646635 0.87985283 0.1999485
v -0.08646635 0.87985283 0.1999485
v -0 0.8435616 0.20632753
v -0.08193605 0.8454554 0.19142105
v -0 0.8131865 0.19701461
v -0.15564965 0.85827947 0.14260279
v -0.0750406 0.81421953 0.18267675
v -0 0.73287505 0.1534135
v -0.22183079 0.9064711 -0.00014229999
v -0.17953755 0.9965616 0.1465603
v -0.23054484 0.99748236 2.1499998E-05
v -0.2106429 1.0899566 4.2099997E-05
v -0.19251028 0.82309824 -0.00018219999
v -0.13771169 1.1745785 0.089596294
v -0.1694697 1.1697166 5.4199998E-05
v -0.13881 0.81850207 0.13520427
v -0.100434944 0.73567635 0.1085749
v -0.0693727 1.2256129 0.069457695
v 0.0092883995 1.2428756 0.0568682
v -0.036259297 1.252239 0.0027667996
v -0.10440249 1.222028 5.38E-05
v -0.05976105 0.65203583 0.079311095
v -0 0.6483028 0.0980085
v -0.08258305 0.66012317 0
v -0.14067875 0.7403861 -0.00020479999
v -0.061336253 0.65989906 -0.082127735
v -0.10058333 0.74595386 -0.1142583
v -0 0.65953845 -0.102432735
v -0 0.74857026 -0.16010779
v -0.1353404 0.82830197 -0.14494689
v -0.22183079 0.9064711 -0.00014229999
v -0 0.83010256 -0.20325938
v -0.1563621 0.91002125 -0.1594722
v -0.23054484 0.99748236 2.1499998E-05
v -0 0.9107276 -0.22443458
v -0.16445363 1.003872 -0.16580568
v -0.2106429 1.0899566 4.2099997E-05
v -0 1.0038011 -0.228396
v -0.1501851 1.0867376 -0.15538089
v -0 1.0862659 -0.21484
v -0.12402529 1.1647487 -0.121697895
v -0 1.1646681 -0.17399079
v -0.0787993 1.2188724 -0.07636479
v 0.0071055996 1.2156154 -0.114557296
v 0.0286505 1.2486393 -0.064091094
v -0.0172407 1.252759 -0.051964797
v -0.036259297 1.252239 0.0027667996
v -0 1.0113395 0.23246445
v -1.5473081E-18 1.074788 0.06370537
v -0.04936751 1.0119094 0.22521988
v -0.11355302 1.049169 0.09660284
v -0.084862895 1.0162284 0.20992519
v -0.11616915 1.0254799 0.18913099
v -0.1149077 1.0132459 0.18883863
v -0.0971556 0.95741206 0.11506602
v -0.09418482 0.97721857 0.20079698
v -1.5347963E-18 0.9296711 0.08578018
v -0.04818582 0.9544626 0.21737581
v -0 0.9479247 0.22547187
v 0.068608895 1.2402223 -0.0391609
v 0.10440249 1.222028 5.38E-05
v 0.075965494 1.2331022 0.010108
v 0.083493195 1.2151948 -0.079969
v 0.0286505 1.2486393 -0.064091094
v 0.0071055996 1.2156154 -0.114557296
v 0.12402529 1.1647487 -0.121697895
v -0 1.1646681 -0.17399079
v 0.1694697 1.1697166 5.4199998E-05
v 0.1501851 1.0867376 -0.15538089
v -0 1.0862659 -0.21484
v 0.2106429 1.0899566 4.2099997E-05
v 0.23054484 0.99748236 2.1499998E-05
v 0.16445363 1.003872 -0.16580568
v -0 1.0038011 -0.228396
v 0.22183079 0.9064711 -0.0001425
v 0.1563613 0.91002136 -0.15947288
v -0 0.9107276 -0.22443458
v 0.1925101 0.82309824 -0.00018389999
v 0.13532509 0.82830215 -0.14495999
v -0 0.83010256 -0.20325938
v 0.100561336 0.7459543 -0.11427899
v -0 0.74857026 -0.16010779
v -0 0.65953845 -0.102432735
v 0.061336253 0.65989906 -0.082127735
v 0.14067854 0.7403861 -0.00020769998
v 0.08258305 0.66012317 0
v 0.10044743 0.7356766 0.10855769
v 0.05976105 0.65203583 0.079311095
v 0.13882509 0.81850255 0.13518517
v -0 0.73287505 0.1534135
v -0 0.6483028 0.0980085
v 0.0750727 0.81421953 0.18267675
v -0 0.8131865 0.19701461
v -0 0.8435616 0.20632753
v 0.15566038 0.85827994 0.14258935
v 0.22183079 0.9064711 -0.0001425
v 0.081956916 0.8454555 0.19142063
v -0 0.877115 0.21655616
v 0.086467825 0.8798529 0.19994825
v -0 0.9227105 0.2245489
v 0.1651129 0.88867515 0.14620043
v 0.17953753 0.99656165 0.1465603
v 0.23054484 0.99748236 2.1499998E-05
v 0.2106429 1.0899566 4.2099997E-05
v 0.16096559 1.0896626 0.1347221
v 0.058894224 0.9309752 0.21294238
v -0 0.9479247 0.22547187
v 0.04818582 0.9544626 0.21737581
v 0.1098255 0.95270884 0.19514821
v 0.09418482 0.97721857 0.20079698
v 0.13722964 0.99894744 0.1739459
v 0.1149077 1.0132459 0.18883863
v 0.13958798 1.0359721 0.16984574
v 0.11616915 1.0254799 0.18913099
v 0.13771169 1.1745785 0.089596294
v 0.083467096 1.1785761 0.1365088
v 0.0693289 1.2256266 0.069463
v 0.09545021 1.0932683 0.19140498
v 0.075965494 1.2331022 0.010108
v 0.054910097 1.2357699 0.046276398
v 0.0092883995 1.2428756 0.0568682
v -0 1.2167892 0.11350849
v -0 1.1826912 0.15662499
v -0 1.1361977 0.19546065
v 0.1004034 1.0767572 0.19363247
v 0.096698925 1.0604274 0.19829385
v 0.08504918 1.0484624 0.20315911
v 0.084862895 1.0162284 0.20992519
v 0.069035225 1.0443834 0.20853318
v 0.08324329 1.1055893 0.19247678
v 0.066949956 1.1103479 0.19619831
v 0.05093599 1.1062689 0.2015724
v 0.03949233 1.0944452 0.20715907
v 0.04936751 1.0119094 0.22521988
v 0.05274188 1.0491419 0.21225473
v -0 1.0800263 0.22126254
v 0.035685286 1.0780452 0.21146137
v 0.040534962 1.061463 0.21332651
v -0 1.0113395 0.23246445
v -0.08324329 1.1055893 0.19247678
v -0.06627204 1.1098689 0.19377722
v -0.08256538 1.1051103 0.19005568
v -0.066949956 1.1103479 0.19619831
v -0.050258078 1.1057898 0.1991513
v -0.05093599 1.1062689 0.2015724
v -0.038814418 1.0939661 0.20473799
v -0.03949233 1.0944452 0.20715907
v -0.035007376 1.077566 0.2090403
v -0.035685286 1.0780452 0.21146137
v -0.03985705 1.0609839 0.21090542
v -0.040534962 1.061463 0.21332651
v -0.052063968 1.0486629 0.20983364
v -0.05274188 1.0491419 0.21225473
v 0.08324329 1.1055893 0.19247678
v 0.094772294 1.0927892 0.18898389
v 0.08256538 1.1051103 0.19005568
v 0.09545021 1.0932683 0.19140498
v 0.099725485 1.0762781 0.19121139
v 0.1004034 1.0767572 0.19363247
v 0.09602101 1.0599483 0.19587275
v 0.096698925 1.0604274 0.19829385
v 0.08437127 1.0479833 0.20073801
v 0.08504918 1.0484624 0.20315911
v 0.06835731 1.0439043 0.20611212
v 0.069035225 1.0443834 0.20853318
v 0.052063968 1.0486629 0.20983364
v 0.05274188 1.0491419 0.21225473
v -0.09545021 1.0932683 0.19140498
v -0.08324329 1.1055893 0.19247678
v -0.08256538 1.1051103 0.19005568
v -0.094772294 1.0927892 0.18898389
v -0.1004034 1.0767572 0.19363247
v -0.099725485 1.0762781 0.19121139
v -0.096698925 1.0604274 0.19829385
v -0.09602101 1.0599483 0.19587275
v -0.08504918 1.0484624 0.20315911
v -0.08437127 1.0479833 0.20073801
v -0.069035225 1.0443834 0.20853318
v -0.06835731 1.0439043 0.20611212
v -0.05274188 1.0491419 0.21225473
v -0.052063968 1.0486629 0.20983364
v 0.05274188 1.0491419 0.21225473
v 0.03985705 1.0609839 0.21090542
v 0.052063968 1.0486629 0.20983364
v 0.040534962 1.061463 0.21332651
v 0.035007376 1.077566 0.2090403
v 0.035685286 1.0780452 0.21146137
v 0.038814418 1.0939661 0.20473799
v 0.03949233 1.0944452 0.20715907
v 0.050258078 1.1057898 0.1991513
v 0.05093599 1.1062689 0.2015724
v 0.06627204 1.1098689 0.19377722
v 0.066949956 1.1103479 0.19619831
v 0.08256538 1.1051103 0.19005568
v 0.08324329 1.1055893 0.19247678
v -0.41157848 0.9703394 0.0546427
v -0.40231398 0.9713118 0.044447996
v -0.40412095 0.9607761 0.0336575
v -0.41596887 0.9535088 0.0332011
v -0.43236125 0.9521978 0.044903398
v -0.43379915 0.96931416 0.061860897
v -0.45013672 0.96668726 0.0546427
v -0.44692725 0.95136625 0.0336575
v -0.458511 0.9654617 0.0336575
v -0.45013672 0.96668726 0.0126722995
v -0.43235543 0.9522529 0.0221834
v -0.4300261 0.9686298 0.0039799
v -0.41157848 0.9703394 0.0126722995
v -0.40231588 0.9713007 0.021943297
v 0.40231588 0.9713007 0.021943297
v 0.40412095 0.9607761 0.0336575
v 0.41157848 0.9703394 0.0126722995
v 0.41596887 0.9535088 0.0332011
v 0.43235543 0.9522529 0.0221834
v 0.4300261 0.9686298 0.0039799
v 0.45013672 0.96668726 0.0126722995
v 0.44692725 0.95136625 0.0336575
v 0.458511 0.9654617 0.0336575
v 0.45013672 0.96668726 0.0546427
v 0.43236125 0.9521978 0.044903398
v 0.43379915 0.96931416 0.061860897
v 0.41157848 0.9703394 0.0546427
v 0.40231398 0.9713118 0.044447996
v 0.068608895 1.2402223 -0.0391609
v 0.075965494 1.2331022 0.010108
v 0.08385389 1.2655736 -0.0249327
v 0.0488447 1.2700891 -0.06743129
v 0.07009009 1.2875906 -0.037028596
v 0.0286505 1.2486393 -0.064091094
v 0.0419393 1.2910575 -0.061969794
v 0.039792098 1.3112111 -0.030508498
v 0.0072502997 1.273365 -0.0606916
v -0.0172407 1.252759 -0.051964797
v 0.007527499 1.3003554 -0.048626497
v 0.0061768997 1.2724315 -0.0329304
v -0.036259297 1.252239 0.0027667996
v 0.030363498 1.322399 -0.0205318
v 0.064042695 1.3341336 -0.053237595
v -0.0070529995 1.2926586 -0.038166296
v 0.016325898 1.2742933 -0.0036595997
v 0.0092883995 1.2428756 0.0568682
v 0.0037697998 1.3165367 -0.013513899
v 0.040425397 1.3304758 -0.010403499
v 0.06762599 1.334699 -0.047484796
v 0.0834896 1.3422583 -0.0790587
v -0.0045255 1.2829534 -0.015109998
v 0.0559409 1.2866406 -0.010069399
v 0.054910097 1.2357699 0.046276398
v 0.0018802999 1.3087869 0.0057606
v 0.018239498 1.2935022 0.0127412
v 0.026407199 1.3231071 0.009399999
v 0.0512568 1.3194431 -0.010275899
v 0.06762599 1.334699 -0.047484796
v 0.040369797 1.3038726 0.0006707
v 0.06858369 1.3294476 -0.051051095
v 0.0834896 1.3422583 -0.0790587
v 0.064042695 1.3341336 -0.053237595
v 0.039792098 1.3112111 -0.030508498
v 0.07009009 1.2875906 -0.037028596
v 0.070513494 1.2670466 0.0032023
v 0.08385389 1.2655736 -0.0249327
v 0.075965494 1.2331022 0.010108
v 0.054910097 1.2357699 0.046276398
v 0.061336253 0.65989906 -0.082127735
v -0 0.65953845 -0.102432735
v -0 0.567661 -0.06431897
v 0.03670726 0.56784123 -0.047397576
v 0.052971456 0.56795335 0
v 0.08258305 0.66012317 0
v 0.028047098 0.47578356 -0.0322104
v -0 0.47578356 -0.046874598
v -0 0.38410857 -0.0365269
v 0.040411297 0.47578356 0
v 0.031490497 0.38410857 0
v 0.03602306 0.56773317 0.052946314
v 0.05976105 0.65203583 0.079311095
v 0.028208299 0.47578356 0.035127997
v -0 0.56753254 0.06900852
v -0 0.6483028 0.0980085
v -0 0.47578356 0.049624197
v 0.021981299 0.38410857 0.027373496
v -0 0.38410857 0.038669597
v -0 0.2924336 0.027715
v 0.0157543 0.2924336 0.019618899
v -0 0.21478988 0.0179883
v 0.011240999 0.21478988 0.0098095
v -0 0.13714628 0.0082616
v 0.022569599 0.2924336 0
v 0.0067277993 0.13714619 0
v -0 0.107333794 0
v -0 0.13714628 -0.0078038992
v -0 0.21478988 -0.016991599
v 0.014648699 0.21478988 0
v 0.011196 0.21478988 -0.008994699
v -0 0.2924336 -0.026179297
v 0.0156642 0.2924336 -0.017989399
v 0.021855699 0.38410857 -0.0250999
v -0.061336253 0.65989906 -0.082127735
v -0 0.567661 -0.06431897
v -0 0.65953845 -0.102432735
v -0.03670726 0.56784123 -0.047397576
v -0.08258305 0.66012317 0
v -0 0.47578356 -0.046874598
v -0.052966055 0.56795335 0
v -0.05976105 0.65203583 0.079311095
v -0.028047098 0.47578356 -0.0322104
v -0.03602306 0.56773317 0.052946314
v -0 0.6483028 0.0980085
v -0 0.56753254 0.06900852
v -0.0404 0.47578356 0
v -0.028208299 0.47578356 0.035127997
v -0 0.47578356 0.049624197
v -0 0.38410857 0.038669597
v -0.021855699 0.38410857 -0.0250999
v -0 0.38410857 -0.0365269
v -0 0.2924336 -0.026179297
v -0.031483795 0.38410857 0
v -0.021981299 0.38410857 0.027373496
v -0.0156642 0.2924336 -0.017989399
v -0 0.21478988 -0.016991599
v -0.0157543 0.2924336 0.019618899
v -0 0.2924336 0.027715
v -0.022567598 0.2924336 0
v -0.011196 0.21478988 -0.008994699
v -0 0.13714628 -0.0078038992
v -0.011240999 0.21478988 0.0098095
v -0 0.21478988 0.0179883
v -0.014647699 0.21478988 0
v -0.0067277993 0.13714619 0
v -0 0.107333794 0
v -0 0.13714628 0.0082616
v -0.194207 0.9545885 0.030617999
v -0.196641 0.97145754 0.011965799
v -0.22339049 0.97154003 0.015865898
v -0.0106954 0.96785206 -4.7073454E-15
v -0.24267538 0.95913154 0.0336412
v -0.24267538 0.9716225 0.019766
v -0.2967895 0.97167045 0.0205966
v -0.31221047 0.9608542 0.033634197
v -0.31221047 0.9716863 0.020870699
v -0.32763156 0.97170216 0.021144798
v -0.40231588 0.9713007 0.021943297
v -0.39973527 0.9632641 0.0336236
v -0.40412095 0.9607761 0.0336575
v -0.40231398 0.9713118 0.044447996
v -0.32763156 0.97172743 0.0452513
v -0.40023902 0.9803013 0.033599198
v -0.31221047 0.9827456 0.033605095
v -0.40264183 0.98529 0.0336575
v -0.40231588 0.9713007 0.021943297
v -0.32763156 0.97170216 0.021144798
v -0.31221047 0.9716863 0.020870699
v -0.2967895 0.97167045 0.0205966
v -0.2967895 0.9716931 0.045796495
v -0.24267538 0.971641 0.046622597
v -0.24267538 0.9842521 0.0336091
v -0.24267538 0.9716225 0.019766
v -0.22116008 0.9715126 0.0476693
v -0.22512498 0.98678935 0.0342308
v -0.22339049 0.97154003 0.015865898
v -0.196641 0.97145754 0.011965799
v -0.1921803 0.9713843 0.048715997
v -0.1941091 0.98936933 0.030619198
v 0.31221047 0.9716863 0.020870699
v 0.32763156 0.97170216 0.021144798
v 0.31221047 0.9827456 0.033605095
v 0.2967895 0.97167045 0.0205966
v 0.24267538 0.9716225 0.019766
v 0.40023902 0.9803013 0.033599198
v 0.40231588 0.9713007 0.021943297
v 0.40264183 0.98529 0.0336575
v 0.40231398 0.9713118 0.044447996
v 0.24267538 0.9842521 0.0336091
v 0.22339049 0.97154003 0.015865898
v 0.32763156 0.97172743 0.0452513
v 0.31221047 0.9608542 0.033634197
v 0.39973527 0.9632641 0.0336236
v 0.40412095 0.9607761 0.0336575
v 0.40231588 0.9713007 0.021943297
v 0.32763156 0.97170216 0.021144798
v 0.31221047 0.9716863 0.020870699
v 0.2967895 0.97167045 0.0205966
v 0.24267538 0.9716225 0.019766
v 0.2967895 0.9716931 0.045796495
v 0.24267538 0.95913154 0.0336412
v 0.22339049 0.97154003 0.015865898
v 0.24267538 0.971641 0.046622597
v 0.194207 0.9545885 0.030617999
v 0.196641 0.97145754 0.011965799
v 0.0106954 0.96785206 -4.7073454E-15
v 0.22512498 0.98678935 0.0342308
v 0.22116008 0.9715126 0.0476693
v 0.1941091 0.98936933 0.030619198
v 0.196641 0.97145754 0.011965799
v 0.1921803 0.9713843 0.048715997
v 0.41551587 0.9867102 0.015117099
v 0.40264183 0.98529 0.0336575
v 0.40231588 0.9713007 0.021943297
v 0.41157848 0.9703394 0.0126722995
v 0.4300261 0.9686298 0.0039799
v 0.4411891 0.98842126 0.014396699
v 0.45013672 0.96668726 0.0126722995
v 0.4271433 0.99605757 0.0336575
v 0.44829386 0.9895966 0.0336575
v 0.458511 0.9654617 0.0336575
v 0.45013672 0.96668726 0.0546427
v 0.4380875 0.9880952 0.0529182
v 0.43379915 0.96931416 0.061860897
v 0.41753456 0.98713315 0.052007195
v 0.40231398 0.9713118 0.044447996
v 0.41157848 0.9703394 0.0546427
v -0.41157848 0.9703394 0.0126722995
v -0.40231588 0.9713007 0.021943297
v -0.41551587 0.9867102 0.015117099
v -0.4300261 0.9686298 0.0039799
v -0.40264183 0.98529 0.0336575
v -0.4411891 0.98842126 0.014396699
v -0.45013672 0.96668726 0.0126722995
v -0.4271433 0.99605757 0.0336575
v -0.44829386 0.9895966 0.0336575
v -0.458511 0.9654617 0.0336575
v -0.45013672 0.96668726 0.0546427
v -0.4380875 0.9880952 0.0529182
v -0.43379915 0.96931416 0.061860897
v -0.41753456 0.98713315 0.052007195
v -0.40231398 0.9713118 0.044447996
v -0.41157848 0.9703394 0.0546427
v -0.05833115 1.0599704 0.20684241
v -0.052063968 1.0486629 0.20983364
v -0.06835731 1.0439043 0.20611212
v -0.0682004 1.057088 0.2045882
v -0.08437127 1.0479833 0.20073801
v -0.05093713 1.0674336 0.20749162
v -0.03985705 1.0609839 0.21090542
v -0.06781264 1.0772384 0.20172307
v -0.07790043 1.0595587 0.20133299
v -0.047999572 1.0774778 0.20636187
v -0.08495695 1.0668063 0.19838598
v -0.09602101 1.0599483 0.19587275
v -0.035007376 1.077566 0.2090403
v -0.099725485 1.0762781 0.19121139
v -0.050305583 1.0874118 0.20375587
v -0.038814418 1.0939661 0.20473799
v -0.087200835 1.0766976 0.1955625
v -0.094772294 1.0927892 0.18898389
v -0.057237275 1.0945735 0.20037189
v -0.050258078 1.1057898 0.1991513
v -0.08420058 1.0866988 0.19421324
v -0.08256538 1.1051103 0.19005568
v -0.06693731 1.0970443 0.19711667
v -0.06627204 1.1098689 0.19377722
v -0.07680656 1.0941619 0.19486246
v 0.038814418 1.0939661 0.20473799
v 0.050305583 1.0874118 0.20375587
v 0.047999572 1.0774778 0.20636187
v 0.035007376 1.077566 0.2090403
v 0.050258078 1.1057898 0.1991513
v 0.05093713 1.0674336 0.20749162
v 0.03985705 1.0609839 0.21090542
v 0.057237275 1.0945735 0.20037189
v 0.06627204 1.1098689 0.19377722
v 0.06781264 1.0772384 0.20172307
v 0.05833115 1.0599704 0.20684241
v 0.06693731 1.0970443 0.19711667
v 0.052063968 1.0486629 0.20983364
v 0.08256538 1.1051103 0.19005568
v 0.0682004 1.057088 0.2045882
v 0.06835731 1.0439043 0.20611212
v 0.07680656 1.0941619 0.19486246
v 0.094772294 1.0927892 0.18898389
v 0.07790043 1.0595587 0.20133299
v 0.08437127 1.0479833 0.20073801
v 0.08420058 1.0866988 0.19421324
v 0.099725485 1.0762781 0.19121139
v 0.08495695 1.0668063 0.19838598
v 0.09602101 1.0599483 0.19587275
v 0.087200835 1.0766976 0.1955625
vt 0.95167 0.094137
vt 0.95167 0.03882
vt 0.951671 0.007813
vt 0.8801569 0.9786854
vt 0.8801569 0.99169475
vt 0.9203425 0.9854449
vt 0.9336307 0.9748913
vt 0.967745 0.9580086
vt 0.9743812 0.9295959
vt 0.93969214 0.9396768
vt 0.8801569 0.9420401
vt 0.9412094 0.9050828
vt 0.8801569 0.893348
vt 0.8801569 0.893348
vt 0.9412065 0.90508306
vt 0.8801569 0.9420401
vt 0.93969077 0.939677
vt 0.8801569 0.9786854
vt 0.9743812 0.9295959
vt 0.9336307 0.9748913
vt 0.8801569 0.99169475
vt 0.967745 0.9580086
vt 0.9203425 0.9854449
vt 0.75687975 0.9889662
vt 0.77705115 0.98799384
vt 0.75687975 0.9585102
vt 0.8191704 0.96651345
vt 0.8072597 0.9874425
vt 0.8444798 0.9872182
vt 0.8493462 0.947656
vt 0.8120078 0.93310845
vt 0.81884295 0.9081949
vt 0.75687975 0.9246065
vt 0.78421867 0.8954906
vt 0.75687975 0.8914579
vt 0.10531604 0.72760516
vt 0.11022033 0.7111501
vt 0.18000147 0.7370786
vt 0.09585798 0.8226191
vt 0.09321234 0.7392762
vt 0.07705672 0.7430512
vt 0.061178174 0.73791856
vt 0.01309656 0.7686031
vt 0.049831267 0.7252535
vt 0.01309656 0.82200664
vt 0.01309656 0.7085981
vt 0.04605641 0.7084497
vt 0.05086506 0.69200975
vt 0.01309656 0.63781136
vt 0.058036458 0.639161
vt 0.06296879 0.6803386
vt 0.079124376 0.67656374
vt 0.09401032 0.64397794
vt 0.09500295 0.6816964
vt 0.1214503 0.65281296
vt 0.10655422 0.69433826
vt 0.11022033 0.7111501
vt 0.01309656 0.90725154
vt 0.15712489 0.6703751
vt 0.18000148 0.7370786
vt 0.11882397 0.63881254
vt 0.18870793 0.62797505
vt 0.15619403 0.6285541
vt 0.101274036 0.603301
vt 0.123474464 0.5782684
vt 0.060875017 0.57523966
vt 0.18993935 0.51540637
vt 0.07379539 0.54886484
vt 0.01309656 0.5681337
vt 0.01309656 0.5351066
vt 0.01309656 0.48699293
vt 0.09878941 0.4995293
vt 0.098871455 0.49950355
vt 0.01309656 0.43129063
vt 0.092337795 0.44952303
vt 0.01309656 0.4137012
vt 0.18604393 0.46695858
vt 0.08751863 0.40743887
vt 0.01309656 0.324224
vt 0.28962466 0.5334091
vt 0.18870792 0.6279751
vt 0.28962466 0.6281321
vt 0.28962466 0.74564046
vt 0.28962466 0.43304238
vt 0.18405211 0.8291456
vt 0.28962466 0.8391904
vt 0.18214852 0.4227634
vt 0.17673269 0.33686435
vt 0.10044996 0.9256797
vt 0.01309656 0.96855
vt 0.10993179 0.97236943
vt 0.27948776 0.9319193
vt 0.14231695 0.22586098
vt 0.01309656 0.22586098
vt 0.28962466 0.22586098
vt 0.28962466 0.359205
vt 0.4407007 0.22586098
vt 0.43092725 0.35509297
vt 0.57054687 0.22586098
vt 0.57054687 0.35009727
vt 0.42015725 0.43906534
vt 0.28962466 0.5334092
vt 0.57054687 0.4312517
vt 0.41328558 0.5473787
vt 0.28962466 0.6281321
vt 0.57054687 0.54606444
vt 0.4171634 0.6348592
vt 0.28962466 0.7456404
vt 0.57054687 0.6457978
vt 0.41749 0.7298663
vt 0.57054687 0.7196932
vt 0.42333335 0.8240743
vt 0.57054687 0.8154467
vt 0.43295425 0.918026
vt 0.57054687 0.92011833
vt 0.57054687 0.9741332
vt 0.46154174 0.97635007
vt 0.31419122 0.9690304
vt 0.75687975 0.9889662
vt 0.75687975 0.9585102
vt 0.77705115 0.9879939
vt 0.8191704 0.96651345
vt 0.8072597 0.98744243
vt 0.8444798 0.9872182
vt 0.8493462 0.94765604
vt 0.8120077 0.93310857
vt 0.81884295 0.9081949
vt 0.75687975 0.9246065
vt 0.78421867 0.8954906
vt 0.75687975 0.8914579
vt 0.46154174 0.97635
vt 0.27948776 0.9319193
vt 0.46154174 0.97635007
vt 0.43295425 0.918026
vt 0.57054687 0.9741332
vt 0.57054687 0.92011833
vt 0.42333335 0.82407427
vt 0.57054687 0.8154467
vt 0.28962466 0.8391904
vt 0.41749 0.7298663
vt 0.57054687 0.7196932
vt 0.28962466 0.7456404
vt 0.28962466 0.6281321
vt 0.41716337 0.6348592
vt 0.57054687 0.6457978
vt 0.28962466 0.5334092
vt 0.41328558 0.54737866
vt 0.57054687 0.54606444
vt 0.28962466 0.43304238
vt 0.42015722 0.4390653
vt 0.57054687 0.4312517
vt 0.43092725 0.35509297
vt 0.57054687 0.35009727
vt 0.57054687 0.22586098
vt 0.4407007 0.22586098
vt 0.28962466 0.359205
vt 0.28962466 0.22586098
vt 0.17673269 0.33686435
vt 0.14231695 0.22586098
vt 0.18214853 0.4227634
vt 0.01309656 0.324224
vt 0.01309656 0.22586098
vt 0.08751864 0.40743887
vt 0.01309656 0.4137012
vt 0.01309656 0.43129066
vt 0.18604395 0.46695858
vt 0.28962466 0.5334091
vt 0.092395306 0.4495669
vt 0.01309656 0.48699293
vt 0.09878941 0.4995293
vt 0.01309656 0.5351066
vt 0.18993936 0.51540637
vt 0.18870793 0.62797505
vt 0.28962466 0.6281321
vt 0.28962466 0.74564046
vt 0.18000148 0.7370786
vt 0.07379539 0.54886484
vt 0.01309656 0.5681337
vt 0.060875017 0.57523966
vt 0.123474464 0.5782684
vt 0.101274036 0.603301
vt 0.15619403 0.6285541
vt 0.11882397 0.63881254
vt 0.15712489 0.6703751
vt 0.1214503 0.65281296
vt 0.18405212 0.8291456
vt 0.09585798 0.8226191
vt 0.10044996 0.9256797
vt 0.10531604 0.72760516
vt 0.22818948 0.97184825
vt 0.10993178 0.9723694
vt 0.01309656 0.96855
vt 0.01309656 0.90752006
vt 0.01309656 0.8222752
vt 0.01309656 0.7686031
vt 0.11022033 0.7111501
vt 0.10655422 0.69433826
vt 0.09500295 0.6816964
vt 0.09401032 0.64397794
vt 0.079124376 0.67656374
vt 0.09321234 0.7392762
vt 0.07705671 0.7430512
vt 0.061178166 0.73791856
vt 0.049831267 0.7252535
vt 0.058036458 0.639161
vt 0.06296879 0.6803386
vt 0.01309656 0.7085981
vt 0.04605641 0.7084498
vt 0.05086506 0.69200975
vt 0.01309656 0.6378114
vt 0.07973672 0.70971936
vt 0.07780857 0.71009415
vt 0.07965142 0.7097718
vt 0.0778938 0.71004176
vt 0.07600296 0.7094133
vt 0.07608826 0.70936096
vt 0.07471854 0.7079118
vt 0.07480372 0.70785946
vt 0.07429928 0.7059919
vt 0.07438452 0.7059395
vt 0.07485766 0.704168
vt 0.074942954 0.7041157
vt 0.07624406 0.70292896
vt 0.0763293 0.7028766
vt 0.0798626 0.70960057
vt 0.08118696 0.7083851
vt 0.07979352 0.7096547
vt 0.08125604 0.70833105
vt 0.081743546 0.706541
vt 0.08181269 0.70648694
vt 0.08130623 0.70462245
vt 0.08137543 0.7045684
vt 0.07996363 0.70316577
vt 0.08003277 0.70311177
vt 0.078122444 0.70252496
vt 0.078191586 0.70247096
vt 0.07625485 0.702888
vt 0.07632399 0.70283395
vt 0.08112306 0.7084803
vt 0.07973672 0.70971936
vt 0.07965142 0.7097718
vt 0.08103783 0.70853263
vt 0.08169449 0.7066486
vt 0.0816092 0.70670086
vt 0.08128811 0.70472074
vt 0.08120281 0.7047732
vt 0.07997776 0.703235
vt 0.07989258 0.70328736
vt 0.078172155 0.70255417
vt 0.07808698 0.7026065
vt 0.0763293 0.7028766
vt 0.07624406 0.70292896
vt 0.07632399 0.70283395
vt 0.074861355 0.7041576
vt 0.07625485 0.702888
vt 0.074930556 0.7041035
vt 0.07431538 0.70599353
vt 0.07438452 0.7059395
vt 0.07476313 0.707904
vt 0.07483227 0.7078499
vt 0.07608468 0.70937693
vt 0.07615382 0.70932287
vt 0.07792587 0.7100177
vt 0.07799501 0.7099637
vt 0.07979352 0.7096547
vt 0.0798626 0.70960057
vt 0.652343 0.465773
vt 0.628906 0.428503
vt 0.628906 0.404598
vt 0.648923 0.394527
vt 0.705055 0.419852
vt 0.713335 0.468735
vt 0.759115 0.456034
vt 0.739943 0.394764
vt 0.785377 0.391521
vt 0.760128 0.33316
vt 0.704971 0.369146
vt 0.702921 0.308252
vt 0.649364 0.324792
vt 0.628906 0.351379
vt 0.628906 0.351379
vt 0.628906 0.404598
vt 0.649364 0.324792
vt 0.648923 0.394527
vt 0.704971 0.369146
vt 0.702921 0.308252
vt 0.760128 0.33316
vt 0.739943 0.394764
vt 0.785377 0.391521
vt 0.759115 0.456034
vt 0.705055 0.419852
vt 0.713335 0.468735
vt 0.652343 0.465773
vt 0.628906 0.428503
vt 0.672341 0.007813
vt 0.628906 0.007813
vt 0.628906 0.040745
vt 0.708827 0.048712
vt 0.628906 0.080662
vt 0.745313 0.007813
vt 0.690584 0.088073
vt 0.628906 0.171441
vt 0.767179 0.080662
vt 0.767179 0.007813
vt 0.745313 0.110307
vt 0.81826 0.080662
vt 0.817816 0.007813
vt 0.706857 0.19759
vt 0.706857 0.266697
vt 0.767179 0.110307
vt 0.861321 0.080662
vt 0.861321 0.007813
vt 0.78775 0.159301
vt 0.812844 0.19759
vt 0.781851 0.266697
vt 0.745313 0.306541
vt 0.836202 0.110307
vt 0.95167 0.094137
vt 0.951671 0.007813
vt 0.861321 0.145293
vt 0.896726 0.124301
vt 0.861321 0.165185
vt 0.926216 0.19759
vt 0.90227 0.266697
vt 0.923614 0.145293
vt 0.926216 0.266697
vt 0.926216 0.306541
vt 0.949251 0.266697
vt 0.992188 0.171441
vt 0.992188 0.080662
vt 0.95167 0.03882
vt 0.992188 0.040745
vt 0.992188 0.007813
vt 0.951671 0.007813
vt 0.8117503 0.84888804
vt 0.7659093 0.84888804
vt 0.77707446 0.75194454
vt 0.81737995 0.7535483
vt 0.8613515 0.75412697
vt 0.86182564 0.84888804
vt 0.82496154 0.6582086
vt 0.79202455 0.65500104
vt 0.8071147 0.56598973
vt 0.86082304 0.65936655
vt 0.8607946 0.5692561
vt 0.9085884 0.7535634
vt 0.915464 0.84888804
vt 0.8995214 0.6582388
vt 0.94882727 0.75189024
vt 0.96113414 0.84888804
vt 0.9325116 0.65489316
vt 0.890985 0.5684218
vt 0.9167213 0.56589997
vt 0.9026552 0.47690746
vt 0.88336694 0.47860405
vt 0.8885376 0.40122348
vt 0.87245625 0.40246063
vt 0.8728232 0.3255403
vt 0.8607395 0.47914568
vt 0.8606942 0.32631803
vt 0.86068714 0.2967092
vt 0.84896684 0.3255501
vt 0.83394355 0.40126422
vt 0.8607049 0.40273145
vt 0.8498099 0.4024546
vt 0.8205003 0.47697833
vt 0.83975947 0.47859195
vt 0.8328109 0.5683999
vt 0.8117503 0.84888804
vt 0.77707446 0.75194454
vt 0.7659093 0.84888804
vt 0.81737995 0.7535483
vt 0.86182564 0.84888804
vt 0.79202455 0.65500104
vt 0.8613515 0.75412697
vt 0.915464 0.84888804
vt 0.82496154 0.6582086
vt 0.9085884 0.7535634
vt 0.96113414 0.84888804
vt 0.94882727 0.75189024
vt 0.86082304 0.65936655
vt 0.8995214 0.6582388
vt 0.9325116 0.65489316
vt 0.9167213 0.56589997
vt 0.8328109 0.5683999
vt 0.8071147 0.56598973
vt 0.8205003 0.47697833
vt 0.8607946 0.5692561
vt 0.890985 0.5684218
vt 0.83975947 0.47859195
vt 0.83394355 0.40126422
vt 0.88336694 0.47860405
vt 0.9026552 0.47690746
vt 0.8607395 0.47914568
vt 0.8498099 0.4024546
vt 0.84896684 0.3255501
vt 0.87245625 0.40246063
vt 0.8885376 0.40122348
vt 0.8607049 0.40273145
vt 0.8606942 0.32631803
vt 0.86068714 0.2967092
vt 0.8728232 0.3255403
vt 0.613596 0.070222
vt 0.613596 0.017305
vt 0.535672 0.017305
vt 0.613596 0.112334244
vt 0.457305 0.070222
vt 0.457748 0.017305
vt 0.305964 0.017305
vt 0.262923 0.070222
vt 0.263025 0.017305
vt 0.219578 0.017305
vt 0.014598 0.017305
vt 0.035757 0.070222
vt 0.014598 0.070222
vt 0.014598 0.112221
vt 0.219755 0.1125
vt 0.035757 0.157375
vt 0.262923 0.157375
vt 0.014598 0.157375
vt 0.014598 0.202127
vt 0.219531 0.202127
vt 0.263025 0.202127
vt 0.305964 0.202127
vt 0.306121 0.112521
vt 0.457666 0.112353
vt 0.457305 0.157375
vt 0.457748 0.202127
vt 0.535631 0.112188
vt 0.531494 0.157375
vt 0.535672 0.202127
vt 0.613596 0.202127
vt 0.613596 0.112024
vt 0.613596 0.157375
vt 0.263025 0.202127
vt 0.219531 0.202127
vt 0.262923 0.157375
vt 0.305964 0.202127
vt 0.457748 0.202127
vt 0.035757 0.157375
vt 0.014598 0.202127
vt 0.014598 0.157375
vt 0.014598 0.112221
vt 0.457305 0.157375
vt 0.535672 0.202127
vt 0.219755 0.1125
vt 0.262923 0.070222
vt 0.035757 0.070222
vt 0.014598 0.070222
vt 0.014598 0.017305
vt 0.219578 0.017305
vt 0.263025 0.017305
vt 0.305964 0.017305
vt 0.457748 0.017305
vt 0.306121 0.112521
vt 0.457305 0.070222
vt 0.535672 0.017305
vt 0.457666 0.112353
vt 0.613596 0.070222
vt 0.613596 0.017305
vt 0.613596 0.11233426
vt 0.531494 0.157375
vt 0.535631 0.112188
vt 0.613596 0.157375
vt 0.613596 0.202127
vt 0.613596 0.112024
vt 0.659241 0.607608
vt 0.628906 0.551396
vt 0.628906 0.587909
vt 0.647496 0.620024
vt 0.702988 0.640392
vt 0.740952 0.604464
vt 0.759051 0.615311
vt 0.693478 0.559065
vt 0.760455 0.558847
vt 0.784538 0.561979
vt 0.758323 0.501885
vt 0.740638 0.513342
vt 0.713182 0.472979
vt 0.659933 0.510193
vt 0.629002 0.528489
vt 0.649369 0.497675
vt 0.647496 0.620024
vt 0.628906 0.587909
vt 0.659241 0.607608
vt 0.702988 0.640392
vt 0.628906 0.551396
vt 0.740952 0.604464
vt 0.759051 0.615311
vt 0.693478 0.559065
vt 0.760455 0.558847
vt 0.784538 0.561979
vt 0.758323 0.501885
vt 0.740638 0.513342
vt 0.713182 0.472979
vt 0.659933 0.510193
vt 0.629002 0.528489
vt 0.649369 0.497675
vt 0.66743904 0.91273475
vt 0.6559832 0.89286935
vt 0.6819351 0.8857149
vt 0.68235576 0.9086226
vt 0.7078919 0.89300376
vt 0.65652215 0.9240471
vt 0.63699025 0.91255015
vt 0.682737 0.93959385
vt 0.6972754 0.91281205
vt 0.65253025 0.9395282
vt 0.7083903 0.92417383
vt 0.7272294 0.91277057
vt 0.63004524 0.939484
vt 0.73402876 0.9397467
vt 0.65653306 0.9550301
vt 0.63700914 0.96645385
vt 0.7122984 0.9396793
vt 0.72691756 0.9666868
vt 0.6674579 0.9663989
vt 0.65601593 0.9862332
vt 0.70821106 0.9551641
vt 0.70792466 0.9863677
vt 0.68237746 0.97058856
vt 0.68197274 0.99352217
vt 0.6972942 0.9664763
vt 0.63700914 0.96645385
vt 0.65653306 0.9550301
vt 0.65253025 0.9395282
vt 0.63004524 0.939484
vt 0.65601593 0.9862332
vt 0.65652215 0.9240471
vt 0.63699025 0.91255015
vt 0.6674579 0.9663989
vt 0.68197274 0.99352217
vt 0.682737 0.93959385
vt 0.66743904 0.91273475
vt 0.68237746 0.97058856
vt 0.6559832 0.89286935
vt 0.70792466 0.9863677
vt 0.68235576 0.9086226
vt 0.6819351 0.8857149
vt 0.6972942 0.9664763
vt 0.72691756 0.9666868
vt 0.6972754 0.91281205
vt 0.7078919 0.89300376
vt 0.70821106 0.9551641
vt 0.73402876 0.9397467
vt 0.7083903 0.92417383
vt 0.7272294 0.91277057
vt 0.7122984 0.9396793
vn 0.5115662 0.5650651 0.6473032
vn 0.7216453 0.51955193 0.4574864
vn 0.44777516 0.7567631 0.47624257
vn -0 0.9409458 0.3385571
vn -0 0.9984621 -0.05543952
vn 0.2895582 0.954829 -0.06676561
vn 0.40627494 0.897865 0.1696439
vn 0.5229265 0.8512825 0.043197233
vn 0.59820604 0.6928749 0.40258405
vn 0.38804847 0.6897559 0.61127335
vn -1.3492246E-06 0.515273 0.85702604
vn 0.3414992 0.35861814 0.8687758
vn -1.7352783E-06 0.22324352 0.9747627
vn -1.7352783E-06 0.22324352 0.9747627
vn -0.3414973 0.35861123 0.8687793
vn -1.3492246E-06 0.515273 0.85702604
vn -0.3880465 0.6897509 0.61128026
vn -0 0.9409458 0.3385571
vn -0.59820294 0.6928709 0.40259555
vn -0.4062745 0.8978645 0.16964747
vn -0 0.9984621 -0.05543952
vn -0.5229265 0.8512825 0.043197233
vn -0.2895582 0.954829 -0.06676561
vn -0 0 1
vn -0 0 1
vn -0 -0.7802541 0.62546265
vn -0.6832149 -0.7266398 0.07219364
vn -0 0 1
vn -0 0 1
vn -0 0 1
vn -0.6982394 0.6295832 0.34071508
vn -0 0 1
vn -0 0.9457436 0.3249137
vn -0 0 1
vn -0 0 1
vn -0 0 1
vn -0 0 1
vn -0.72008663 0.34552023 0.60174006
vn -0.35845938 0.6462592 0.6736883
vn -0 0 1
vn -0 0 1
vn -0 0 1
vn -0 0.50697654 0.8619599
vn -0 0 1
vn -0 0.71670496 0.6973765
vn -0 0.24316582 0.9699847
vn -0 0 1
vn -0 0 1
vn -0 0 1
vn -0 0 1
vn -0 0 1
vn -0 0 1
vn -0 0 1
vn -0 0 1
vn -0 0 1
vn -0 0 1
vn -0 0 1
vn 0.0046593295 0.8484589 0.52924085
vn -0.61813486 0.09625377 0.78015673
vn -0.72008663 0.34552023 0.60174006
vn -0 0 1
vn -0.7732725 0.03803375 0.632932
vn -0.53953224 0.050096437 0.84047335
vn -0 0 1
vn -0.47302908 -0.0067061083 0.88102126
vn -0 0 1
vn -0.73592716 -0.18871799 0.65022826
vn -0.28553686 -0.084618516 0.9546247
vn -0 0 1
vn -0 -0.09660462 0.9953229
vn -4.8225274E-06 -0.21748109 0.9760645
vn -0.36922577 -0.20349996 0.90678555
vn -0.36922577 -0.20349996 0.90678555
vn -1.8603996E-05 -0.28887963 0.9573654
vn -0.38229212 -0.30559683 0.87204546
vn -3.213122E-05 -0.39047292 0.9206144
vn -0.78450185 -0.3487113 0.5127935
vn -0.3704857 -0.44687167 0.8142764
vn 7.116591E-06 -0.53671414 0.8437642
vn -0.97038877 -0.22089511 0.09772972
vn -0.7732725 0.03803375 0.632932
vn -0.99795794 0.060466263 -0.020584272
vn -0.9417811 0.3358698 -0.015487078
vn -0.9011543 -0.43035322 0.052125923
vn -0.6323079 0.67906255 0.37290865
vn -0.7783245 0.62723786 -0.027991472
vn -0.7430776 -0.46162683 0.48449606
vn -0.6585653 -0.53802204 0.52614063
vn -0.3260883 0.8780479 0.35028324
vn -0.025511248 0.90360606 0.42760402
vn -0.37690803 0.9199649 0.10772565
vn -0.51199406 0.8589883 0.0010848311
vn -0.60504466 -0.46726355 0.6446594
vn -0 -0.45888135 0.8884976
vn -0.8822774 -0.46787605 0.05175617
vn -0.84233147 -0.5389533 0.0026483072
vn -0.6853002 -0.4838956 -0.5442506
vn -0.5562011 -0.5061575 -0.65912443
vn -1.5853126E-05 -0.47320786 -0.88095075
vn -3.230253E-05 -0.5105624 -0.85984075
vn -0.6513376 -0.3971835 -0.6465327
vn -0.97038877 -0.22089511 0.09772972
vn -1.6579887E-05 -0.37344787 -0.9276512
vn -0.6919891 -0.19268124 -0.6957191
vn -0.99795794 0.060466263 -0.020584272
vn -4.1778817E-06 -0.16897081 -0.98562104
vn -0.7031246 0.05493454 -0.70894146
vn -0.9417811 0.3358698 -0.015487078
vn -0 0.052531783 -0.9986193
vn -0.66620743 0.3387803 -0.6643762
vn -0 0.3318536 -0.94333094
vn -0.548479 0.6349022 -0.5441232
vn 0.005634004 0.63153267 -0.7753288
vn -0.33143243 0.8223382 -0.4625066
vn 0.030463077 0.79461545 -0.60634834
vn 0.06282458 0.46500164 -0.88307786
vn -0.4651224 0.78081924 -0.41711202
vn -0.37690803 0.9199649 0.10772565
vn -0 0 1
vn -0 -0.7802541 0.62546265
vn -0 0 1
vn 0.6832149 -0.7266399 0.072193645
vn -0 0 1
vn -0 0 1
vn -0 0 1
vn 0.6982394 0.6295832 0.3407151
vn -0 0 1
vn -0 0.9457436 0.3249137
vn -0 0 1
vn -0 0 1
vn 0.7982811 0.34512952 -0.49359185
vn 0.5474988 0.83632874 0.028273413
vn 0.7877447 0.5735453 0.22473145
vn 0.4550678 0.7805286 -0.42858875
vn 0.06282458 0.46500164 -0.88307786
vn 0.030463077 0.79461545 -0.60634834
vn 0.5550724 0.6271635 -0.5464069
vn 0.005634004 0.63153267 -0.7753288
vn 0.779652 0.62562615 -0.027107669
vn 0.66620743 0.3387803 -0.6643762
vn -0 0.3318536 -0.94333094
vn 0.9417811 0.33586985 -0.015487062
vn 0.99795806 0.060465537 -0.020584643
vn 0.7031241 0.054934442 -0.708942
vn -0 0.052531783 -0.9986193
vn 0.9703929 -0.22087991 0.097722426
vn 0.6919776 -0.19268379 -0.69572973
vn -4.1778817E-06 -0.16897081 -0.98562104
vn 0.8995377 -0.43393078 0.050359156
vn 0.6941608 -0.4198203 -0.5847151
vn -1.6579887E-05 -0.37344787 -0.9276512
vn 0.56060946 -0.50284743 -0.6579221
vn -3.230253E-05 -0.5105624 -0.85984075
vn -1.5853126E-05 -0.47320786 -0.88095075
vn 0.68529147 -0.48389018 -0.54426634
vn 0.84420484 -0.5340553 -0.045859665
vn 0.8822747 -0.46788248 0.051743124
vn 0.658615 -0.5380435 0.52605647
vn 0.60505223 -0.4672541 0.6446591
vn 0.7431562 -0.46161222 0.48438936
vn 7.116591E-06 -0.53671414 0.8437642
vn -0 -0.45888135 0.8884976
vn 0.37056348 -0.446907 0.81422156
vn -3.213122E-05 -0.39047292 0.9206144
vn -1.8603996E-05 -0.28887963 0.9573654
vn 0.784564 -0.34864566 0.512743
vn 0.9703929 -0.22087991 0.097722426
vn 0.38235238 -0.30554917 0.87203574
vn -4.8225274E-06 -0.21748109 0.9760645
vn 0.38103852 -0.1783222 0.9071994
vn -0 -0.09660462 0.9953229
vn 0.74664897 -0.19301887 0.6365996
vn 0.7732733 0.03803393 0.6329312
vn 0.99795806 0.060465537 -0.020584643
vn 0.9417811 0.33586985 -0.015487062
vn 0.7200865 0.34552026 0.6017401
vn 0.25362417 -0.07342152 0.96451235
vn -0 0 1
vn -0 0 1
vn 0.46643555 -0.01667927 0.8843979
vn -0 0 1
vn 0.5395323 0.050096422 0.84047323
vn -0 0 1
vn 0.6181348 0.09625375 0.78015673
vn -0 0 1
vn 0.632273 0.67909014 0.37291753
vn 0.35845298 0.6462627 0.67368835
vn 0.34681484 0.87955534 0.32573286
vn -0 0 1
vn 0.7877447 0.5735453 0.22473145
vn 0.44777516 0.7567631 0.47624257
vn -0.025511248 0.90360606 0.42760402
vn 0.0046593295 0.8484589 0.52924085
vn -0 0.71670496 0.6973765
vn -0 0.50697654 0.8619599
vn -0 0 1
vn -0 0 1
vn -0 0 1
vn -0 0 1
vn -0 0 1
vn -0 0 1
vn -0 0 1
vn -0 0 1
vn -0 0 1
vn -0 0 1
vn -0 0 1
vn -0 0.24316582 0.9699847
vn -0 0 1
vn -0 0 1
vn -0 0 1
vn -0 0 1
vn -0 0 1
vn -0 0 1
vn -0 0 1
vn -0 0 1
vn -0 0 1
vn -0 0 1
vn -0 0 1
vn -0 0 1
vn -0 0 1
vn -0 0 1
vn -0 0 1
vn -0 0 1
vn -0 0 1
vn -0 0 1
vn -0 0 1
vn -0 0 1
vn -0 0 1
vn -0 0 1
vn -0 0 1
vn -0 0 1
vn -0 0 1
vn -0 0 1
vn -0 0 1
vn -0 0 1
vn -0 0 1
vn -0 0 1
vn -0 0 1
vn -0 0 1
vn -0 0 1
vn -0 0 1
vn -0 0 1
vn -0 0 1
vn -0 0 1
vn -0 0 1
vn -0 0 1
vn -0 0 1
vn -0 0 1
vn -0 0 1
vn -0 0 1
vn -0 0 1
vn -0 0 1
vn -0 0 1
vn -0 0 1
vn -0 0 1
vn -0 0 1
vn -0 0 1
vn -0 0 1
vn -0 0 1
vn -0 0 1
vn -0 0 1
vn -0 0 1
vn -0 0 1
vn -0 0 1
vn -0 0 1
vn -0 0 1
vn 0.5258583 -0.42783374 0.7351404
vn 0.6187407 -0.028397327 0.7850819
vn 0.57062024 -0.8211991 0.0049602413
vn 0.35285178 -0.93566704 -0.004760509
vn 0.043984473 -0.85158974 0.5223603
vn -0.0026786558 -0.09127801 0.99582183
vn -0.7125854 -0.19982961 0.6725252
vn -0.39322677 -0.9194413 -0.0006298934
vn -0.9896986 -0.14316663 0
vn -0.7270068 -0.23322976 -0.64580566
vn 0.054885235 -0.8632933 -0.50170934
vn 0.04562861 -0.12025248 -0.99169415
vn 0.5456978 -0.44933912 -0.7073248
vn 0.627103 -0.05504436 -0.776989
vn -0.627103 -0.05504436 -0.776989
vn -0.5706202 -0.8211991 0.0049602585
vn -0.54569775 -0.4493391 -0.70732486
vn -0.35285178 -0.93566704 -0.0047605145
vn -0.054885235 -0.8632933 -0.50170934
vn -0.045628622 -0.12025245 -0.99169415
vn 0.7270068 -0.23322976 -0.64580566
vn 0.39322677 -0.9194413 -0.00062988175
vn 0.9896986 -0.14316663 0
vn 0.71258533 -0.1998296 0.6725253
vn -0.04398448 -0.8515897 0.5223604
vn 0.0026786628 -0.091277994 0.99582183
vn -0.5258582 -0.4278338 0.73514044
vn -0.61874074 -0.028397342 0.7850819
vn 0.7982811 0.34512952 -0.49359185
vn 0.7877447 0.5735453 0.22473145
vn 0.9774556 0.11249606 -0.17867637
vn 0.43549016 0.02743302 -0.89977545
vn 0.7530448 0.64267576 -0.14103682
vn 0.06282458 0.46500164 -0.88307786
vn 0.1738804 0.58363986 -0.7931772
vn 0.5982361 0.40012026 -0.69427466
vn -0.53282326 0.18720368 -0.82526004
vn -0.4651224 0.78081924 -0.41711202
vn -0.3033211 0.69290274 -0.65412694
vn -0.9894097 0.14311866 -0.024198186
vn -0.37690803 0.9199649 0.10772565
vn -0.37202895 0.7526366 -0.54326093
vn -0.6490497 0.44464028 -0.6172759
vn -0.97464514 0.07005661 -0.21250607
vn -0.5317698 0.21996076 0.81782526
vn -0.025511248 0.90360606 0.42760402
vn -0.55277175 0.82105476 -0.14252156
vn -0.026063522 0.99146944 0.12770653
vn 0.5901894 0.69357544 0.41307312
vn 0.7456995 0.6219452 -0.2389906
vn -0.79184663 -0.4986646 0.35257983
vn 0.5115662 0.5650651 0.6473032
vn 0.44777516 0.7567631 0.47624257
vn -0.812667 0.26696458 0.5179791
vn -0.028628435 -0.29553455 0.954903
vn 0.12744884 0.5754005 0.8078806
vn 0.88189924 -0.063878186 0.4670904
vn 0.5901894 0.69357544 0.41307312
vn 0.7871217 -0.008407344 0.61674035
vn 0.58649534 -0.78936994 -0.18143432
vn 0.7456995 0.6219452 -0.2389906
vn -0.6490497 0.44464028 -0.6172759
vn 0.5982361 0.40012026 -0.69427466
vn 0.7530448 0.64267576 -0.14103682
vn 0.7216453 0.51955193 0.4574864
vn 0.9774556 0.11249606 -0.17867637
vn 0.7877447 0.5735453 0.22473145
vn 0.44777516 0.7567631 0.47624257
vn 0.68529147 -0.48389018 -0.54426634
vn -1.5853126E-05 -0.47320786 -0.88095075
vn -0 -0.3066883 -0.95181
vn 0.7138934 -0.27833074 -0.6425637
vn 0.971518 -0.23681802 -0.008371414
vn 0.8822747 -0.46788248 0.051743124
vn 0.73936206 -0.1347875 -0.6596788
vn -0 -0.15481126 -0.9879441
vn -0 -0.112160906 -0.99369
vn 0.99271107 -0.11965965 -0.014365986
vn 0.995171 -0.0968396 -0.016026154
vn 0.71787125 -0.27190042 0.64088297
vn 0.60505223 -0.4672541 0.6446591
vn 0.74560827 -0.142924 0.6508772
vn -0 -0.29263234 0.9562251
vn -0 -0.45888135 0.8884976
vn -0 -0.16870533 0.98566645
vn 0.7508691 -0.10614235 0.6518662
vn -0 -0.11864973 0.9929362
vn -0 -0.13006048 0.99150604
vn 0.76155 -0.1109677 0.6385356
vn -0 -0.14594881 0.98929214
vn 0.8026691 -0.11145109 0.58591896
vn -0 -0.20518269 0.97872376
vn 0.9949426 -0.09915855 -0.016024008
vn 0.98747337 -0.15720545 -0.013517301
vn -0 -0.9979944 -0.06330119
vn -0 -0.1939647 -0.9810084
vn -0 -0.13687715 -0.99058807
vn 0.9947089 -0.1014763 -0.016020877
vn 0.7905554 -0.1070739 -0.6029571
vn -0 -0.12252831 -0.992465
vn 0.7525963 -0.10605096 -0.649886
vn 0.7429067 -0.10149301 -0.6616561
vn -0.6853002 -0.4838956 -0.5442506
vn -0 -0.3066883 -0.95181
vn -1.5853126E-05 -0.47320786 -0.88095075
vn -0.7139261 -0.27834857 -0.6425198
vn -0.8822774 -0.46787605 0.05175617
vn -0 -0.15481126 -0.9879441
vn -0.9715145 -0.23683237 -0.008368067
vn -0.60504466 -0.46726355 0.6446594
vn -0.7394375 -0.13479275 -0.6595931
vn -0.71790135 -0.27191815 0.64084184
vn -0 -0.45888135 0.8884976
vn -0 -0.29263234 0.9562251
vn -0.9927126 -0.11964795 -0.014358147
vn -0.7456777 -0.14292842 0.65079665
vn -0 -0.16870533 0.98566645
vn -0 -0.11864973 0.9929362
vn -0.7429821 -0.10148404 -0.6615729
vn -0 -0.112160906 -0.99369
vn -0 -0.12252831 -0.992465
vn -0.99517447 -0.09680475 -0.016019328
vn -0.750939 -0.106132664 0.6517872
vn -0.75264144 -0.106044754 -0.64983493
vn -0 -0.13687715 -0.99058807
vn -0.76159173 -0.11096105 0.638487
vn -0 -0.13006048 0.99150604
vn -0.994945 -0.099135675 -0.016019868
vn -0.79058504 -0.10707105 -0.60291874
vn -0 -0.1939647 -0.9810084
vn -0.8026962 -0.111447915 0.5858825
vn -0 -0.14594881 0.98929214
vn -0.9947103 -0.10146364 -0.016017927
vn -0.9874743 -0.15719977 -0.013516161
vn -0 -0.9979944 -0.06330119
vn -0 -0.20518269 0.97872376
vn -0.03543085 -0.9993 0.012011029
vn -0.11290779 -0.009148921 -0.9935634
vn -0.16766514 -0.21808767 -0.9614188
vn 0.98386705 -0.17169893 -0.050250318
vn -0.07719706 -0.99679595 0.020936726
vn -0.10302919 0.0025899396 -0.9946749
vn -0.01961624 -0.0049890783 -0.99979514
vn -0.01742403 -0.9942222 -0.105917275
vn -0.01777716 -0.0056824787 -0.9998259
vn -0.020800795 0.23114447 -0.97269714
vn 0.627103 -0.05504436 -0.776989
vn 0.25135675 -0.9677108 0.018856848
vn 0.57062024 -0.8211991 0.0049602413
vn 0.6187407 -0.028397327 0.7850819
vn -0.020193536 0.21771449 0.9758035
vn 0.37236524 0.92792445 0.017329417
vn -0.01924666 0.9935807 -0.111476906
vn 0.74845755 0.66294014 0.01793663
vn 0.627103 -0.05504436 -0.776989
vn -0.020800795 0.23114447 -0.97269714
vn -0.01777716 -0.0056824787 -0.9998259
vn -0.01961624 -0.0049890783 -0.99979514
vn -0.019116169 -0.0028616607 0.99981326
vn -0.049769152 -0.014938085 0.99864906
vn -0.07135698 0.9968881 0.033498835
vn -0.10302919 0.0025899396 -0.9946749
vn -0.04485265 -0.2247688 0.9733793
vn -0.10298207 0.9935082 0.048334137
vn -0.16766514 -0.21808767 -0.9614188
vn -0.11290779 -0.009148921 -0.9935634
vn 0.1208268 -0.024978144 0.99235934
vn 0.017806314 0.99965847 0.01912661
vn 0.01777716 -0.0056824787 -0.9998259
vn 0.020800795 0.23114447 -0.97269714
vn 0.01924666 0.9935807 -0.1114769
vn 0.01961624 -0.0049890783 -0.99979514
vn 0.10302919 0.002589895 -0.9946749
vn -0.37236527 0.92792445 0.017329417
vn -0.627103 -0.05504436 -0.776989
vn -0.74845755 0.66294014 0.01793664
vn -0.61874074 -0.028397342 0.7850819
vn 0.07135698 0.9968881 0.033498835
vn 0.16766514 -0.21808767 -0.9614188
vn 0.02019354 0.21771449 0.9758036
vn 0.01742403 -0.9942222 -0.10591728
vn -0.25135675 -0.9677108 0.018856848
vn -0.5706202 -0.8211991 0.0049602585
vn -0.627103 -0.05504436 -0.776989
vn 0.020800795 0.23114447 -0.97269714
vn 0.01777716 -0.0056824787 -0.9998259
vn 0.01961624 -0.0049890783 -0.99979514
vn 0.10302919 0.002589895 -0.9946749
vn 0.019116173 -0.002861683 0.99981326
vn 0.077197045 -0.99679595 0.020936713
vn 0.16766514 -0.21808767 -0.9614188
vn 0.049769152 -0.014938065 0.99864906
vn 0.03543084 -0.9993 0.012011029
vn 0.11290779 -0.009148921 -0.9935634
vn -0.98386705 -0.17169893 -0.05025053
vn 0.10298207 0.9935082 0.048334137
vn 0.04485264 -0.22476874 0.9733793
vn -0.017806314 0.99965847 0.01912661
vn 0.11290779 -0.009148921 -0.9935634
vn -0.1208268 -0.024978144 0.99235934
vn -0.43897784 0.60207987 -0.666932
vn -0.74845755 0.66294014 0.01793664
vn -0.627103 -0.05504436 -0.776989
vn -0.54569775 -0.4493391 -0.70732486
vn -0.045628622 -0.12025245 -0.99169415
vn 0.33632228 0.69919693 -0.6308812
vn 0.7270068 -0.23322976 -0.64580566
vn -0.06289362 0.99791044 0.014800426
vn 0.7509836 0.6596023 0.03079512
vn 0.9896986 -0.14316663 0
vn 0.71258533 -0.1998296 0.6725253
vn 0.30963278 0.6985393 0.64511263
vn 0.0026786628 -0.091277994 0.99582183
vn -0.4098501 0.6082518 0.6797444
vn -0.61874074 -0.028397342 0.7850819
vn -0.5258582 -0.4278338 0.73514044
vn 0.5456978 -0.44933912 -0.7073248
vn 0.627103 -0.05504436 -0.776989
vn 0.43897787 0.60207987 -0.666932
vn 0.04562861 -0.12025248 -0.99169415
vn 0.74845755 0.66294014 0.01793663
vn -0.33632228 0.69919693 -0.6308812
vn -0.7270068 -0.23322976 -0.64580566
vn 0.06289362 0.99791044 0.014800425
vn -0.7509836 0.6596023 0.030795125
vn -0.9896986 -0.14316663 0
vn -0.7125854 -0.19982961 0.6725252
vn -0.3096328 0.69853926 0.64511263
vn -0.0026786558 -0.09127801 0.99582183
vn 0.40985015 0.60825187 0.6797444
vn 0.6187407 -0.028397327 0.7850819
vn 0.5258583 -0.42783374 0.7351404
vn -0 0 1
vn -0 0 1
vn -0 0 1
vn -0 0 1
vn -0 0 1
vn -0 0 1
vn -0 0 1
vn -0 0 1
vn -0 0 1
vn -0 0 1
vn -0 0 1
vn -0 0 1
vn -0 0 1
vn -0 0 1
vn -0 0 1
vn -0 0 1
vn -0 0 1
vn -0 0 1
vn -0 0 1
vn -0 0 1
vn -0 0 1
vn -0 0 1
vn -0 0 1
vn -0 0 1
vn -0 0 1
vn -0 0 1
vn -0 0 1
vn -0 0 1
vn -0 0 1
vn -0 0 1
vn -0 0 1
vn -0 0 1
vn -0 0 1
vn -0 0 1
vn -0 0 1
vn -0 0 1
vn -0 0 1
vn -0 0 1
vn -0 0 1
vn -0 0 1
vn -0 0 1
vn -0 0 1
vn -0 0 1
vn -0 0 1
vn -0 0 1
vn -0 0 1
vn -0 0 1
vn -0 0 1
vn -0 0 1
vn -0 0 1
g skin1_0
f 3/3/3 2/2/2 1/1/1
f 6/6/6 5/5/5 4/4/4
f 7/7/7 6/6/6 4/4/4
f 7/7/7 8/8/8 6/6/6
f 7/7/7 9/9/9 8/8/8
f 4/4/4 10/10/10 7/7/7
f 10/10/10 9/9/9 7/7/7
f 10/10/10 4/4/4 11/11/11
f 9/9/9 10/10/10 12/12/12
f 11/11/11 12/12/12 10/10/10
f 11/11/11 13/13/13 12/12/12
f 16/16/16 15/15/15 14/14/14
f 15/15/15 16/16/16 17/17/17
f 17/17/17 16/16/16 18/18/18
f 17/17/17 19/19/19 15/15/15
f 17/17/17 18/18/18 20/20/20
f 19/19/19 17/17/17 20/20/20
f 20/20/20 18/18/18 21/21/21
f 20/20/20 22/22/22 19/19/19
f 23/23/23 20/20/20 21/21/21
f 22/22/22 20/20/20 23/23/23
f 26/26/26 25/25/25 24/24/24
f 25/25/25 26/26/26 27/27/27
f 27/27/27 28/28/28 25/25/25
f 28/28/28 27/27/27 29/29/29
f 27/27/27 30/30/30 29/29/29
f 26/26/26 31/31/31 27/27/27
f 27/27/27 31/31/31 30/30/30
f 30/30/30 31/31/31 32/32/32
f 31/31/31 26/26/26 33/33/33
f 31/31/31 34/34/34 32/32/32
f 34/34/34 31/31/31 33/33/33
f 33/33/33 35/35/35 34/34/34
f 38/38/38 37/37/37 36/36/36
f 39/39/39 38/38/38 36/36/36
f 39/39/39 36/36/36 40/40/40
f 39/39/39 40/40/40 41/41/41
f 39/39/39 41/41/41 42/42/42
f 39/39/39 42/42/42 43/43/43
f 43/43/43 42/42/42 44/44/44
f 39/39/39 43/43/43 45/45/45
f 43/43/43 44/44/44 46/46/46
f 46/46/46 44/44/44 47/47/47
f 46/46/46 47/47/47 48/48/48
f 48/48/48 49/49/49 46/46/46
f 48/48/48 50/50/50 49/49/49
f 50/50/50 48/48/48 51/51/51
f 52/52/52 50/50/50 51/51/51
f 50/50/50 52/52/52 53/53/53
f 53/53/53 52/52/52 54/54/54
f 54/54/54 55/55/55 53/53/53
f 54/54/54 56/56/56 55/55/55
f 55/55/55 56/56/56 57/57/57
f 45/45/45 58/58/58 39/39/39
f 59/59/59 55/55/55 57/57/57
f 59/59/59 57/57/57 60/60/60
f 55/55/55 59/59/59 61/61/61
f 59/59/59 60/60/60 62/62/62
f 63/63/63 61/61/61 59/59/59
f 59/59/59 62/62/62 63/63/63
f 63/63/63 64/64/64 61/61/61
f 62/62/62 65/65/65 63/63/63
f 64/64/64 63/63/63 65/65/65
f 66/66/66 64/64/64 65/65/65
f 65/65/65 62/62/62 67/67/67
f 66/66/66 65/65/65 68/68/68
f 65/65/65 67/67/67 68/68/68
f 68/68/68 69/69/69 66/66/66
f 68/68/68 70/70/70 69/69/69
f 70/70/70 68/68/68 71/71/71
f 68/68/68 72/72/72 71/71/71
f 67/67/67 72/72/72 68/68/68
f 74/74/74 71/71/71 73/73/73
f 75/75/75 74/74/74 73/73/73
f 74/74/74 75/75/75 76/76/76
f 73/73/73 67/67/67 77/77/77
f 75/75/75 73/73/73 77/77/77
f 75/75/75 78/78/78 76/76/76
f 75/75/75 77/77/77 78/78/78
f 76/76/76 78/78/78 79/79/79
f 80/80/80 77/77/77 67/67/67
f 81/81/81 80/80/80 67/67/67
f 80/80/80 81/81/81 82/82/82
f 81/81/81 38/38/38 82/82/82
f 38/38/38 83/83/83 82/82/82
f 77/77/77 80/80/80 84/84/84
f 38/38/38 85/85/85 83/83/83
f 38/38/38 39/39/39 85/85/85
f 85/85/85 86/86/86 83/83/83
f 77/77/77 87/87/87 78/78/78
f 77/77/77 84/84/84 87/87/87
f 79/79/79 78/78/78 88/88/88
f 88/88/88 78/78/78 87/87/87
f 39/39/39 89/89/89 85/85/85
f 89/89/89 39/39/39 58/58/58
f 90/90/90 89/89/89 58/58/58
f 91/91/91 89/89/89 90/90/90
f 92/92/92 89/89/89 91/91/91
f 92/92/92 85/85/85 89/89/89
f 86/86/86 85/85/85 92/92/92
f 88/88/88 93/93/93 79/79/79
f 79/79/79 93/93/93 94/94/94
f 93/93/93 88/88/88 95/95/95
f 96/96/96 88/88/88 87/87/87
f 95/95/95 88/88/88 96/96/96
f 95/95/95 96/96/96 97/97/97
f 96/96/96 87/87/87 84/84/84
f 97/97/97 96/96/96 98/98/98
f 98/98/98 96/96/96 84/84/84
f 99/99/99 97/97/97 98/98/98
f 99/99/99 98/98/98 100/100/100
f 101/101/101 98/98/98 84/84/84
f 100/100/100 98/98/98 101/101/101
f 84/84/84 102/102/102 101/101/101
f 103/103/103 100/100/100 101/101/101
f 102/102/102 104/104/104 101/101/101
f 101/101/101 104/104/104 103/103/103
f 102/102/102 105/105/105 104/104/104
f 104/104/104 106/106/106 103/103/103
f 105/105/105 107/107/107 104/104/104
f 104/104/104 107/107/107 106/106/106
f 105/105/105 108/108/108 107/107/107
f 107/107/107 109/109/109 106/106/106
f 108/108/108 110/110/110 107/107/107
f 107/107/107 110/110/110 109/109/109
f 108/108/108 86/86/86 110/110/110
f 110/110/110 111/111/111 109/109/109
f 86/86/86 112/112/112 110/110/110
f 110/110/110 112/112/112 111/111/111
f 112/112/112 113/113/113 111/111/111
f 112/112/112 86/86/86 92/92/92
f 113/113/113 112/112/112 114/114/114
f 114/114/114 112/112/112 92/92/92
f 115/115/115 113/113/113 114/114/114
f 115/115/115 114/114/114 116/116/116
f 116/116/116 114/114/114 117/117/117
f 114/114/114 92/92/92 117/117/117
f 117/117/117 92/92/92 118/118/118
f 121/121/121 120/120/120 119/119/119
f 120/120/120 121/121/121 122/122/122
f 122/122/122 121/121/121 123/123/123
f 122/122/122 123/123/123 124/124/124
f 125/125/125 122/122/122 124/124/124
f 126/126/126 120/120/120 122/122/122
f 126/126/126 122/122/122 125/125/125
f 127/127/127 126/126/126 125/125/125
f 126/126/126 128/128/128 120/120/120
f 126/126/126 127/127/127 129/129/129
f 126/126/126 129/129/129 128/128/128
f 128/128/128 129/129/129 130/130/130
f 133/133/133 132/132/132 131/131/131
f 131/131/131 132/132/132 134/134/134
f 131/131/131 134/134/134 135/135/135
f 136/136/136 135/135/135 134/134/134
f 136/136/136 134/134/134 137/137/137
f 138/138/138 136/136/136 137/137/137
f 134/134/134 132/132/132 139/139/139
f 137/137/137 134/134/134 139/139/139
f 137/137/137 140/140/140 138/138/138
f 140/140/140 141/141/141 138/138/138
f 139/139/139 142/142/142 137/137/137
f 142/142/142 140/140/140 137/137/137
f 142/142/142 143/143/143 140/140/140
f 140/140/140 144/144/144 141/141/141
f 143/143/143 144/144/144 140/140/140
f 144/144/144 145/145/145 141/141/141
f 144/144/144 143/143/143 146/146/146
f 145/145/145 144/144/144 147/147/147
f 147/147/147 144/144/144 146/146/146
f 148/148/148 145/145/145 147/147/147
f 147/147/147 146/146/146 149/149/149
f 148/148/148 147/147/147 150/150/150
f 150/150/150 147/147/147 149/149/149
f 151/151/151 148/148/148 150/150/150
f 150/150/150 152/152/152 151/151/151
f 152/152/152 153/153/153 151/151/151
f 153/153/153 152/152/152 154/154/154
f 152/152/152 155/155/155 154/154/154
f 156/156/156 152/152/152 150/150/150
f 152/152/152 156/156/156 155/155/155
f 156/156/156 150/150/150 149/149/149
f 157/157/157 155/155/155 156/156/156
f 156/156/156 158/158/158 157/157/157
f 159/159/159 157/157/157 158/158/158
f 160/160/160 156/156/156 149/149/149
f 156/156/156 160/160/160 158/158/158
f 158/158/158 161/161/161 159/159/159
f 159/159/159 161/161/161 162/162/162
f 158/158/158 163/163/163 161/161/161
f 160/160/160 163/163/163 158/158/158
f 161/161/161 163/163/163 164/164/164
f 165/165/165 164/164/164 163/163/163
f 149/149/149 166/166/166 160/160/160
f 160/160/160 166/166/166 163/163/163
f 166/166/166 149/149/149 167/167/167
f 168/168/168 165/165/165 163/163/163
f 166/166/166 168/168/168 163/163/163
f 165/165/165 168/168/168 169/169/169
f 168/168/168 170/170/170 169/169/169
f 168/168/168 166/166/166 170/170/170
f 171/171/171 169/169/169 170/170/170
f 166/166/166 167/167/167 172/172/172
f 166/166/166 172/172/172 170/170/170
f 173/173/173 172/172/172 167/167/167
f 173/173/173 167/167/167 174/174/174
f 173/173/173 174/174/174 175/175/175
f 176/176/176 173/173/173 175/175/175
f 176/176/176 175/175/175 139/139/139
f 177/177/177 171/171/171 170/170/170
f 177/177/177 178/178/178 171/171/171
f 178/178/178 177/177/177 179/179/179
f 180/180/180 170/170/170 172/172/172
f 180/180/180 177/177/177 170/170/170
f 180/180/180 179/179/179 177/177/177
f 180/180/180 172/172/172 173/173/173
f 179/179/179 180/180/180 181/181/181
f 182/182/182 181/181/181 180/180/180
f 180/180/180 173/173/173 182/182/182
f 182/182/182 183/183/183 181/181/181
f 184/184/184 182/182/182 173/173/173
f 182/182/182 184/184/184 183/183/183
f 184/184/184 173/173/173 176/176/176
f 185/185/185 183/183/183 184/184/184
f 186/186/186 176/176/176 139/139/139
f 132/132/132 186/186/186 139/139/139
f 187/187/187 176/176/176 186/186/186
f 186/186/186 188/188/188 187/187/187
f 188/188/188 186/186/186 132/132/132
f 176/176/176 187/187/187 189/189/189
f 132/132/132 190/190/190 188/188/188
f 191/191/191 188/188/188 190/190/190
f 192/192/192 188/188/188 191/191/191
f 193/193/193 188/188/188 192/192/192
f 188/188/188 193/193/193 187/187/187
f 194/194/194 187/187/187 193/193/193
f 195/195/195 187/187/187 194/194/194
f 184/184/184 176/176/176 196/196/196
f 176/176/176 189/189/189 196/196/196
f 184/184/184 196/196/196 185/185/185
f 185/185/185 196/196/196 197/197/197
f 198/198/198 185/185/185 197/197/197
f 198/198/198 199/199/199 185/185/185
f 199/199/199 198/198/198 200/200/200
f 187/187/187 201/201/201 189/189/189
f 187/187/187 202/202/202 201/201/201
f 187/187/187 203/203/203 202/202/202
f 203/203/203 187/187/187 195/195/195
f 195/195/195 204/204/204 203/203/203
f 205/205/205 199/199/199 200/200/200
f 205/205/205 200/200/200 206/206/206
f 204/204/204 195/195/195 207/207/207
f 204/204/204 207/207/207 208/208/208
f 205/205/205 206/206/206 209/209/209
f 207/207/207 209/209/209 208/208/208
f 205/205/205 209/209/209 210/210/210
f 210/210/210 209/209/209 207/207/207
f 213/213/213 212/212/212 211/211/211
f 212/212/212 214/214/214 211/211/211
f 212/212/212 215/215/215 214/214/214
f 215/215/215 216/216/216 214/214/214
f 215/215/215 217/217/217 216/216/216
f 217/217/217 218/218/218 216/216/216
f 217/217/217 219/219/219 218/218/218
f 219/219/219 220/220/220 218/218/218
f 219/219/219 221/221/221 220/220/220
f 221/221/221 222/222/222 220/220/220
f 221/221/221 223/223/223 222/222/222
f 223/223/223 224/224/224 222/222/222
f 227/227/227 226/226/226 225/225/225
f 226/226/226 228/228/228 225/225/225
f 226/226/226 229/229/229 228/228/228
f 229/229/229 230/230/230 228/228/228
f 229/229/229 231/231/231 230/230/230
f 231/231/231 232/232/232 230/230/230
f 231/231/231 233/233/233 232/232/232
f 233/233/233 234/234/234 232/232/232
f 233/233/233 235/235/235 234/234/234
f 235/235/235 236/236/236 234/234/234
f 235/235/235 237/237/237 236/236/236
f 237/237/237 238/238/238 236/236/236
f 241/241/241 240/240/240 239/239/239
f 242/242/242 241/241/241 239/239/239
f 242/242/242 239/239/239 243/243/243
f 244/244/244 242/242/242 243/243/243
f 244/244/244 243/243/243 245/245/245
f 246/246/246 244/244/244 245/245/245
f 246/246/246 245/245/245 247/247/247
f 248/248/248 246/246/246 247/247/247
f 248/248/248 247/247/247 249/249/249
f 250/250/250 248/248/248 249/249/249
f 250/250/250 249/249/249 251/251/251
f 252/252/252 250/250/250 251/251/251
f 255/255/255 254/254/254 253/253/253
f 254/254/254 256/256/256 253/253/253
f 254/254/254 257/257/257 256/256/256
f 257/257/257 258/258/258 256/256/256
f 257/257/257 259/259/259 258/258/258
f 259/259/259 260/260/260 258/258/258
f 259/259/259 261/261/261 260/260/260
f 261/261/261 262/262/262 260/260/260
f 261/261/261 263/263/263 262/262/262
f 263/263/263 264/264/264 262/262/262
f 263/263/263 265/265/265 264/264/264
f 265/265/265 266/266/266 264/264/264
f 269/269/269 268/268/268 267/267/267
f 270/270/270 269/269/269 267/267/267
f 270/270/270 267/267/267 271/271/271
f 267/267/267 272/272/272 271/271/271
f 271/271/271 272/272/272 273/273/273
f 274/274/274 271/271/271 273/273/273
f 270/270/270 271/271/271 274/274/274
f 273/273/273 275/275/275 274/274/274
f 274/274/274 275/275/275 276/276/276
f 276/276/276 277/277/277 274/274/274
f 270/270/270 274/274/274 277/277/277
f 276/276/276 278/278/278 277/277/277
f 277/277/277 278/278/278 279/279/279
f 270/270/270 277/277/277 279/279/279
f 270/270/270 279/279/279 269/269/269
f 279/279/279 280/280/280 269/269/269
f 283/283/283 282/282/282 281/281/281
f 284/284/284 282/282/282 283/283/283
f 284/284/284 283/283/283 285/285/285
f 285/285/285 283/283/283 286/286/286
f 287/287/287 285/285/285 286/286/286
f 287/287/287 288/288/288 285/285/285
f 284/284/284 285/285/285 288/288/288
f 288/288/288 287/287/287 289/289/289
f 290/290/290 288/288/288 289/289/289
f 288/288/288 290/290/290 291/291/291
f 284/284/284 288/288/288 291/291/291
f 291/291/291 290/290/290 292/292/292
f 293/293/293 291/291/291 292/292/292
f 284/284/284 291/291/291 293/293/293
f 284/284/284 293/293/293 282/282/282
f 282/282/282 293/293/293 294/294/294
f 297/297/297 296/296/296 295/295/295
f 297/297/297 295/295/295 298/298/298
f 299/299/299 297/297/297 298/298/298
f 300/300/300 298/298/298 295/295/295
f 299/299/299 298/298/298 301/301/301
f 302/302/302 299/299/299 301/301/301
f 300/300/300 303/303/303 298/298/298
f 301/301/301 298/298/298 303/303/303
f 303/303/303 300/300/300 304/304/304
f 302/302/302 301/301/301 305/305/305
f 301/301/301 303/303/303 305/305/305
f 304/304/304 306/306/306 303/303/303
f 306/306/306 304/304/304 307/307/307
f 308/308/308 302/302/302 305/305/305
f 308/308/308 309/309/309 302/302/302
f 303/303/303 310/310/310 305/305/305
f 306/306/306 310/310/310 303/303/303
f 307/307/307 311/311/311 306/306/306
f 312/312/312 311/311/311 307/307/307
f 305/305/305 313/313/313 308/308/308
f 313/313/313 305/305/305 310/310/310
f 309/309/309 308/308/308 314/314/314
f 308/308/308 313/313/313 314/314/314
f 314/314/314 315/315/315 309/309/309
f 309/309/309 315/315/315 316/316/316
f 310/310/310 306/306/306 317/317/317
f 311/311/311 317/317/317 306/306/306
f 312/312/312 318/318/318 311/311/311
f 319/319/319 318/318/318 312/312/312
f 320/320/320 313/313/313 310/310/310
f 320/320/320 310/310/310 317/317/317
f 317/317/317 311/311/311 321/321/321
f 317/317/317 321/321/321 320/320/320
f 311/311/311 318/318/318 321/321/321
f 313/313/313 320/320/320 322/322/322
f 322/322/322 314/314/314 313/313/313
f 321/321/321 322/322/322 320/320/320
f 323/323/323 314/314/314 322/322/322
f 324/324/324 314/314/314 323/323/323
f 321/321/321 325/325/325 322/322/322
f 318/318/318 325/325/325 321/321/321
f 323/323/323 322/322/322 325/325/325
f 324/324/324 323/323/323 326/326/326
f 327/327/327 324/324/324 326/326/326
f 327/327/327 326/326/326 328/328/328
f 326/326/326 329/329/329 328/328/328
f 323/323/323 329/329/329 326/326/326
f 325/325/325 329/329/329 323/323/323
f 325/325/325 318/318/318 329/329/329
f 329/329/329 318/318/318 330/330/330
f 331/331/331 330/330/330 318/318/318
f 330/330/330 331/331/331 332/332/332
f 333/333/333 332/332/332 331/331/331
f 333/333/333 331/331/331 334/334/334
f 337/337/337 336/336/336 335/335/335
f 338/338/338 337/337/337 335/335/335
f 339/339/339 338/338/338 335/335/335
f 340/340/340 339/339/339 335/335/335
f 337/337/337 338/338/338 341/341/341
f 342/342/342 337/337/337 341/341/341
f 343/343/343 342/342/342 341/341/341
f 338/338/338 339/339/339 344/344/344
f 341/341/341 338/338/338 344/344/344
f 344/344/344 345/345/345 341/341/341
f 346/346/346 339/339/339 340/340/340
f 347/347/347 346/346/346 340/340/340
f 344/344/344 339/339/339 348/348/348
f 345/345/345 344/344/344 348/348/348
f 339/339/339 346/346/346 348/348/348
f 349/349/349 346/346/346 347/347/347
f 350/350/350 349/349/349 347/347/347
f 346/346/346 349/349/349 351/351/351
f 348/348/348 346/346/346 351/351/351
f 352/352/352 348/348/348 351/351/351
f 352/352/352 345/345/345 348/348/348
f 353/353/353 352/352/352 351/351/351
f 352/352/352 353/353/353 354/354/354
f 355/355/355 352/352/352 354/354/354
f 345/345/345 352/352/352 355/355/355
f 354/354/354 356/356/356 355/355/355
f 356/356/356 357/357/357 355/355/355
f 357/357/357 356/356/356 358/358/358
f 359/359/359 345/345/345 355/355/355
f 355/355/355 357/357/357 359/359/359
f 360/360/360 357/357/357 358/358/358
f 360/360/360 358/358/358 361/361/361
f 361/361/361 362/362/362 360/360/360
f 362/362/362 363/363/363 360/360/360
f 357/357/357 364/364/364 359/359/359
f 364/364/364 357/357/357 360/360/360
f 363/363/363 365/365/365 360/360/360
f 365/365/365 364/364/364 360/360/360
f 365/365/365 363/363/363 366/366/366
f 359/359/359 364/364/364 367/367/367
f 364/364/364 365/365/365 367/367/367
f 367/367/367 365/365/365 366/366/366
f 345/345/345 359/359/359 367/367/367
f 366/366/366 343/343/343 367/367/367
f 368/368/368 345/345/345 367/367/367
f 343/343/343 368/368/368 367/367/367
f 345/345/345 368/368/368 341/341/341
f 368/368/368 343/343/343 341/341/341
f 371/371/371 370/370/370 369/369/369
f 370/370/370 372/372/372 369/369/369
f 369/369/369 372/372/372 373/373/373
f 372/372/372 370/370/370 374/374/374
f 372/372/372 375/375/375 373/373/373
f 373/373/373 375/375/375 376/376/376
f 377/377/377 372/372/372 374/374/374
f 375/375/375 372/372/372 377/377/377
f 375/375/375 378/378/378 376/376/376
f 376/376/376 378/378/378 379/379/379
f 378/378/378 380/380/380 379/379/379
f 378/378/378 375/375/375 381/381/381
f 381/381/381 375/375/375 377/377/377
f 380/380/380 378/378/378 382/382/382
f 382/382/382 378/378/378 381/381/381
f 383/383/383 380/380/380 382/382/382
f 384/384/384 383/383/383 382/382/382
f 385/385/385 377/377/377 374/374/374
f 386/386/386 385/385/385 374/374/374
f 385/385/385 386/386/386 387/387/387
f 388/388/388 381/381/381 377/377/377
f 385/385/385 388/388/388 377/377/377
f 389/389/389 382/382/382 381/381/381
f 389/389/389 384/384/384 382/382/382
f 388/388/388 389/389/389 381/381/381
f 390/390/390 385/385/385 387/387/387
f 388/388/388 385/385/385 390/390/390
f 387/387/387 391/391/391 390/390/390
f 384/384/384 389/389/389 392/392/392
f 393/393/393 384/384/384 392/392/392
f 389/389/389 388/388/388 394/394/394
f 394/394/394 388/388/388 390/390/390
f 392/392/392 389/389/389 394/394/394
f 391/391/391 395/395/395 390/390/390
f 390/390/390 395/395/395 394/394/394
f 395/395/395 391/391/391 396/396/396
f 392/392/392 397/397/397 393/393/393
f 397/397/397 398/398/398 393/393/393
f 394/394/394 399/399/399 392/392/392
f 395/395/395 399/399/399 394/394/394
f 399/399/399 397/397/397 392/392/392
f 400/400/400 395/395/395 396/396/396
f 399/399/399 395/395/395 400/400/400
f 397/397/397 399/399/399 400/400/400
f 398/398/398 397/397/397 400/400/400
f 401/401/401 400/400/400 396/396/396
f 402/402/402 398/398/398 400/400/400
f 400/400/400 401/401/401 402/402/402
f 405/405/405 404/404/404 403/403/403
f 404/404/404 406/406/406 403/403/403
f 405/405/405 403/403/403 407/407/407
f 407/407/407 408/408/408 405/405/405
f 409/409/409 408/408/408 407/407/407
f 410/410/410 409/409/409 407/407/407
f 410/410/410 411/411/411 409/409/409
f 412/412/412 411/411/411 410/410/410
f 412/412/412 410/410/410 413/413/413
f 410/410/410 414/414/414 413/413/413
f 415/415/415 413/413/413 414/414/414
f 414/414/414 416/416/416 415/415/415
f 417/417/417 416/416/416 414/414/414
f 410/410/410 417/417/417 414/414/414
f 418/418/418 416/416/416 417/417/417
f 417/417/417 419/419/419 418/418/418
f 420/420/420 416/416/416 418/418/418
f 421/421/421 420/420/420 418/418/418
f 422/422/422 421/421/421 418/418/418
f 418/418/418 419/419/419 422/422/422
f 419/419/419 423/423/423 422/422/422
f 424/424/424 423/423/423 419/419/419
f 410/410/410 425/425/425 417/417/417
f 419/419/419 417/417/417 425/425/425
f 425/425/425 410/410/410 426/426/426
f 419/419/419 425/425/425 426/426/426
f 410/410/410 407/407/407 426/426/426
f 424/424/424 419/419/419 427/427/427
f 427/427/427 419/419/419 426/426/426
f 428/428/428 424/424/424 427/427/427
f 429/429/429 426/426/426 407/407/407
f 426/426/426 429/429/429 427/427/427
f 429/429/429 407/407/407 403/403/403
f 427/427/427 430/430/430 428/428/428
f 429/429/429 430/430/430 427/427/427
f 430/430/430 431/431/431 428/428/428
f 431/431/431 430/430/430 432/432/432
f 403/403/403 433/433/433 429/429/429
f 429/429/429 433/433/433 430/430/430
f 403/403/403 406/406/406 433/433/433
f 430/430/430 434/434/434 432/432/432
f 433/433/433 434/434/434 430/430/430
f 434/434/434 406/406/406 432/432/432
f 433/433/433 406/406/406 434/434/434
f 437/437/437 436/436/436 435/435/435
f 438/438/438 437/437/437 435/435/435
f 438/438/438 439/439/439 437/437/437
f 440/440/440 436/436/436 437/437/437
f 436/436/436 440/440/440 441/441/441
f 441/441/441 440/440/440 442/442/442
f 442/442/442 440/440/440 443/443/443
f 439/439/439 444/444/444 437/437/437
f 444/444/444 439/439/439 445/445/445
f 446/446/446 440/440/440 437/437/437
f 440/440/440 446/446/446 443/443/443
f 446/446/446 447/447/447 443/443/443
f 447/447/447 448/448/448 443/443/443
f 448/448/448 449/449/449 443/443/443
f 449/449/449 448/448/448 450/450/450
f 451/451/451 450/450/450 448/448/448
f 447/447/447 451/451/451 448/448/448
f 451/451/451 447/447/447 452/452/452
f 447/447/447 453/453/453 452/452/452
f 453/453/453 447/447/447 454/454/454
f 437/437/437 455/455/455 446/446/446
f 447/447/447 446/446/446 455/455/455
f 437/437/437 444/444/444 455/455/455
f 447/447/447 456/456/456 454/454/454
f 447/447/447 455/455/455 456/456/456
f 456/456/456 457/457/457 454/454/454
f 444/444/444 458/458/458 455/455/455
f 455/455/455 458/458/458 456/456/456
f 457/457/457 456/456/456 459/459/459
f 457/457/457 459/459/459 460/460/460
f 459/459/459 461/461/461 460/460/460
f 458/458/458 444/444/444 462/462/462
f 462/462/462 444/444/444 445/445/445
f 463/463/463 456/456/456 458/458/458
f 463/463/463 459/459/459 456/456/456
f 463/463/463 458/458/458 462/462/462
f 462/462/462 445/445/445 464/464/464
f 463/463/463 462/462/462 464/464/464
f 445/445/445 465/465/465 464/464/464
f 465/465/465 461/461/461 464/464/464
f 459/459/459 463/463/463 466/466/466
f 466/466/466 463/463/463 464/464/464
f 464/464/464 461/461/461 466/466/466
f 466/466/466 461/461/461 459/459/459
f 469/469/469 468/468/468 467/467/467
f 467/467/467 470/470/470 469/469/469
f 471/471/471 470/470/470 467/467/467
f 471/471/471 467/467/467 472/472/472
f 472/472/472 473/473/473 471/471/471
f 474/474/474 467/467/467 468/468/468
f 472/472/472 467/467/467 474/474/474
f 473/473/473 472/472/472 475/475/475
f 472/472/472 474/474/474 475/475/475
f 473/473/473 475/475/475 476/476/476
f 477/477/477 476/476/476 475/475/475
f 475/475/475 478/478/478 477/477/477
f 478/478/478 475/475/475 474/474/474
f 479/479/479 477/477/477 478/478/478
f 480/480/480 474/474/474 468/468/468
f 478/478/478 474/474/474 480/480/480
f 479/479/479 478/478/478 480/480/480
f 480/480/480 468/468/468 481/481/481
f 479/479/479 480/480/480 482/482/482
f 481/481/481 482/482/482 480/480/480
f 485/485/485 484/484/484 483/483/483
f 486/486/486 485/485/485 483/483/483
f 484/484/484 485/485/485 487/487/487
f 486/486/486 488/488/488 485/485/485
f 488/488/488 486/486/486 489/489/489
f 490/490/490 487/487/487 485/485/485
f 488/488/488 490/490/490 485/485/485
f 489/489/489 491/491/491 488/488/488
f 488/488/488 491/491/491 490/490/490
f 489/489/489 492/492/492 491/491/491
f 493/493/493 491/491/491 492/492/492
f 491/491/491 493/493/493 494/494/494
f 494/494/494 490/490/490 491/491/491
f 495/495/495 494/494/494 493/493/493
f 496/496/496 487/487/487 490/490/490
f 494/494/494 496/496/496 490/490/490
f 495/495/495 496/496/496 494/494/494
f 496/496/496 497/497/497 487/487/487
f 495/495/495 498/498/498 496/496/496
f 497/497/497 496/496/496 498/498/498
f 501/501/501 500/500/500 499/499/499
f 502/502/502 501/501/501 499/499/499
f 503/503/503 501/501/501 502/502/502
f 499/499/499 500/500/500 504/504/504
f 500/500/500 505/505/505 504/504/504
f 502/502/502 499/499/499 506/506/506
f 504/504/504 506/506/506 499/499/499
f 507/507/507 503/503/503 502/502/502
f 502/502/502 506/506/506 507/507/507
f 504/504/504 508/508/508 506/506/506
f 504/504/504 505/505/505 508/508/508
f 509/509/509 507/507/507 506/506/506
f 510/510/510 503/503/503 507/507/507
f 509/509/509 510/510/510 507/507/507
f 505/505/505 511/511/511 508/508/508
f 512/512/512 510/510/510 509/509/509
f 508/508/508 511/511/511 513/513/513
f 513/513/513 506/506/506 508/508/508
f 511/511/511 514/514/514 513/513/513
f 515/515/515 512/512/512 509/509/509
f 515/515/515 509/509/509 506/506/506
f 516/516/516 512/512/512 515/515/515
f 513/513/513 514/514/514 517/517/517
f 517/517/517 506/506/506 513/513/513
f 514/514/514 518/518/518 517/517/517
f 519/519/519 516/516/516 515/515/515
f 519/519/519 515/515/515 506/506/506
f 520/520/520 516/516/516 519/519/519
f 517/517/517 518/518/518 521/521/521
f 521/521/521 506/506/506 517/517/517
f 518/518/518 522/522/522 521/521/521
f 519/519/519 506/506/506 523/523/523
f 523/523/523 520/520/520 519/519/519
f 521/521/521 523/523/523 506/506/506
f 522/522/522 520/520/520 523/523/523
f 521/521/521 522/522/522 523/523/523
f 526/526/526 525/525/525 524/524/524
f 527/527/527 526/526/526 524/524/524
f 524/524/524 525/525/525 528/528/528
f 529/529/529 526/526/526 527/527/527
f 530/530/530 529/529/529 527/527/527
f 525/525/525 531/531/531 528/528/528
f 528/528/528 531/531/531 532/532/532
f 525/525/525 526/526/526 533/533/533
f 529/529/529 533/533/533 526/526/526
f 531/531/531 525/525/525 533/533/533
f 529/529/529 534/534/534 533/533/533
f 534/534/534 529/529/529 530/530/530
f 535/535/535 531/531/531 533/533/533
f 531/531/531 535/535/535 532/532/532
f 536/536/536 534/534/534 530/530/530
f 532/532/532 535/535/535 537/537/537
f 538/538/538 534/534/534 536/536/536
f 538/538/538 533/533/533 534/534/534
f 539/539/539 538/538/538 536/536/536
f 535/535/535 540/540/540 537/537/537
f 535/535/535 533/533/533 540/540/540
f 537/537/537 540/540/540 541/541/541
f 542/542/542 538/538/538 539/539/539
f 538/538/538 542/542/542 533/533/533
f 543/543/543 542/542/542 539/539/539
f 540/540/540 544/544/544 541/541/541
f 544/544/544 540/540/540 533/533/533
f 541/541/541 544/544/544 545/545/545
f 546/546/546 542/542/542 543/543/543
f 546/546/546 533/533/533 542/542/542
f 547/547/547 546/546/546 543/543/543
f 544/544/544 548/548/548 545/545/545
f 544/544/544 533/533/533 548/548/548
f 548/548/548 533/533/533 546/546/546
f 548/548/548 546/546/546 547/547/547
f 545/545/545 548/548/548 547/547/547
